<?xml version="1.0" standalone="no"?>
<!DOCTYPE svg PUBLIC "-//W3C//DTD SVG 1.1//EN" "http://www.w3.org/Graphics/SVG/1.1/DTD/svg11.dtd" >
<svg xmlns="http://www.w3.org/2000/svg" xmlns:xlink="http://www.w3.org/1999/xlink" version="1.1">
<metadata>
Created by FontForge 20161116 at Mon Jun 13 20:53:41 2011
 By Jimmy Wärting
Copyright (c) 2011 by Kimberly Geswein. All rights reserved.
</metadata>
<defs>
<font id="JandaRomantic" horiz-adv-x="590" >
  <font-face 
    font-family="Janda Romantic"
    font-weight="400"
    font-stretch="normal"
    units-per-em="1024"
    panose-1="2 0 5 5 0 0 0 2 0 3"
    ascent="819"
    descent="-205"
    x-height="518"
    cap-height="860"
    bbox="-237.645 -670.729 1291.89 1123.8"
    underline-thickness="0"
    underline-position="0"
    unicode-range="U+0020-2212"
  />
<missing-glyph horiz-adv-x="500" 
 />
    <glyph glyph-name=".notdef" horiz-adv-x="500" 
 />
    <glyph glyph-name=".null" horiz-adv-x="0" 
 />
    <glyph glyph-name="nonmarkingreturn" horiz-adv-x="500" 
 />
    <glyph glyph-name="space" unicode=" " horiz-adv-x="500" 
 />
    <glyph glyph-name="space" unicode="&#xa0;" horiz-adv-x="500" 
 />
    <glyph glyph-name="exclam" horiz-adv-x="321" 
d="M257 881q18 4 26.5 -2t11 -16.5t1.5 -21t-2 -15.5q-17 -68 -45 -152t-58.5 -169.5t-57.5 -165t-41 -137.5l-6 -7.5t-14 -10.5t-17.5 3.5t-17.5 32.5zM11 36q15 34 30 47t27 12.5t20 -11t10 -23.5q1 -7 -4 -18t-13 -20.5t-18.5 -17t-20.5 -8t-18.5 8.5t-12.5 30z" />
    <glyph glyph-name="quotedbl" unicode="&#x22;" horiz-adv-x="426" 
d="M325 569q-30 -36 -51 -40t-34 13t-17 48.5t0 66t15.5 66t31.5 48.5q24 27 43.5 32.5t34.5 -3.5t24 -28t11 -39.5t-3 -39.5t-18.5 -27.5t-36 -3t-55.5 33.5q-6 -9 -7.5 -34t4 -49t19.5 -39t39 -5zM149 617q-30 -36 -51 -40t-34 13t-17 48.5t0 66t15.5 66t31.5 48.5
q22 28 40.5 33t32.5 -3.5t23 -27.5t11 -40t-2.5 -40.5t-18 -29t-35.5 -5t-55 30.5q-6 -9 -7 -33t5.5 -46.5t21 -36.5t39.5 -4z" />
    <glyph glyph-name="numbersign" unicode="#" horiz-adv-x="704" 
d="M33 393h157q20 25 31.5 55.5t16.5 56.5l-160 15l4 71q2 0 16 -2.5t34.5 -6t43.5 -6.5t44 -3.5t36 2.5t19 12l48 170l54 -8l-47 -180h147q26 47 42.5 97.5t36.5 103.5l38 -4l-62 -206h165q4 0 3 -8.5t-4.5 -19t-8 -19t-8.5 -8.5h-166q-9 -9 -16.5 -25.5t-14.5 -35.5
t-13 -37t-11 -31h147v-55h-173l-43 -178l-66 -4l44 173h-147l-48 -169l-59 9l42 171h-122v70zM293 495q-3 -1 -10 -15.5t-13 -33.5t-10.5 -36.5t-2.5 -24.5h146l37 110h-147z" />
    <glyph glyph-name="dollar" unicode="$" horiz-adv-x="688" 
d="M254 111q-25 4 -54 8t-57.5 10.5t-54.5 17.5t-43.5 28t-25.5 41.5t-1 59.5q1 3 8 10t10 8q5 -28 28 -52.5t55 -41t68 -23t66.5 2.5t52 36.5t24.5 77.5q-76 28 -117 60.5t-55 68t-4 71.5t35.5 70.5t63 65.5t79.5 56t84.5 42.5t78.5 24.5q6 7 12.5 23.5t13.5 35.5t15 36.5
t18 27.5t23 8.5t29 -20.5q-22 -38 -20 -63.5t15 -46t31 -40t29 -45t8.5 -61t-30.5 -88.5q1 1 -6 2.5t-16 2.5t-16.5 2.5t-7.5 4.5q4 -3 9 9.5t9 33t5 44.5t-5 43.5t-20.5 30.5t-40.5 5q-6 -19 -15.5 -47t-20 -60t-22 -66t-22 -63.5t-20 -53t-16.5 -35.5q43 -11 78 -44
t61 -67q22 -38 14.5 -63t-31.5 -41t-59 -24.5t-69.5 -13t-61.5 -6t-35 -3.5q-7 -7 -17 -27t-19 -43.5t-16.5 -46.5t-8.5 -35l-69 25zM405 307q-3 -1 -12 -22t-18.5 -46.5t-16.5 -47.5t-6 -25q80 8 117.5 22t46.5 30.5t-4 33t-33.5 29.5t-42.5 20.5t-31 5.5zM470 679
q-35 0 -71 -13.5t-68 -35t-58 -49.5t-41.5 -57t-18 -57t12 -50t49 -36t92.5 -14z" />
    <glyph glyph-name="percent" unicode="%" 
d="M86 0q-13 -8 -27.5 -11.5t-24.5 2t-12 20.5t10 44l410 649h-275q-13 -9 -28 -18t-31.5 -14.5t-34 -7t-34.5 3.5q-8 29 -3.5 65.5t17.5 68.5t32 54.5t40 24.5t42 -21t37 -82h369q-32 -56 -73 -123.5t-87 -139.5t-93.5 -145.5t-91 -141t-80.5 -126.5t-62 -102zM388 63
q-9 26 -2.5 55.5t22 56t37 46.5t42.5 27.5t39 -0.5t27 -39q8 -28 1.5 -57.5t-22 -54.5t-36.5 -43t-42 -25t-39 0.5t-27 33.5zM82 762q6 -32 19 -36t26 6.5t21.5 28.5t7.5 29q-2 13 -8 23t-15.5 10t-22.5 -13.5t-28 -47.5zM426 135q-1 -28 5 -39.5t15 -12.5t20 7t21 20
t17 25.5t9 24.5q2 13 -5.5 23.5t-20.5 11t-29.5 -12.5t-31.5 -47z" />
    <glyph glyph-name="period" unicode="." horiz-adv-x="221" 
d="M16 57q-9 26 -1.5 51.5t25 46.5t41 34.5t46.5 15t42 -10.5t28 -43q8 -28 0.5 -53.5t-25 -45t-40.5 -31t-46 -12.5t-42 10.5t-28 37.5zM59 95q4 -21 12.5 -30t18.5 -8.5t20.5 8t18.5 17t13 20.5t4 18q-2 13 -10 23.5t-20 11t-27 -12.5t-30 -47z" />
    <glyph glyph-name="ampersand" unicode="&#x26;" horiz-adv-x="757" 
d="M434 172q-92 -95 -171.5 -138.5t-136 -44.5t-83 35t-12.5 99.5t75 149t181 183.5q-1 18 -9.5 40t-20 47.5t-23.5 54t-19 60t-6.5 65.5t12.5 71q27 34 58 47t61.5 10.5t58 -18.5t48 -41t31 -56.5t6.5 -64.5q-7 -32 -21.5 -59t-29.5 -52t-26.5 -50.5t-13 -53t10 -59
t44.5 -70.5q83 41 141.5 54.5t94.5 10t51.5 -18t14 -29.5t-19 -24t-46.5 -1q-33 1 -54.5 0.5t-36.5 -2.5t-26.5 -6.5t-24 -11.5t-29 -17t-42.5 -24l96 -219l-63 -6zM106 74q3 -16 23.5 -19t50 5t64 25.5t65 43t52.5 57t27.5 68t-9.5 75.5t-60 80q-24 -26 -53.5 -54.5
t-57.5 -57.5t-53 -58t-40.5 -57.5t-19 -56t10.5 -51.5zM336 517q50 52 66.5 97.5t11 81t-27 59t-46 31t-46.5 -2.5t-28.5 -42t8 -87t62.5 -137z" />
    <glyph glyph-name="quotesingle" unicode="'" horiz-adv-x="239" 
d="M51 455q4 2 21 9.5t34.5 24t29.5 44t7 69.5q-18 -16 -43.5 -20t-48.5 2q-8 2 -13 8.5t-7 15t-1.5 17t3.5 14.5q4 8 12.5 16.5t19 16.5t21.5 14t20 8q40 5 60.5 -9t26.5 -39.5t0.5 -57.5t-18.5 -63t-30.5 -57t-35.5 -38.5t-33.5 -8.5t-24.5 34z" />
    <glyph glyph-name="parenleft" unicode="(" horiz-adv-x="381" 
d="M225 -123q-72 69 -111 159.5t-50 190.5t4.5 202t53 194.5t95 167.5t131.5 121q9 -5 16.5 -15t2.5 -22q-70 -56 -120.5 -129.5t-80.5 -156.5t-38.5 -173t4.5 -179.5t47.5 -175t91.5 -159.5z" />
    <glyph glyph-name="parenright" unicode=")" horiz-adv-x="339" 
d="M55 -62q-12 -6 -20 -1t-12.5 14.5t-5.5 21.5t1 20q98 89 151 172.5t74 160.5t15 146.5t-26.5 129.5t-49.5 109.5t-54.5 86.5t-42.5 61t-12 33q10 21 31 14.5t45.5 -34.5t50.5 -74.5t48 -105t36.5 -126t16 -137t-12.5 -139t-50 -132.5q-17 -29 -40.5 -59.5t-48.5 -59
t-50 -54.5t-44 -47z" />
    <glyph glyph-name="asterisk" unicode="*" horiz-adv-x="422" 
d="M31 330q0 2 1 3l1 1l2 1q6 6 19 9t29 4.5t31 1.5t26 1q-29 47 -41.5 82t-1.5 42q13 16 28 12t30 -19t29 -36.5t24 -38.5q23 33 41 61t43 42h1q16 0 14 -17.5t-13.5 -41t-28 -47.5t-30.5 -37v-1q11 -1 29.5 5t38 12t36.5 8t25 -5q0 -1 -1 -7t-2 -14l-2 -20v-1q0 -2 -1 -3
l-1 -1q-5 -5 -18 -8t-28.5 -5t-30 -3t-23.5 -2q26 -45 37.5 -78t1.5 -40q-5 -4 -15.5 1t-25 16.5t-31 29.5t-33.5 40q-11 -41 -18.5 -70t-16.5 -44t-22 -15t-35 17q-2 0 -2 4q-2 9 11 39q10 26 22.5 49.5t26.5 49.5h-2q-12 0 -34 -4.5t-43 -6t-35 4t-10 25.5q-1 0 -1 1
q-1 0 -1 2v1z" />
    <glyph glyph-name="plus" unicode="+" horiz-adv-x="385" 
d="M70 274q0 10 -3.5 20t4 17.5t33 9.5t84.5 -4q1 55 6 92t12 37t18 0.5t18.5 -9.5t9 -37t-9.5 -81q57 0 87.5 0.5t30.5 -8.5q0 -16 2.5 -26t-6.5 -16t-35.5 -8.5t-84.5 -2.5q-1 -60 -3.5 -95.5t-9.5 -35.5q-8 0 -15.5 -1.5t-13 8t-7.5 37.5t1 88q-17 1 -37.5 2t-38.5 3
t-30 4.5t-12 5.5z" />
    <glyph glyph-name="hyphen" unicode="-" horiz-adv-x="438" 
d="M116 307q-9 -1 -21 3.5t-18.5 12.5t-5 19t19.5 23l255 9q13 -2 23 -8t13.5 -14t0 -17t-18.5 -16z" />
    <glyph glyph-name="hyphen" unicode="&#xad;" horiz-adv-x="438" 
d="M116 307q-9 -1 -21 3.5t-18.5 12.5t-5 19t19.5 23l255 9q13 -2 23 -8t13.5 -14t0 -17t-18.5 -16z" />
    <glyph glyph-name="slash" unicode="/" horiz-adv-x="651" 
d="M64 18q-10 -14 -22 -16.5t-21 2t-13 14t1 19.5l594 819l30 -30l-569 -808v0z" />
    <glyph glyph-name="zero" unicode="0" horiz-adv-x="550" 
d="M91 18q-37 28 -52.5 77t-14.5 111.5t16.5 134t40.5 143t58 139t69 121.5t73 91.5t71 48.5q55 0 92 -28t57 -75.5t24.5 -111t-4 -133t-28.5 -141.5t-50.5 -137t-69 -119.5t-83.5 -88.5t-95.5 -44.5t-103.5 12.5zM340 823q-36 -55 -76 -124t-76 -143t-63.5 -148.5
t-38.5 -141t-2.5 -121.5t44.5 -90q53 -16 101.5 13.5t89.5 87.5t73 136.5t52 160t25.5 158t-5.5 131t-41.5 79t-82.5 2.5z" />
    <glyph glyph-name="one" unicode="1" horiz-adv-x="332" 
d="M64 18q-5 -15 -15 -18.5t-19.5 0.5t-16 14t-4.5 23l216 798q5 14 26.5 25.5t49.5 6.5l-237 -849v0z" />
    <glyph glyph-name="two" unicode="2" horiz-adv-x="725" 
d="M376 18q-10 6 -25.5 20t-33.5 29t-36 27.5t-33 15.5q-17 6 -42 -3t-52 -22.5t-53 -28t-44.5 -20.5t-27.5 1t-2 36q38 29 82.5 83.5t90.5 122t90.5 140.5t83 140t69 121t48.5 82q12 30 5 41.5t-26 9t-49 -16t-64.5 -33.5t-71 -44t-70.5 -46.5t-61.5 -41.5t-44.5 -29
q-6 30 17.5 65.5t64 70t92 64t101 48t91.5 22.5t64 -13t18 -58t-47 -112l-281 -506q60 -28 98 -54.5t65 -46t49.5 -28.5t51.5 -2t70 34t107 79q28 -17 23.5 -38t-30 -42.5t-65.5 -39.5t-82.5 -29t-80.5 -11.5t-59 13.5z" />
    <glyph glyph-name="three" unicode="3" horiz-adv-x="647" 
d="M119 15q-33 20 -53.5 45t-29 47.5t-6.5 38t13.5 16.5t30.5 -17.5t45 -64.5q36 -29 80 -34.5t89 7.5t88 41.5t78 67t58.5 84.5t29 93.5t-10.5 94t-60 86.5q-13 11 -32.5 9t-40.5 -9.5t-41 -16t-33 -11t-16.5 5.5t8.5 34q10 6 35.5 22t54 34t54 34.5t35.5 24.5
q51 59 68.5 95.5t11.5 54.5t-30.5 20.5t-57.5 -5.5t-70 -24t-68 -34.5t-50.5 -37.5t-18.5 -33q-27 11 -23.5 30.5t20.5 39t39.5 36t34.5 22.5q55 35 107.5 47.5t92.5 5.5t63 -31t21 -62t-35 -88t-105 -108q6 -8 25 -28.5t38 -52.5t32 -74.5t6.5 -94.5t-38.5 -112t-103 -127
q-31 -21 -75 -43.5t-91 -36.5t-92 -14.5t-78 23.5z" />
    <glyph glyph-name="four" unicode="4" horiz-adv-x="647" 
d="M394 349l-386 163l180 217l58 -12l-156 -181l307 -114q5 15 18.5 49t31 78t36.5 92.5t36.5 92.5t30 78.5t17.5 49.5l51 -2l-132 -420q20 -18 16 -37t-17.5 -37.5t-30.5 -36.5t-23 -35q-3 -9 -10 -31.5t-15 -51t-17 -60.5t-17 -60.5t-14 -51t-8 -32.5l-6 -7.5t-14 -10.5
t-17.5 3.5t-17.5 32.5z" />
    <glyph glyph-name="five" unicode="5" horiz-adv-x="639" 
d="M110 18q-2 2 -13.5 11t-25 22.5t-27.5 29.5t-21.5 32t-5.5 29.5t19 22.5q38 -69 89 -95t105.5 -20.5t107.5 36t94.5 73.5t66.5 92.5t24 93t-33 75.5t-105 39q-39 1 -73.5 4t-66.5 2t-63 -6.5t-63 -20.5q11 40 26 85t32 90t35.5 86.5t35.5 74.5t32 55t26 27q81 8 164.5 17
t165.5 1q2 -17 -0.5 -26t-8.5 -13.5t-14 -5.5t-15 -2q-46 6 -88.5 7t-81.5 -7t-73 -28.5t-62.5 -57t-50.5 -93t-37 -136.5q117 8 193.5 -5.5t119 -42.5t55 -70t2.5 -86.5t-38.5 -93t-68.5 -89t-88 -74.5t-96.5 -49.5t-94 -14.5t-79.5 31z" />
    <glyph glyph-name="six" unicode="6" horiz-adv-x="532" 
d="M110 18q-44 20 -64.5 58t-22 88.5t14 111t42.5 125t62.5 130.5t76 129t82 119t80.5 101l41 -16q-12 -22 -39.5 -63t-63 -95t-74 -117t-72 -127t-58.5 -126t-32.5 -114.5t6.5 -91.5t57 -57q9 27 26 63.5t41 73t54 70.5t63.5 57.5t70.5 33t76 -3.5q36 -41 40 -89.5
t-16.5 -95t-61 -87t-93.5 -65.5t-114 -30t-122 18zM348 295q-26 -29 -47.5 -52.5t-39 -49t-31.5 -57.5t-25 -79q73 1 122 27t77.5 62.5t37 75.5t0 65t-32.5 32t-61 -24z" />
    <glyph glyph-name="seven" unicode="7" horiz-adv-x="618" 
d="M237 53q-7 -20 -21 -33.5t-28 -15t-23 11t-5 43.5q18 91 51 179t74.5 173.5t87.5 169t90 164.5l-372 32q-17 0 -18.5 -12.5t0 -28.5t0 -31t-17.5 -19q-27 13 -35.5 37.5t-2 48.5t26 42t47.5 18q97 -6 161.5 -12.5t108 -11.5t71 -7t50.5 0.5t47.5 10.5t62.5 25
q-17 -42 -50.5 -99t-73.5 -124t-81.5 -140t-75 -146t-54.5 -143.5t-20 -131.5z" />
    <glyph glyph-name="eight" unicode="8" horiz-adv-x="540" 
d="M27 18q-23 45 -25.5 85t10.5 76.5t38.5 69.5t57.5 63t68.5 57.5t71.5 52.5q-9 35 -21 80t-18.5 91t-2 89t29.5 76q21 30 52 52.5t64.5 35t65.5 12t55.5 -17t34.5 -50.5t3 -90q-11 -32 -35 -75.5t-51 -85t-51 -74t-35 -43.5q34 -51 38 -108t-13.5 -110t-53 -98.5
t-81 -73.5t-98 -34t-104.5 20zM284 367q-20 -12 -50 -35t-61 -52t-59.5 -61.5t-46 -63t-20.5 -57t17 -43.5q46 -7 87 2.5t73.5 30.5t55 52.5t31.5 68t3 77.5t-30 81zM475 774q-32 34 -66.5 36t-65 -18t-53 -57t-31 -81t0.5 -91t43 -86q31 30 59 66.5t51 75.5t39 78.5
t23 76.5z" />
    <glyph glyph-name="nine" unicode="9" horiz-adv-x="516" 
d="M39 -8q0 1 -3.5 6t-7 10.5t-6 10.5t-2.5 6q39 18 83.5 55t89 85.5t85 104.5t72 111.5t50.5 106.5t20 90q-61 -71 -122.5 -102t-111 -29.5t-80.5 30.5t-31 77.5t37 111.5t124 132q30 24 68 39t73 14.5t62 -21.5t36 -69q18 -77 6 -158t-44 -159.5t-80 -151.5t-102 -132.5
t-110.5 -103.5t-105.5 -64zM126 523q42 -23 88 -18.5t86 28.5t68 64.5t33 90.5q7 48 -2.5 72t-30 29.5t-48 -4.5t-56.5 -31t-57 -49.5t-48 -60t-30 -63.5t-3 -58z" />
    <glyph glyph-name="colon" unicode=":" horiz-adv-x="172" 
d="M82 162q-17 2 -27 14t-11 26t8 27.5t30 18.5q11 7 22 2t19 -15.5t11.5 -24.5t-0.5 -25.5t-16.5 -18.5t-35.5 -4zM78 387q-17 2 -27 14t-11 26t8 27.5t30 18.5q11 6 22 1.5t19 -15t11.5 -24.5t-0.5 -25.5t-16.5 -18.5t-35.5 -4z" />
    <glyph glyph-name="semicolon" unicode=";" horiz-adv-x="188" 
d="M20 -213q3 -3 17.5 7t31 26.5t31 37t18 38t-8.5 28.5t-48 10q-20 33 -20.5 54t10 31t29 9.5t37.5 -10.5t34.5 -29t20 -45t-6 -59.5t-42.5 -72.5q-17 -12 -28 -23.5t-21.5 -17.5t-23 -3.5t-30.5 19.5zM70 188q-17 2 -27 14t-11 26t8 27.5t30 18.5q11 6 22 1.5t19 -15
t11.5 -24.5t-0.5 -25.5t-16.5 -18.5t-35.5 -4z" />
    <glyph glyph-name="less" unicode="&#x3c;" horiz-adv-x="440" 
d="M190 171q-10 6 -33.5 21t-50 32.5t-49.5 33.5t-32 23q-7 21 -2 33t20 23q34 22 60.5 38.5t49 30.5t43 28t41.5 31t45 38.5t53 50.5l29 -14q-55 -68 -98 -104.5t-75 -57.5t-53 -35t-32 -36q-6 -12 9.5 -26.5t42.5 -30.5t60.5 -32.5t64 -31.5t53 -27t28.5 -20l-27 -41
q-1 -1 -18.5 7t-41 19.5t-48 24.5t-39.5 22z" />
    <glyph glyph-name="equal" unicode="=" horiz-adv-x="556" 
d="M37 237q35 9 94 15t125 9.5t131 4t113 -0.5l9 -50q-2 0 -29.5 -1t-70.5 -3t-95.5 -3.5t-104 -3.5t-97.5 -3t-75 -1v37zM37 425q2 1 6.5 2.5t19.5 2.5t43.5 1.5t77.5 1t122 1t177 0.5l8 -49l-454 3q-4 5 -4 18.5t4 18.5z" />
    <glyph glyph-name="greater" unicode="&#x3e;" horiz-adv-x="450" 
d="M45 121q17 18 42 32t53.5 28t58.5 28t57.5 31t49.5 38.5t34 49.5l-293 147v53l330 -145q9 -4 18 -12t15 -18t7.5 -21t-3.5 -22q-35 -42 -78 -78.5t-91 -67.5t-99 -55.5t-101 -42.5q0 3 -0.5 11t-0.5 16.5t0.5 16.5t0.5 11z" />
    <glyph glyph-name="question" unicode="?" horiz-adv-x="560" 
d="M64 220q0 1 3.5 21t9.5 50.5t13 66t13 67.5t10.5 56.5t5.5 32.5q28 0 70 18t84.5 42t80.5 48.5t59 38.5q49 40 57 75t-12.5 62.5t-62 45.5t-91 23.5t-99 -4.5t-86.5 -37q-5 -4 -13 -15.5t-18 -26.5t-20.5 -30t-21.5 -26t-20.5 -15.5t-16.5 3.5q-13 52 8.5 90.5t64.5 62.5
t101 35t117.5 9.5t114.5 -15t91.5 -39t48.5 -61.5t-14 -82q-25 -46 -69.5 -85t-96 -71.5t-105 -57.5t-96.5 -43q-3 -12 -10.5 -43.5t-16.5 -66.5t-17 -66.5t-11 -43.5q-3 -11 -9 -21.5t-13.5 -15t-16 -1.5t-16.5 19zM77 21q-17 2 -27 14t-11 26t8 27.5t30 18.5q11 7 22 2
t19 -15.5t11.5 -24.5t-0.5 -25.5t-16.5 -18.5t-35.5 -4z" />
    <glyph glyph-name="at" unicode="@" horiz-adv-x="1009" 
d="M220 18q-56 16 -94.5 50t-62.5 78.5t-34.5 97t-10.5 105.5q-5 75 23 147.5t79 137.5t120.5 119.5t147 93t159 58.5t157 16t139.5 -35.5t107 -95.5q17 -27 27 -72t11.5 -96.5t-7 -105.5t-28 -100t-51.5 -79t-77 -43q-46 -12 -75.5 -13.5t-47.5 4.5t-27.5 16.5t-16.5 23
t-14 24t-20 18.5q-95 -57 -154.5 -73.5t-90 -5.5t-35 43.5t12 73t50 83t79 74t100 46t111.5 -1.5q16 -20 20.5 -46.5t2.5 -54t-7.5 -55t-9 -49t-2 -36t13.5 -16.5q60 -10 105.5 13.5t74 67t40 100.5t3 114.5t-38 108.5t-81 82.5t-127.5 37t-178 -28.5q-78 -27 -150.5 -69
t-132 -100t-101 -130.5t-56.5 -159.5q-14 -93 7.5 -158t67.5 -106t111.5 -61t141.5 -23t157 8t157 32t143 48.5t114 57.5q13 -28 -7.5 -52.5t-64 -44.5t-104.5 -36.5t-129 -28t-138 -17.5t-131 -7t-108 4t-70 17zM403 367q9 -18 33.5 -19t55.5 10.5t63.5 34t58 51t39 61
t7.5 64.5q-20 4 -48.5 -5t-60 -26t-61.5 -39.5t-52 -46.5t-32.5 -46.5t-2.5 -38.5z" />
    <glyph glyph-name="A" unicode="A" horiz-adv-x="790" 
d="M655 -107q-21 42 -30 96.5t-11.5 112t0 113t5.5 100.5q-5 1 -15.5 1h-22h-22t-14.5 -1q-72 -114 -136.5 -176t-120.5 -84t-102.5 -12t-81.5 40t-57 72.5t-30 85t0 78t33 51.5q2 2 9 2t9 -2q-6 -58 3.5 -109t31 -89t52.5 -60t68.5 -22t80 24t85.5 78q42 52 76.5 122.5
t63 145.5t51 147.5t39.5 129.5q-10 1 -36.5 2.5t-59.5 1t-65.5 -5.5t-53.5 -17.5t-25.5 -34.5t19.5 -56h-55q-18 47 -8.5 78t34.5 49.5t62 27.5t76 11.5t73.5 1t56.5 -2.5q25 48 46.5 67t38 17t26 -21t9 -47.5t-11.5 -62t-35 -63.5q-11 -70 -17 -146t-1 -148q39 -19 47 -33
t-2 -23.5t-29.5 -15.5t-35.5 -9q-4 -41 -6 -93t1.5 -106t13 -105.5t29.5 -91.5q27 -6 51 5.5t46 25.5t43 23.5t44 0.5q5 -8 -6.5 -24.5t-33 -34.5t-50 -33t-57 -20.5t-53.5 2.5t-39 37zM551 385h84q0 7 0.5 25.5t1 43.5t1 52t0.5 52t-0.5 43.5t-0.5 25.5z" />
    <glyph glyph-name="B" unicode="B" horiz-adv-x="827" 
d="M128 18q-3 3 -16 15t-29.5 29.5t-32 38t-25 40t-8.5 36t19 25.5q17 -12 37.5 -37t43 -49t46.5 -39t47.5 -7.5t45.5 44.5t41 118t34 213.5t25 329.5q-43 4 -81 7.5t-69 -3.5t-53.5 -28.5t-34.5 -67.5h-19q-13 45 -5 73t29 44t51.5 21.5t63 6.5t64 -1t54.5 -1
q21 48 35 56.5t21.5 -9.5t8 -56t-7.5 -84q16 5 42 24.5t57.5 41.5t65.5 42t65 27t57 -4.5t41 -52.5q4 -30 3.5 -68.5t-17 -81.5t-53 -87t-102.5 -86q40 -2 77.5 -9t68.5 -26t52 -53t28 -91q1 -49 -22 -99.5t-61.5 -91.5t-87.5 -67.5t-99.5 -28t-97.5 27t-82 97.5
q-3 -21 -12.5 -45.5t-25 -46.5t-35 -39.5t-43 -24.5t-50 -1.5t-54.5 28.5zM381 217q12 -49 40 -78.5t62.5 -40.5t73.5 -5t73.5 28t61 59t38.5 88q2 57 -15.5 89.5t-46 48t-62.5 17.5t-65 -1t-53.5 -7t-28.5 -1q-12 3 -18 20.5t-1 34.5q61 20 107.5 53.5t77 71t46 75t15.5 67
t-16 46.5t-47.5 13t-78.5 -32.5t-110 -90.5q-10 -8 -19.5 -52.5t-17 -109.5t-12 -142t-4.5 -151z" />
    <glyph glyph-name="C" unicode="C" horiz-adv-x="606" 
d="M112 8q-49 35 -72 87.5t-26 115t11.5 132t42.5 138t66.5 132t83 114.5t92 86.5t93.5 46.5q60 15 92 3.5t42.5 -37t5 -58.5t-19.5 -60.5t-32.5 -43.5t-32.5 -6v129q-13 15 -39 7t-60 -34.5t-71.5 -68t-73.5 -93t-67 -109.5t-50.5 -117.5t-24.5 -117t10 -107.5
q25 -59 67 -85.5t92.5 -29.5t104 12.5t101 41.5t84.5 57t55 59q22 -28 19 -55t-24.5 -51.5t-57.5 -45.5t-80 -37t-91.5 -25.5t-92.5 -11t-83.5 6t-63.5 25.5z" />
    <glyph glyph-name="D" unicode="D" horiz-adv-x="1101" 
d="M10 10q12 53 41 78t67 37.5t82.5 19.5t88.5 24q22 12 40.5 55t32.5 101.5t24 125t15.5 127t6.5 107t-3 64.5q-32 3 -62 0t-53 -14.5t-37 -34.5t-13 -61q-44 29 -51 55.5t13.5 50t62.5 43.5t95.5 35.5t113 27t115.5 17t103 5.5t74 -7q61 -14 115 -46.5t96 -79t70.5 -104.5
t38 -121.5t-1 -130t-46.5 -131.5q-83 -113 -173.5 -169t-183.5 -69t-185 10.5t-177 69.5q-35 -34 -81.5 -63t-92 -44t-83 -12t-52.5 34zM229 95q1 6 -12 6t-32.5 -3.5t-41.5 -10.5t-38.5 -15.5t-23 -17.5t4.5 -17q9 -9 32 -4t47 16.5t43 25t21 20.5zM381 151q91 -53 179 -62
t164 14.5t137 73t99 114t48 137.5t-14.5 143.5t-89 132.5t-175.5 103q-65 13 -109.5 3t-73.5 -38t-46 -71t-27 -95.5t-16.5 -111t-15 -118.5t-22.5 -117.5t-38 -107.5z" />
    <glyph glyph-name="E" unicode="E" horiz-adv-x="868" 
d="M28 37q-12 23 -1.5 40t32.5 30.5t52 24t58 19t50 16.5t29 16q13 28 24.5 74t21 102t17.5 118t15 121.5t13.5 112.5t12.5 92q-57 -1 -99 -5t-68 -17t-36.5 -38.5t-5.5 -70.5q-31 1 -47 14t-20 31.5t3.5 40.5t23 41t38.5 32.5t51 15.5q30 7 60 9.5t66 3t81 0t104.5 0t136 3
t175.5 8.5q16 -5 20 -16t-0.5 -23t-17 -21t-29.5 -8l-350 -14l-43 -312q18 1 62 1h94h94t62 -1q21 1 27 -10t3 -23.5t-12 -22.5t-18 -7q-36 -4 -79 -1t-85.5 5t-81 0.5t-66.5 -13.5l-35 -229q73 -22 134 -39t116.5 -20t110 11.5t114.5 54.5q15 1 21 -5.5t6.5 -15t-4 -16.5
t-10.5 -9q-47 -39 -98.5 -59.5t-104.5 -28t-105 -4t-99 14t-87.5 26t-70.5 31.5q-15 -12 -34.5 -35t-41.5 -47.5t-45.5 -44.5t-47 -24.5t-45.5 10.5t-41 61zM217 119q-1 -1 -14 -5t-32 -9.5t-40 -13.5t-35.5 -17.5t-20 -20.5t6.5 -24q-2 -7 7 -5t23.5 9.5t32 19.5t33 24
t26.5 23.5t13 18.5z" />
    <glyph glyph-name="F" unicode="F" horiz-adv-x="852" 
d="M65 18q-24 21 -35.5 42.5t-10.5 36.5t13 20t33 -7q-12 -24 9.5 -39.5t60 -17t87.5 14t91.5 51.5t71 96t27.5 149q1 14 2.5 45.5t3.5 71t3.5 83.5t3.5 83.5t3 70.5t1 46q-24 -1 -59 -0.5t-68 -4.5t-57.5 -19t-27.5 -44l-45 -5q3 41 13.5 69t38.5 45.5t77 26.5t128.5 12
t193.5 1t271 -6q21 -2 28.5 -10.5t5.5 -18t-14 -18t-30 -10.5l-393 -6q-1 -6 -1.5 -22t-1.5 -37.5t-1.5 -45.5t-1 -45.5t-1 -38t0.5 -21.5h294q9 -1 14.5 -6t4 -12t-10.5 -14.5t-27 -13.5l-271 -8q2 -69 -6 -138.5t-27.5 -131.5t-51.5 -113t-79.5 -83t-112 -41t-147.5 13z
" />
    <glyph glyph-name="G" unicode="G" 
d="M29 -598q-40 65 -46 118t13.5 97t59.5 80.5t93.5 69t115 62.5t123.5 61q4 50 9 105t9 133q-107 -83 -181.5 -112t-120.5 -17.5t-66.5 57t-19.5 111.5t21.5 145.5t55.5 159t83.5 153.5t105 127.5t119.5 81t128 14.5q49 -7 74.5 -19.5t33.5 -26t1 -26t-21.5 -19t-33.5 -5.5
t-37 14q-7 -63 -15.5 -143t-17.5 -165.5l-18 -171t-15.5 -159t-11 -129.5t-4.5 -82q9 1 22 0.5t26.5 -2t26.5 -2.5t22 -2q14 -1 24.5 -8.5t13.5 -16.5t-3.5 -17.5t-27.5 -12.5l-108 -2q-2 -16 -3.5 -55.5t-7 -91t-17 -109.5t-31.5 -110t-51 -92t-76 -56.5t-106 -3.5t-141 67
zM70 -557q62 -50 111 -55t86.5 20t63 73.5t40 106.5t18.5 118.5t-1 109.5q-51 -13 -101.5 -36.5t-94.5 -54.5t-78 -67t-52.5 -73.5t-18 -74t26.5 -67.5zM482 774q-53 1 -103.5 -31.5t-96 -85.5t-83 -120.5t-65 -137.5t-42 -136t-13.5 -115.5t20 -77t59 -20.5t102.5 55
t151.5 149q7 27 15.5 67.5t16.5 89t15.5 101t13 101t8 91t1.5 70.5z" />
    <glyph glyph-name="H" unicode="H" horiz-adv-x="737" 
d="M631 414q-23 -4 -55 -5t-70.5 -3t-81 -6.5t-85.5 -14.5q10 -111 0.5 -186t-31.5 -120.5t-53.5 -65t-65 -20t-67 15t-59 40.5t-41 55.5t-13.5 60.5q2 4 8.5 11t9.5 7q37 -68 74.5 -99.5t70.5 -33t59.5 23.5t43 68t19.5 101t-10 124q-45 3 -63.5 19t-16 34t23.5 30.5
t56 8.5q2 27 4.5 55.5t5 59.5t5 66t4.5 76q-17 4 -34.5 1t-30 -12.5t-16.5 -25t7 -37.5q-53 8 -60.5 29.5t14.5 48t64 54t88.5 47t88 27.5t62.5 -4q16 -24 14 -32.5t-17 -14t-42 -13.5t-60 -31q-14 -30 -24 -67.5t-15.5 -77t-6.5 -78t4 -71.5q69 0 139 6t155 12q0 11 1 37.5
t2 61t2.5 72.5t3 72.5t3 61t2.5 37.5q-2 25 6.5 40.5t20 18.5t21.5 -9t11 -43l-33 -826q-4 -14 -14 -22t-20 -7.5t-17.5 12t-6.5 35.5z" />
    <glyph glyph-name="I" unicode="I" horiz-adv-x="339" 
d="M211 0q1 99 5 196t8 192.5t5.5 190t-1.5 189.5q-56 -18 -99.5 -47t-59.5 -62t2.5 -65t84.5 -54l-1 -47q-44 -9 -78 11.5t-53 55.5t-20 76.5t22 76.5q20 30 53 53t69.5 41t72 31t62.5 22q7 -2 10 -33t4 -82t0 -116.5t-3 -137t-4 -144t-4 -137t-3 -116.5t0 -82
q-3 -13 -11.5 -21.5t-19.5 -10.5t-22 2.5t-19 17.5z" />
    <glyph glyph-name="J" unicode="J" horiz-adv-x="717" 
d="M205 -295q-59 36 -100 83.5t-61 96.5t-16.5 94.5t33.5 77.5t88.5 45.5t148.5 -1.5l17 -35q-72 6 -117.5 -5.5t-69 -34.5t-27.5 -54t6.5 -63.5t33 -63t52.5 -53.5t64 -35t68 -6.5t65.5 32t54.5 79.5q36 76 59.5 158.5t37 165.5t19 162.5t5.5 150t-3.5 128.5t-7.5 98
q-73 3 -119 -7.5t-70 -31t-27.5 -48.5t8.5 -59.5t37.5 -65t60.5 -63.5q-32 -11 -63 3.5t-54.5 45t-37 70.5t-10.5 78.5t24.5 70t67.5 44.5q11 2 39.5 7.5t61 11.5t61 10.5t39.5 6.5q31 52 63 69.5t56.5 12t38.5 -27t9 -47t-33.5 -49t-87.5 -31.5q13 -214 3 -382t-38 -293
t-70.5 -207.5t-93 -124.5t-106 -45t-109.5 32zM689 827q-1 1 -12.5 0t-23 -6t-18.5 -14t0 -25q15 -3 27 2.5t19.5 14t9.5 17t-2 11.5z" />
    <glyph glyph-name="K" unicode="K" horiz-adv-x="766" 
d="M151 0q-1 24 0 79.5t3.5 126.5t6.5 150.5t7.5 152.5t6.5 131.5t4 88.5q-1 31 -11.5 47t-25.5 19.5t-32 -3.5t-31 -20.5t-22 -33t-6 -40.5t16.5 -42.5t47.5 -39.5q-15 -33 -35 -34t-37.5 18t-29 53t-10 70t19.5 68.5t60 49.5q61 9 93 -2t45 -36t11.5 -60t-7 -73.5
t-10 -77.5t2 -72t29 -57t70.5 -31q47 31 89 79t80 104t73 117.5t67 119.5q37 5 41.5 -17t-13.5 -61.5t-53 -91.5t-76.5 -107t-84.5 -108t-76 -94q28 -51 57.5 -110t65 -108.5t78.5 -80.5t97 -25q35 16 53.5 17.5t24.5 -6t1 -20.5t-17 -25.5t-29.5 -22t-36.5 -9.5
q-54 -3 -96 13.5t-75 44.5t-58.5 65.5t-45.5 76.5t-35.5 76.5t-29.5 67.5q-9 3 -25.5 2.5t-33 -2.5t-29 -3.5t-14.5 -1.5v-330q-5 -2 -15.5 -4t-21 -2t-19 3t-9.5 11zM310 377q-4 0 -14 5.5t-22 13t-25 13t-22 5t-13 -9.5t2 -31z" />
    <glyph glyph-name="L" unicode="L" horiz-adv-x="811" 
d="M28 18q-13 26 -3 53t28.5 53t39 50.5t27.5 45.5q8 52 5.5 117.5t-6 135t-1.5 137.5t19.5 125t56.5 97t110 54q25 7 49.5 -5t43.5 -35.5t31.5 -54t15.5 -59.5t-5.5 -52t-31.5 -32q-8 77 -28.5 116.5t-47.5 50t-55.5 -4t-51 -45t-35.5 -73.5t-9 -90q1 -34 2.5 -78
t3.5 -89.5t3 -89t1.5 -77t-1 -53.5t-5.5 -18q43 -30 97 -56.5t112 -42.5t115.5 -18.5t107.5 15t88.5 59t59.5 112.5q26 -8 36 -26t3 -35q-28 -75 -74.5 -117.5t-102.5 -59.5t-118.5 -13.5t-123 20t-115 42t-94.5 51.5q-12 3 -24.5 -10t-25 -32.5t-25.5 -41t-25 -34.5
t-24 -13.5t-23 21.5z" />
    <glyph glyph-name="M" unicode="M" horiz-adv-x="1060" 
d="M985 -212q-39 40 -58.5 107.5t-23.5 172.5t5.5 253.5t29.5 350.5q-9 -18 -29.5 -56t-47 -85.5t-56 -99.5t-56 -99.5t-47.5 -85t-30 -54.5q-3 -10 -11.5 -18t-19 -10t-21.5 3t-19 22q-11 99 -47 199.5t-90 184.5q-10 -87 -10 -153t-2.5 -117.5t-13 -91t-41.5 -72.5
q-50 -52 -97 -73t-89 -19t-77.5 22.5t-62 51.5t-43 68.5t-19.5 72t7.5 63t38.5 42.5q-10 -88 11 -145.5t58.5 -86t84.5 -29t87.5 25.5t68.5 77.5t28 126.5l15 383h-238q-6 0 -15 -6t-6.5 -24t22.5 -50.5t72 -84.5q-33 -7 -64 7t-54.5 38t-37 54.5t-13 57.5t18.5 45t58 18
h257q21 60 48 82t50.5 18.5t40 -26.5t17.5 -53.5t-17.5 -61.5t-64.5 -51q7 -20 18 -36t23.5 -34t27 -41.5t30 -59.5t31.5 -87t31 -125l334 585h37q3 -56 -1.5 -126.5t-12.5 -149t-16.5 -161.5t-14 -163t-5.5 -153.5t9 -133t29.5 -102t56.5 -61t90 -9t130 54.5
q19 -33 10 -56.5t-35 -38t-64 -20.5t-77 -5.5t-73.5 8t-54.5 20.5zM480 806q-14 -10 -14 -23.5t7.5 -23t20 -11t23.5 12.5q10 12 9 25t-8 21t-18 9t-20 -10z" />
    <glyph glyph-name="N" unicode="N" horiz-adv-x="876" 
d="M430 575q2 -142 -12 -244t-38 -170.5t-56 -107t-67 -54t-70.5 -11t-66.5 21t-55.5 42.5t-36.5 54.5t-9.5 55.5t24.5 46q37 -82 73.5 -119.5t71 -40.5t64.5 25t53.5 77t39.5 115t21.5 140t-0.5 151t-27 148q-82 4 -133.5 1.5t-78.5 -8.5t-32 -15t5.5 -17.5t33 -15
t51.5 -8.5q9 -3 12.5 -13t1 -20.5t-11 -18.5t-23.5 -6q-7 -3 -27 3t-43 17.5t-44.5 27.5t-31 34t-1.5 36t42.5 33.5t102 26.5t177.5 16q6 57 29.5 82t50 26.5t50.5 -16t32 -44.5t-6.5 -59.5t-64.5 -61.5l292 -588q0 7 0.5 47t4 100t11 133t20 147t31 141.5t45 116.5t61.5 72
t80 8q-54 -62 -88.5 -127.5t-55.5 -134.5t-30.5 -142t-13 -150t-3.5 -157.5t-2 -165.5l-57 -4zM451 833q-7 4 -20 1t-24 -13t-14.5 -26.5t9.5 -39.5q19 -4 32 5.5t19.5 24t6 28.5t-8.5 20z" />
    <glyph glyph-name="O" unicode="O" horiz-adv-x="569" 
d="M146 18q-55 23 -85 70t-40.5 107.5t-4.5 129.5t23 136.5t42.5 127.5t54 102.5t57 62t51.5 5.5q42 77 84 103.5t80 11.5t69.5 -67t52.5 -133q15 -82 20 -165t-4.5 -158.5t-36 -140.5t-74 -110.5t-119 -68t-170.5 -13.5zM135 94q37 -25 80 -27t85 14t79.5 46t64 69t39 83.5
t4.5 89.5q-78 7 -127 27.5t-77 58t-40 94.5t-16 137q-30 -29 -57.5 -74t-49 -98t-34.5 -111t-13.5 -114t14 -106.5t48.5 -88.5zM463 725q-32 63 -61.5 81t-53 5.5t-39.5 -48.5t-21 -82t2.5 -94.5t30 -86t62 -56.5t99.5 -6q5 42 7.5 77t1 68t-8 67t-19.5 75z" />
    <glyph glyph-name="P" unicode="P" horiz-adv-x="782" 
d="M389 460q5 -28 34.5 -32.5t70 9t85.5 43t80 71.5t53.5 93.5t7.5 108.5q-24 35 -60 41.5t-76 -8.5t-79 -48.5t-68 -78t-43 -96t-5 -103.5zM369 667q9 21 31.5 48t53.5 53t67 48.5t72 35t69 11t58 -23t38.5 -66t11.5 -118.5q-12 -53 -37.5 -98.5t-60 -80.5t-74.5 -59.5
t-80.5 -35.5t-78 -8.5t-66.5 20.5q6 -131 -7.5 -220.5t-45.5 -134t-83 -42t-121 55.5l-12 10.5t-27.5 26t-31 34t-22.5 35.5t-2 30.5t31 18.5q58 -84 102.5 -118.5t76 -31.5t52.5 39t32.5 92t15 128t1.5 147t-9 148.5t-16 133.5q-45 18 -75.5 11t-49.5 -29t-29 -54t-13 -63
t-1.5 -56.5t4.5 -34.5l-59 15q5 95 14 151.5t33 85.5t67 36t117 4q13 44 29.5 63.5t31 20.5t25 -12t11.5 -35t-9.5 -49.5t-38.5 -53.5q-3 -8 -3.5 -13.5t1 -13t4 -19.5t3.5 -32z" />
    <glyph glyph-name="Q" unicode="Q" horiz-adv-x="954" 
d="M602 12q-8 3 -28.5 17t-44 30.5t-44 31t-27.5 19.5q-53 -29 -99 -51t-90 -33t-87.5 -9t-90.5 20q-40 27 -56 60.5t-14 66.5t19.5 63t45 50t62.5 25.5t72 -8.5q22 -4 56.5 -20t72 -36t72.5 -39.5t58 -30.5q24 14 55 50.5t62.5 86t59 107.5t43.5 115.5t17 109.5t-21 89
t-70 55t-130 8q-44 -65 -87 -101.5t-81.5 -50.5t-70 -10t-51 20t-25 40.5t8 50t47.5 49.5t94 39q121 34 204 31t135 -33.5t75.5 -83.5t24 -117.5t-18 -135.5t-51.5 -138t-76 -125t-91 -96q23 -19 55 -36.5t68.5 -30t75 -18.5t76 -3.5t70.5 15t58 37.5q0 -39 -16.5 -64
t-44.5 -38.5t-63 -16.5t-72 1t-73 14.5t-64 23.5zM73 183q-10 -45 7 -71.5t49 -37.5t73.5 -9t81.5 13t72.5 29.5t46.5 39.5q-16 12 -43 29t-59.5 32t-67 26t-65.5 10.5t-56.5 -14t-38.5 -47.5zM238 716q-8 -29 5.5 -38.5t37.5 -6t53 17.5t52 31.5t34.5 36t1.5 32.5
q-22 6 -49.5 3t-53.5 -13t-48 -26t-33 -37z" />
    <glyph glyph-name="R" unicode="R" horiz-adv-x="987" 
d="M505 477q53 6 104.5 21t95.5 37t79.5 50.5t56.5 60.5t26 66.5t-11 69.5q-19 41 -54.5 45.5t-77 -16t-84 -60t-75.5 -87t-50.5 -97t-9.5 -90.5zM500 639q2 17 18 43t40.5 54.5t56.5 57t66 50t68.5 33t64.5 7t54 -28.5t37 -73q19 -74 4.5 -126.5t-47.5 -89.5t-77 -59.5
t-84 -36.5t-67.5 -21t-27.5 -11q0 -81 21 -153.5t64 -123t108 -72.5t153 -3q18 -14 22 -26.5t-2 -22.5t-19.5 -16.5t-31.5 -8.5q-79 -9 -137.5 10t-99.5 55.5t-66.5 84.5t-40 97.5t-19.5 94.5t-5 76h-62q-5 -40 -6 -87.5t-5.5 -95t-16.5 -91.5t-39 -78t-72 -53.5t-115 -17.5
q-4 0 -12 2.5t-17 5.5t-16 6t-10 4q-24 6 -46.5 23.5t-39.5 42t-27 54.5t-8 60.5t17.5 60t48.5 53.5q-24 -63 -15 -115t38 -86.5t71 -50t83 -6.5t74 46t44 106q1 18 3 57t4.5 89t6 105t6.5 105t5 89.5t3 57.5q4 52 -16 76t-48.5 27t-57.5 -11.5t-42.5 -38t-4 -52.5t58.5 -56
q-1 -18 -12.5 -23.5t-28 -1t-33.5 18t-29.5 34t-17 47.5t5.5 58q10 30 32.5 49.5t51 29.5t59.5 10.5t57.5 -8t44.5 -26t21 -42.5z" />
    <glyph glyph-name="S" unicode="S" horiz-adv-x="716" 
d="M138 18q-35 9 -64.5 41t-43.5 72t-7.5 80t42.5 64q-10 -69 7 -114t52.5 -70.5t84 -33.5t102 -3t107 21t98 38.5t76 50t40.5 55t-8.5 53t-70.5 45.5q-48 10 -103 14.5t-107 11t-96.5 18t-72.5 34t-35 60t17 95.5q32 59 81.5 117.5t105.5 105t112.5 75t102.5 27.5t75 -37
t31 -118q-11 -35 -31 -56.5t-43 -31t-45 -8t-37 11t-19 27t10 39.5q8 -6 18 -15t22 -14.5t24.5 -4t26.5 15.5q17 72 3.5 104t-45.5 34t-77 -20t-92 -58.5t-89 -81.5t-69 -88t-32.5 -79t22.5 -55q31 -21 66.5 -31.5t73.5 -16t77 -8t77.5 -8t75.5 -16t71 -30.5q44 -38 53 -76
t-7.5 -72.5t-54.5 -65.5t-88 -55.5t-107.5 -41t-114.5 -23.5t-108 -2t-87 24z" />
    <glyph glyph-name="T" unicode="T" horiz-adv-x="631" 
d="M315 14q-4 34 -3.5 107t-1 170t-7.5 210t-24 228q-3 3 -19.5 12t-39.5 19.5t-49.5 20.5t-49.5 14.5t-38 2t-15.5 -17t17 -42.5t60.5 -75q1 -1 -3.5 -7t-10 -13t-10.5 -13.5t-6 -7.5q-31 14 -59 42t-45 60.5t-21 63.5t12 51t55 23.5t108 -19.5q61 -21 105.5 -35.5
t84.5 -21.5t82 -5.5t99 13.5q31 10 35 24t-6.5 26t-31 19t-39.5 3q26 18 55.5 17t53 -14.5t37 -34.5t8.5 -42t-32 -39t-85 -24q-14 -1 -38.5 -1.5t-51 -0.5t-51.5 0.5t-38 1.5q3 -78 4.5 -170.5t3 -187.5t3.5 -187t7 -170q-5 -6 -13 -11t-16.5 -6.5t-15.5 2t-10 15.5z" />
    <glyph glyph-name="U" unicode="U" horiz-adv-x="864" 
d="M553 221q-16 -37 -48 -78t-70 -73.5t-78 -50.5t-73.5 -7.5t-56.5 54.5t-26 136q2 70 9 139.5t14 134.5t12.5 123t4.5 104t-10 78t-30 45q-16 13 -31.5 13t-29.5 -8t-26.5 -22t-23.5 -28.5t-20 -27.5t-15 -19q-13 -13 -19.5 -5.5t-8 23t1 32.5t7.5 23q37 47 82.5 66
t85.5 9t69 -49t34 -108q-5 -36 -12.5 -86t-14.5 -106.5t-13 -116t-8 -114t1 -100.5t13 -76.5t29 -41t49.5 5.5t73 62.5t99.5 130.5l100 561q4 18 12.5 20.5t17.5 -3.5t16.5 -16.5t8.5 -18.5l-81 -535q10 -97 30.5 -145.5t49.5 -62t65 2t76 45.5q11 0 20 -4.5t12 -13
t-3 -20.5t-26 -27q-46 -34 -90.5 -45.5t-81 5t-62.5 64t-35 131.5z" />
    <glyph glyph-name="W" unicode="W" horiz-adv-x="856" 
d="M222 29q16 172 15 313t-13.5 243.5t-33.5 163t-44 71.5t-45.5 -30.5t-37.5 -142.5q-25 10 -34.5 33t-7 51t15 57.5t31.5 53t43 36.5t49 8.5t49.5 -31t44.5 -81.5q6 -19 11.5 -56t9.5 -82.5t7 -94.5t5 -91t2.5 -73t-0.5 -41q4 10 14.5 33.5t24.5 53.5t29 62.5t28.5 62.5
t24 53t14.5 34l6.5 19.5t15 27.5t24 7t32.5 -40l190 -523q13 34 24 86.5t20.5 114t17.5 127t14 126t9.5 110.5t4.5 80q-9 35 -23.5 47.5t-32 10.5t-36.5 -13.5t-36 -24t-30 -21t-19 -4.5q39 53 78.5 88.5t71.5 40.5t53 -25t24 -108q-5 -75 -13.5 -165.5t-20 -180
t-26.5 -170.5t-32.5 -138t-38 -83t-42.5 -4q-2 26 -12 69t-26 94t-36 106t-41.5 106.5t-43 94.5t-40.5 71q-12 -21 -29 -56.5t-36.5 -80t-38.5 -95t-34 -100t-24.5 -95t-8.5 -80.5q-7 -15 -17 -23t-20 -11t-18.5 -0.5t-11.5 9.5z" />
    <glyph glyph-name="X" unicode="X" horiz-adv-x="817" 
d="M373 450q6 10 5 42.5t-9 74.5t-21.5 87t-31.5 81t-40.5 57t-46.5 15q-20 0 -42 -14t-44 -35.5t-42 -46t-36.5 -45.5t-28.5 -34t-16 -10q-3 6 -3 16t2 21.5t4 21.5t4 16q65 78 114.5 120.5t87 53t65.5 -8.5t52 -64t45 -113.5t45 -156.5l248 352q3 4 9 3t12 -5t10.5 -9
t5.5 -8l-269 -427q-6 -64 6 -127.5t37.5 -114.5t60 -82.5t73.5 -32.5t78.5 35.5t74.5 122.5q-6 -99 -36.5 -153.5t-72.5 -70t-89.5 3.5t-88.5 67t-69.5 120.5t-31.5 164.5q-30 -44 -58 -91.5t-54.5 -94.5t-53 -93t-54.5 -88l-59 20z" />
    <glyph glyph-name="Z" unicode="Z" horiz-adv-x="954" 
d="M36 18q-25 45 -28 85.5t10.5 73.5t40 56.5t61.5 35t75 9.5t80 -21q29 45 69 108.5t82.5 132.5t82.5 136t69 117q-16 1 -51.5 4t-80.5 4.5t-93.5 0.5t-92 -8t-76.5 -21.5t-45 -38.5q1 -17 7 -38.5t6.5 -36t-9.5 -17t-41 18.5q-14 43 -4.5 74t36.5 53t67 35.5t86 21t95 10
t93.5 2t81 -3.5t58.5 -5q47 40 82 56t59.5 15.5t38.5 -13.5t18.5 -30.5t0.5 -35.5t-16 -29q-14 -20 -32 -25t-39 -3t-43.5 6t-44.5 2l-320 -528q64 -13 120.5 -39t105.5 -52t92 -47t80.5 -25t71 15.5t63.5 73.5q1 1 6 3.5t12 1.5t13.5 -7t9.5 -22q-17 -59 -48.5 -88
t-72.5 -36.5t-88.5 3t-96.5 29.5t-97 43t-89.5 45t-74 34.5t-51.5 11.5q-17 -11 -35 -31t-37.5 -42.5t-39.5 -44t-41 -34t-42.5 -13.5t-43.5 18zM233 201q-13 17 -38 20t-52.5 -5t-51.5 -24.5t-35.5 -38.5t-5 -47.5t40.5 -50.5zM774 810q-4 13 -17 16t-29 -1t-30.5 -11.5
t-21.5 -15.5q9 -6 23 -8.5t29 -1t28 7t18 14.5z" />
    <glyph glyph-name="Y" unicode="Y" horiz-adv-x="811" 
d="M389 -655q-100 32 -140.5 82t-37 108.5t42.5 119.5t97.5 115.5t128.5 96t135 60.5v147q-6 11 -30.5 6t-59 -17.5t-75 -27.5t-77.5 -25t-66 -10.5t-41 16.5q-15 3 -14 37t9.5 87.5t21 119.5t21 133.5t10 130t-12 108t-46 67.5t-91.5 9q-24 -10 -48 -29t-43.5 -43.5
t-31.5 -53t-12 -56.5q-26 17 -30 43.5t8.5 55.5t38 57.5t58 49.5t69.5 32t72 4.5t65 -33t50 -80.5q2 -5 5.5 -16t6.5 -35t2.5 -63.5t-7 -100.5t-20.5 -147t-40 -203q-1 -23 18.5 -27.5t50 2t67.5 21.5t69.5 31.5t56 30t27.5 18.5q0 9 1 37t3 65t4.5 78t4.5 78t4 64.5t4 37.5
q7 48 22.5 103.5t42 106t64.5 88.5t91 51q13 3 22.5 -2.5t12.5 -15t-0.5 -20.5t-16.5 -17q-67 -18 -109.5 -84.5t-62 -176t-18 -259.5t22.5 -336l78 11q18 5 34.5 0t22 -15.5t-3.5 -24t-41 -25.5l-81 -12q-12 -111 -11.5 -199.5t-1 -155.5t-11 -112.5t-40 -70t-88.5 -28
t-156 12.5zM364 -590q69 -14 115.5 -17.5t77 6.5t48 35.5t28.5 70.5v367q-30 -8 -67.5 -28t-77.5 -47.5t-78 -61t-67.5 -69.5t-48 -72.5t-19.5 -70.5t20 -63t69 -50z" />
    <glyph glyph-name="a" unicode="a" horiz-adv-x="454" 
d="M36 18q-19 42 -23 103t5.5 126t32.5 126t57.5 102t81 54.5t103.5 -15.5q4 -51 1 -100.5t-8.5 -100t-9.5 -101t-1 -102.5q12 -34 30.5 -45t41 -7.5t47 18.5t46.5 34q10 -24 1 -46t-30 -37t-49 -21t-56 2t-51.5 32t-34.5 70q-31 -48 -59 -71.5t-52 -31t-42.5 -3t-30.5 13.5
zM106 66q25 18 44.5 50t33.5 71.5t22.5 82t11 81t-0.5 69t-12 45.5t-23.5 10.5t-35.5 -35.5q-21 -39 -38.5 -82.5t-29 -85.5t-16.5 -79.5t-2.5 -66t14 -45t32.5 -15.5z" />
    <glyph glyph-name="b" unicode="b" horiz-adv-x="405" 
d="M45 2q-6 26 -4 80.5t8.5 123.5t15 146.5t14.5 150t8 133t-4.5 96.5t-24 40t-50.5 -36q-2 -2 -9 -2t-9 2q-2 15 6 35t22 36.5t31.5 25.5t34.5 3t31.5 -31.5t22.5 -79t6.5 -138.5t-16.5 -210q52 63 100.5 81.5t85 4t56.5 -56.5t16 -100.5t-37 -128t-102 -138.5
q-14 -12 -33.5 -18t-40.5 -6.5t-40.5 5.5t-32.5 19q1 -10 -3.5 -19.5t-12.5 -15.5t-18.5 -7.5t-20.5 5.5zM111 99q33 -29 66 -22.5t61.5 35t50.5 71.5t34 86.5t10.5 81t-19.5 54.5t-55.5 6t-98.5 -63q-20 -24 -29.5 -51t-13.5 -58t-4.5 -65.5t-1.5 -74.5z" />
    <glyph glyph-name="c" unicode="c" horiz-adv-x="450" 
d="M55 55q-23 35 -36 80t-15 92.5t8.5 94.5t34.5 88.5t62 73t92 48.5q7 3 12 8.5t10.5 11t11.5 7.5t15 -2q-3 -14 -2 -40.5t1.5 -57.5t0 -62.5t-6.5 -54t-18 -32.5t-33 2v147q-29 4 -53 -13.5t-41.5 -48.5t-28 -71.5t-12 -81.5t6 -79.5t25 -65t46.5 -37t70 2.5t95 54.5
t122 119.5q7 -30 -9 -65.5t-47 -68.5t-72 -58.5t-84.5 -36t-84 -1.5t-70.5 46z" />
    <glyph glyph-name="d" unicode="d" horiz-adv-x="468" 
d="M27 37q-18 78 -11.5 145.5t29 122t55.5 95.5t68.5 66t68 33t54 -3t27 -43t-14.5 -86q-15 55 -41 67.5t-55.5 -5t-59 -57.5t-51 -89t-31.5 -100t-1 -91q5 -33 24.5 -31t45.5 25t55 59.5t53.5 72t41.5 62.5t19 32q10 48 24 111t25 127.5t16.5 124t0 100.5t-25.5 57t-59 -6
q-6 18 1.5 34t22.5 26.5t33.5 14t34.5 -1.5q28 -9 37.5 -54.5t7.5 -112t-11.5 -148t-19.5 -162.5t-16.5 -155t-3 -126.5t21.5 -76t58 -3.5q-17 -44 -34.5 -54.5t-34 2.5t-30 42t-22 64t-11.5 68.5t3 55.5q-7 -5 -22 -26.5t-35.5 -49.5t-45.5 -59t-51 -55.5t-52.5 -39
t-50.5 -9.5q-2 0 -7.5 4.5t-11.5 10.5t-11 12t-7 10z" />
    <glyph glyph-name="e" unicode="e" horiz-adv-x="389" 
d="M364 179q14 -17 1.5 -41.5t-41 -48.5t-67.5 -45t-78.5 -31.5t-73.5 -7t-53 27.5q-36 88 -38.5 169.5t17.5 148t56.5 114.5t79 67.5t84.5 7t74 -65.5q12 -29 -3.5 -54t-50 -50t-82.5 -51.5t-100 -59.5q-19 -82 -12 -126t31 -60.5t59.5 -10.5t72.5 24.5t70.5 44t53.5 48.5z
M270 438q-18 35 -45.5 37.5t-54.5 -16.5t-48.5 -54t-27.5 -74q25 15 58 30.5t60.5 29.5t45 26t12.5 21z" />
    <glyph glyph-name="f" unicode="f" horiz-adv-x="303" 
d="M-225 -201q-14 28 -12.5 46.5t11 25.5t24 1t26.5 -28q31 -55 64 -78t64 -22.5t57.5 19.5t46 48.5t30 65t7.5 68.5q2 36 3.5 68.5t2 65.5t0 70.5t-1.5 84t-3 105.5t-4 136l-98 -4l-4 60q12 0 21.5 0.5t20.5 0.5t25.5 -0.5t37.5 -1.5q-3 51 2 106.5t18.5 104t36 86
t55.5 53.5t77 5t99 -58l6 -84q-39 51 -72 69.5t-59.5 12.5t-46.5 -33.5t-33 -67.5t-19.5 -90t-4.5 -102l135 4l-4 -57l-127 -8l-8 -526q-2 -79 -22.5 -132.5t-52.5 -84.5t-72 -40.5t-80.5 0.5t-79 38.5t-66.5 72.5z" />
    <glyph glyph-name="g" unicode="g" horiz-adv-x="500" 
d="M377 61q6 -167 -11 -289.5t-48 -206t-72 -131t-83.5 -64t-82.5 -5.5t-69 45t-42 87.5t-2.5 121t49.5 147t115 164.5q4 9 21 25t39.5 35t45.5 41t39 43.5t20.5 41t-9.5 35.5q-6 -7 -17.5 -22t-27.5 -33t-35 -36.5t-39.5 -32.5t-41.5 -21t-41 -2q-41 25 -57 65t-13.5 88
t21.5 98.5t48 96t66 81t76 52.5t77 11.5t70 -42.5q2 -5 3.5 -30t1.5 -60t-0.5 -74.5t-0.5 -73.5t-0.5 -57t-0.5 -24q17 5 39.5 11.5t39.5 8.5q7 1 16.5 1t14.5 -5.5t3.5 -17t-15.5 -33.5zM45 -553q43 -30 78.5 -29.5t64.5 24t52 66t40 95.5t28.5 113t17.5 119t7.5 112.5
t-1.5 93.5q-36 -24 -79.5 -65.5t-85 -92.5t-76.5 -109.5t-55 -116.5t-20 -112.5t29 -97.5zM314 424q-37 11 -71.5 -1.5t-63.5 -39.5t-52.5 -64.5t-38.5 -76.5t-20 -76.5t1.5 -63.5t26.5 -37t55 1q81 69 120.5 161.5t42.5 196.5z" />
    <glyph glyph-name="h" unicode="h" horiz-adv-x="525" 
d="M59 4q3 43 6 83.5t5.5 83t5 89.5t4 103.5t2 125t0.5 154.5q-3 42 -7.5 83.5t-15.5 64t-30 19t-51 -51.5q-14 15 -6 36.5t26 38.5t42 26.5t42 0.5q23 -14 36 -44t18 -69t4 -84.5t-4 -91.5t-7.5 -89t-5.5 -77q56 63 97.5 86.5t71 17.5t49 -35.5t31.5 -72t17.5 -92.5
t6.5 -97t0 -85t-2 -57l97 65q26 6 28 -5.5t-10.5 -30t-35.5 -39t-47.5 -33t-47 -13t-34.5 22.5q1 32 1 75.5t-2 89.5t-6 91t-10.5 81.5t-15 60.5t-20.5 28q-40 -4 -68.5 -23.5t-48.5 -51t-31.5 -73t-17 -88t-7 -96t0.5 -98.5q-3 -11 -10 -20t-16 -13.5t-18.5 -4t-15.5 8.5z
" />
    <glyph glyph-name="i" unicode="i" horiz-adv-x="283" 
d="M77 57q-5 55 0 115t13.5 114t15.5 96t6 62t-15 12t-48 -55l-18 18q-7 6 -1 20.5t19.5 30.5t32 30.5t37 22t35.5 4t27 -22.5q-1 -26 -8.5 -66t-16.5 -86t-17.5 -93t-12.5 -87t-1.5 -68t16 -35.5t39.5 10t70 68.5q24 -5 23 -21.5t-17.5 -36.5t-43.5 -38t-54.5 -26.5
t-50 -2.5t-30.5 35zM98 655q6 19 21.5 25t29.5 1t21 -20.5t-3 -38.5q-19 -17 -34.5 -20.5t-25 2.5t-12.5 19.5t3 31.5z" />
    <glyph glyph-name="j" unicode="j" horiz-adv-x="377" 
d="M-112 -594q-61 65 -77.5 129.5t-1.5 123.5t56.5 111t97 91.5t119.5 64t125 30.5q2 47 0 109.5t-6 127t-9 123.5t-8 98q-29 -2 -49 -16t-32 -35.5t-15 -49t2 -55.5l-57 13q-5 46 14 88t51 76t71 58t74.5 33t62 0.5t33.5 -37.5q-3 1 -13 -3.5t-22.5 -21.5t-25 -50.5
t-19 -92.5t-5.5 -146.5t16 -211.5l120 2q11 -12 10 -22.5t-10.5 -19.5t-25 -15.5t-32.5 -11t-33 -6.5t-27 -1q-2 -29 -9 -71t-20 -90t-32 -98t-43 -94.5t-54 -81t-65 -56t-75 -19.5t-86 27zM-94 -537q39 -39 78 -33t74.5 40.5t65 90t50 115t29.5 115t4 91.5q-48 5 -100 -11
t-98 -47.5t-83 -74t-54 -91t-11 -99t45 -96.5zM188 690q-6 18 0.5 32t18.5 21t26.5 4.5t24.5 -18.5q4 -31 -5 -43.5t-22.5 -13.5t-26.5 5.5t-16 12.5z" />
    <glyph glyph-name="k" unicode="k" horiz-adv-x="565" 
d="M66 803l-128 -92v37q53 63 88.5 89t57 24t31.5 -27t13 -64.5t0.5 -88t-5.5 -97.5t-5 -94t1 -76q43 46 89.5 70.5t89.5 31t78 -2.5t55 -28t21.5 -46t-22.5 -56.5t-77.5 -60t-143.5 -56.5q-6 -5 -3 -25.5t15 -46.5t34.5 -52.5t56.5 -43.5t79.5 -20.5t104.5 16.5q3 3 17.5 1
t23.5 -9.5t2.5 -21.5t-46.5 -33q-85 -14 -149 1t-109.5 54t-74 97.5t-41.5 131.5q-5 -16 -8.5 -41.5t-5.5 -55t-3 -61t-1.5 -59.5t-0.5 -49.5t-1 -30.5q-2 -11 -9.5 -16.5t-17.5 -6t-19.5 4t-15.5 13.5zM164 348q-8 -4 4.5 -6.5t36.5 -1.5t54.5 6.5t57.5 17t46.5 30.5
t21.5 48q-7 17 -27 21t-46 -1t-54 -17t-50 -28t-35 -34.5t-9 -34.5z" />
    <glyph glyph-name="l" unicode="l" horiz-adv-x="274" 
d="M59 55q23 161 39.5 278t26 197.5t13 128t1 68.5t-10.5 19.5t-20.5 -18t-30 -44.5t-38.5 -61q-2 -2 -9 -2t-9 2q-4 10 2 32.5t19 48t30 51.5t35.5 43.5t35 23t28.5 -9.5t17.5 -54.5t-0.5 -110.5q-3 -19 -8 -59t-12 -92t-15.5 -111t-16 -115.5t-14.5 -106t-11 -81.5
q6 -15 18 -15t28.5 12.5t36.5 36.5t43 56q14 -26 6 -54t-28 -52.5t-47 -42t-51.5 -22t-41.5 7t-16 46.5z" />
    <glyph glyph-name="m" unicode="m" horiz-adv-x="759" 
d="M92 12q2 26 5 63.5t5 80t3 85.5t-1.5 79t-9 61.5t-19 32t-32.5 -8.5t-48 -60q-11 19 -5.5 47.5t21.5 53t37.5 39.5t43.5 6t39.5 -47.5t24.5 -120.5q2 20 12.5 53.5t27.5 66t38.5 57t45.5 27t48.5 -25t47.5 -97.5q3 11 13.5 31.5t25 41t32 35t35.5 13t35 -23t31 -74.5
t23 -142t11 -224q23 -1 44.5 13.5t40.5 34.5t34 41t25 34q18 -26 12.5 -54.5t-25 -53t-48 -43.5t-56.5 -27.5t-50 -3t-28 29.5q-8 132 -16.5 215.5t-17 130t-16.5 62t-16.5 12t-16 -20t-14.5 -34.5q-4 -12 -8 -39t-8.5 -61t-9 -71.5t-9 -71.5t-8 -61t-6.5 -40
q-6 -21 -23.5 -24.5t-30.5 13.5q3 28 6 65.5t4.5 78.5t0.5 81.5t-6.5 75t-16.5 59.5t-29 35q-22 -1 -37.5 -22.5t-27.5 -56t-20.5 -78t-16.5 -86.5t-16.5 -82.5t-19 -66.5t-25.5 -37.5t-35 4.5z" />
    <glyph glyph-name="n" unicode="n" 
d="M119 12q6 44 10 97.5t1 110t-15 111t-37 99.5l-62 -115q-17 5 -19.5 25.5t4.5 47t21.5 53.5t32 46t35.5 25t33 -11l47 -144q38 74 70.5 108t60 38.5t49.5 -16t38 -56.5t27 -82.5t16 -94.5t4 -93t-7 -76q14 -23 30.5 -17.5t34.5 26.5t36.5 51t35.5 57q13 -13 14.5 -33
t-9 -44t-33 -51t-58.5 -54q-38 -21 -59 -2.5t-32 60t-15.5 97t-8.5 108.5t-11.5 95t-24.5 56q-29 9 -48.5 -6.5t-33 -47t-22.5 -74.5t-16.5 -87.5t-14.5 -87t-16.5 -72.5t-23 -44t-34.5 -3z" />
    <glyph glyph-name="o" unicode="o" horiz-adv-x="332" 
d="M80 8q-21 4 -34.5 31.5t-19 69.5t-4 93t10.5 102.5t24.5 97.5t37.5 78t50.5 45t63.5 -2q40 -19 65.5 -53t37 -77t10.5 -91t-12.5 -94t-33 -87t-51.5 -69.5t-66.5 -41t-78.5 -2.5zM101 67q42 -3 75.5 24.5t55 70.5t31 95t4.5 97.5t-26.5 78.5t-60.5 38q-14 6 -28 -8
t-27 -40.5t-23.5 -62.5t-18 -74.5t-11 -76.5t-2 -68.5t9 -50.5t21.5 -23z" />
    <glyph glyph-name="p" unicode="p" horiz-adv-x="505" 
d="M106 -442q1 118 4.5 222.5t5 206.5t-1 208.5t-13.5 228.5q-26 -22 -50 -52.5t-42 -57.5h-18q-6 20 8 54t39.5 67t57 57t60.5 24l8 -102q67 70 122.5 86t97 -3.5t67 -66.5t32.5 -105t-6.5 -118t-50 -105t-97.5 -66.5t-149 -2.5l-4 -471q-4 -12 -13 -19t-19.5 -8.5t-20.5 4
t-17 19.5zM184 364q-1 -2 -0.5 -23t1.5 -51t2.5 -65t2.5 -65.5t1.5 -51.5t0.5 -23q77 -7 126.5 14.5t75.5 59.5t31 85t-5.5 90.5t-34 77t-55.5 44t-70 -9.5t-76 -82z" />
    <glyph glyph-name="q" unicode="q" horiz-adv-x="459" 
d="M352 -434q-3 30 -5 77t-3 102t-2 114.5t-1.5 114.5t-0.5 101v76q-47 -68 -100.5 -111t-119.5 -44q-45 -7 -69.5 12t-32.5 54.5t-1.5 83.5t24 99.5t44.5 102t59.5 91.5t69.5 68t74 30.5t72.5 -20t65.5 -83.5q-7 -80 -13 -178.5t-9.5 -200.5t-3.5 -200.5t5 -177.5
q12 26 31 52.5t49.5 49.5t75.5 39.5t109 21.5q10 1 14.5 -7.5t3.5 -20.5t-7 -23t-18 -14q-45 -5 -81.5 -13t-65 -29.5t-50 -61t-36.5 -105.5h-78zM377 397q-18 56 -43.5 75t-55 11t-59.5 -38t-57 -72t-48 -90.5t-31 -94t-7 -82.5t23 -56q25 -13 57 1t64 44.5t62.5 72
t53 84.5t34 81.5t7.5 63.5z" />
    <glyph glyph-name="r" unicode="r" horiz-adv-x="480" 
d="M180 20q-4 -13 -14 -21.5t-20 -10.5t-18 3.5t-9 20.5q-2 19 -1 54.5t2.5 79t2.5 90.5t-0.5 88t-7.5 71t-18 40t-32 -4.5t-49 -63.5q-12 26 -4 51t27.5 41.5t45 22.5t48 -5t37 -41.5t11.5 -86.5q0 21 14.5 46t39 48.5t55 42t61.5 26t59.5 0.5t48.5 -33q6 -9 6.5 -18
t-3 -15.5t-10 -8.5t-14.5 3q-47 27 -82.5 22.5t-63 -30t-46.5 -66.5t-32 -87.5t-20 -94t-10.5 -85t-4 -60t0.5 -19.5z" />
    <glyph glyph-name="s" unicode="s" horiz-adv-x="364" 
d="M128 13q-11 -1 -25 7t-27 21.5t-22.5 30t-11 30.5t7 23t31.5 9q-1 -29 14 -46.5t37.5 -24.5t49.5 -5.5t50.5 10.5t39.5 24t18 34q1 13 -17 29t-46 34.5t-61.5 39t-62.5 44t-49.5 49t-22.5 53.5t19 58.5t74 62.5q35 9 63.5 3t49.5 -20.5t33.5 -35t15.5 -40t-4.5 -35
t-27.5 -20.5q-3 32 -21 58t-43.5 36t-55 -0.5t-56.5 -52.5q-5 -19 8.5 -38.5t38 -38.5t56 -38t61 -36t53 -33t33.5 -29q24 -28 24.5 -54t-15 -47t-42 -37t-57 -24.5t-60 -9.5t-50.5 9z" />
    <glyph glyph-name="t" unicode="t" horiz-adv-x="344" 
d="M293 180l7 -2t12 -8.5t4 -19.5t-17 -34q-36 -50 -70.5 -81.5t-63.5 -38t-51 15t-33 78t-10.5 151t16.5 234.5q-21 -1 -34.5 -5t-25.5 -8.5t-25.5 -8t-34.5 -3.5q-14 16 -11.5 28t15 20.5t31.5 14.5t38 11.5t34 11.5t20 13q8 34 11.5 74.5t3 77.5t-6.5 63.5t-17.5 32.5
t-29 -14.5t-42.5 -78.5q-7 21 -1.5 46t19 48.5t32.5 40.5t37.5 21.5t35 -7.5t25.5 -47.5t7.5 -98t-17.5 -158.5q19 6 47 8.5t51.5 -1.5t34 -16t-5.5 -34l-137 -23q4 -18 2 -55t-5.5 -81.5t-7 -92t-2 -87t9.5 -66.5t26.5 -30.5t49.5 21t79 88.5z" />
    <glyph glyph-name="u" unicode="u" horiz-adv-x="626" 
d="M356 205q-29 -30 -56.5 -61.5t-52.5 -59t-47.5 -48.5t-41 -29.5t-32.5 -1.5t-23 35l-5 383q-12 -34 -24 -61.5t-23.5 -41.5t-22 -11t-19.5 29q22 85 39.5 132t32 64.5t25.5 8t19 -38.5t14 -74.5t10.5 -100t7 -114.5t4.5 -118q33 8 66 48.5t61 98t47.5 124t26.5 128.5
q0 13 7 25.5t17 17.5t21 0t19 -27q3 -31 0 -72.5t-7.5 -87.5t-8 -92t-1.5 -86t11.5 -70.5t31.5 -44t58.5 -6.5t92.5 41q12 12 19.5 12.5t10.5 -6t3 -17.5t-2.5 -21t-8 -17t-11.5 -5q-44 -44 -90.5 -52.5t-84 14.5t-61.5 75t-22 128z" />
    <glyph glyph-name="v" unicode="v" horiz-adv-x="467" 
d="M177 0q-4 21 -6 59.5t-4 84.5t-5 95.5t-9.5 92t-16.5 74t-26 41.5t-38.5 -6t-54.5 -68q-6 2 -11.5 8.5t-9 15t-3.5 17t6 14.5q57 56 91.5 71.5t54.5 2.5t29 -49t15.5 -84t13 -102.5t21.5 -103.5l153 210q34 71 16 96t-74 10q-11 19 2.5 32.5t37 17t49 -4.5t38 -32
t4.5 -65.5t-52 -103.5q-66 -104 -107.5 -171.5t-65 -105t-34 -47.5t-14.5 1z" />
    <glyph glyph-name="w" unicode="w" horiz-adv-x="770" 
d="M230 11q2 23 1.5 62t-3.5 84t-9.5 92.5t-17 89t-25 72.5t-34.5 43.5t-45 1.5t-57 -53h-16q-6 12 2 31.5t24 39t38 34t45 16.5t44.5 -13t36.5 -54q19 -54 30 -97.5t17.5 -83t10 -77t6.5 -79.5l157 391h32l147 -409q5 19 20 46t31.5 59.5t30.5 68.5t18.5 73t-5.5 72t-42 66
q7 40 27 47t39 -30q24 -47 28.5 -90t-3.5 -83.5t-24.5 -78.5t-35.5 -76t-35.5 -76.5t-24.5 -78.5q0 -5 -4 -11.5t-12.5 -9.5t-20 0.5t-24.5 19.5l-126 383q-11 -17 -26 -47t-31 -66.5t-33 -77t-32 -78t-28.5 -70t-22.5 -53.5q-8 -14 -24 -14t-24 14z" />
    <glyph glyph-name="x" unicode="x" horiz-adv-x="581" 
d="M283 307q-34 74 -63.5 103.5t-54.5 29.5t-46 -22t-37 -51t-28 -58.5t-19 -43.5q-24 43 -19.5 87.5t27.5 80t58.5 56.5t74.5 16t76.5 -40.5t62.5 -112.5l107 160q21 13 39 18q14 5 26.5 3.5t12.5 -17.5q-11 -15 -30 -42.5t-40 -56.5t-39.5 -56.5t-28.5 -42.5
q-11 -25 -10.5 -64t10 -77t27.5 -68t42.5 -37.5t54 15t63.5 89.5q17 -11 20.5 -28.5t-2.5 -36.5t-19.5 -38.5t-30.5 -35t-35 -25t-32 -8.5q-52 6 -79.5 32.5t-40.5 60t-17.5 67.5t-9.5 54q-22 -17 -43.5 -47t-41 -63t-37.5 -62.5t-34.5 -45t-30.5 -11t-26 39.5z" />
    <glyph glyph-name="y" unicode="y" horiz-adv-x="581" 
d="M377 -652q-76 -1 -123 23.5t-70.5 65t-26 93.5t10.5 109.5t39.5 113t60.5 104t73.5 82.5t78.5 48l-2 334q-47 -138 -89 -212t-75.5 -95.5t-57.5 2.5t-36 82q8 129 2.5 213t-23 112t-46.5 -4.5t-68 -137.5q-10 27 -8.5 55.5t11.5 56t25.5 52t33 42t34.5 26.5t29 5
q23 -11 35 -43.5t17 -76.5t5.5 -94t0 -95.5t1 -82t8.5 -53.5t22 -9t42 50q31 55 55 114.5t45 113t40 95t39.5 61t44 11.5t53.5 -54q11 -3 12.5 -19t-3.5 -29.5t-15 -17.5t-22 17q-17 39 -29 47t-20 -6t-12.5 -46t-6 -73.5t-1 -87.5t3 -88t5.5 -76.5t7 -51.5l91 68
q14 -18 13 -33t-11 -27.5t-26 -24.5t-31 -25t-25.5 -27.5t-10.5 -33.5q10 -126 12 -217.5t-2.5 -155t-14.5 -102.5t-24.5 -61t-32.5 -29.5t-38 -7.5zM430 -90q-33 -6 -65 -31t-59.5 -62t-49 -82.5t-32.5 -92t-10 -90t17.5 -76.5t50 -52.5t87.5 -17.5q20 -2 33 19t20 58.5
t10 87.5t3 106.5t-1.5 116t-3.5 116.5z" />
    <glyph glyph-name="z" unicode="z" horiz-adv-x="577" 
d="M27 45q-6 37 10.5 53t41.5 21.5t52.5 5t44.5 2.5q13 3 26.5 18t25 34t20 38.5t11.5 31.5l-106 4q-3 0 -3.5 6.5t0 15t2.5 16.5t5 11h114l53 103q-15 5 -43 12t-61 11t-65.5 3.5t-56.5 -9.5t-33.5 -28.5t3.5 -52.5q-24 -2 -37.5 7t-17.5 24t0.5 34t14.5 36t25 30t33 16
q22 13 47 13t51.5 -6.5t53.5 -16.5t52 -17.5t48 -9t41 8.5q8 5 20.5 16.5t27.5 24t31.5 23t32 13t29.5 -6t24 -33.5q10 -39 -8.5 -58t-47.5 -26.5t-59 -7t-44 -0.5l-40 -94h146l-3 -50q-35 -2 -64.5 0t-52 2.5t-36.5 -3.5t-17 -17l-68 -120q17 -23 45.5 -35t61 -17t65 -5
t58 2.5t39.5 4.5t9 1q13 -31 1.5 -48t-39.5 -22.5t-67.5 -1.5t-81.5 14.5t-81 25.5t-67 31q-15 -15 -38 -31.5t-47 -24.5t-46 -3.5t-35 31.5zM508 477q-8 11 -19.5 10t-22 -7t-16.5 -12.5t-3 -6.5q-3 -10 7.5 -11t24 3t23.5 11t6 13zM127 70q-8 11 -19 11.5t-20.5 -3t-15 -8
t-2.5 -4.5q-3 -10 7 -12.5t22.5 -1t22 6.5t5.5 11z" />
    <glyph glyph-name="grave" unicode="`" horiz-adv-x="239" 
d="M180 549q-20 18 -35 30t-28 24t-25 27.5t-27 39.5q-4 5 -0.5 14.5t11 16.5t17 9.5t18.5 -6.5l114 -123q3 -7 -1.5 -15t-12 -13.5t-16.5 -7t-15 3.5z" />
    <glyph glyph-name="bracketleft" unicode="[" horiz-adv-x="323" 
d="M240 -69q-18 3 -47 3t-58.5 1t-54 3.5t-32.5 10.5l-13 961q16 16 47 17.5t66 -3t69.5 -10.5t59.5 -4q14 -5 19 -18.5t0 -27.5h-205v-868q10 -3 34.5 -4.5t52.5 -3.5t52.5 -4t33.5 -6q17 -11 19 -20.5t-4 -16t-17.5 -9.5t-21.5 -1z" />
    <glyph glyph-name="backslash" unicode="\" horiz-adv-x="312" 
d="M2 856l51 4l246 -803q-5 -23 -12 -34t-13 -13.5t-11 0.5t-6 8z" />
    <glyph glyph-name="bracketright" unicode="]" horiz-adv-x="307" 
d="M58 -69q-10 -2 -21.5 1t-17.5 9.5t-4 16t19 20.5q9 4 33 6t51.5 4t52 3.5t34.5 4.5v868h-202q-5 14 0 27.5t19 18.5q24 -2 58.5 4t69 10.5t64.5 3t46 -17.5l-13 -961q-8 -8 -32 -10.5t-53 -3.5t-57.5 -1t-46.5 -3z" />
    <glyph glyph-name="asciicircum" unicode="^" horiz-adv-x="340" 
d="M92 338q-15 -15 -26.5 -17.5t-19 4t-10.5 20t1 30.5q12 12 29 37t35 52.5t35 52.5t28 38q4 4 11 10t17 9t23 1t28 -14q4 -12 17 -37.5t27 -53.5t26.5 -53.5t14.5 -37.5q4 -20 -11 -29t-38 -16l-13 39t-18 48.5t-22 46t-25 32.5z" />
    <glyph glyph-name="underscore" unicode="_" horiz-adv-x="550" 
d="M36 18q-9 4 -16 15t-2 22q62 -3 124 1t124 9t123.5 8.5t123.5 -0.5q15 -14 7 -24.5t-33.5 -19t-63.5 -14.5t-82 -9t-90.5 -4t-88.5 0.5t-75 5.5t-51 10z" />
    <glyph glyph-name="braceleft" unicode="{" horiz-adv-x="438" 
d="M456 -139q-86 -6 -149.5 11.5t-98.5 54.5t-38.5 90t31.5 117q19 37 30.5 74t13.5 69.5t-8 58.5t-34.5 39.5t-65 13t-99.5 -19.5q-22 11 -15.5 25t29.5 29.5t57.5 32.5t68.5 33.5t61.5 32.5t37.5 31q-95 31 -141.5 75t-55.5 91.5t15.5 93t72.5 80t114.5 53t141.5 10.5v-36
q-62 9 -117.5 -2t-96 -35.5t-60 -60t-9 -75t55.5 -80.5t135 -77q13 -30 5.5 -55.5t-26 -46t-43 -36.5t-46.5 -28q53 -41 69 -83t11 -83t-23.5 -80t-35.5 -74.5t-24 -67t11 -56.5t69.5 -43t151.5 -27q1 -1 2.5 -9t2.5 -17t1 -16t-1 -7z" />
    <glyph glyph-name="bar" unicode="|" horiz-adv-x="115" 
d="M40 862l42 -2q7 -89 9.5 -190.5t2.5 -207.5t-1 -214t-2 -211q-1 -8 -9.5 -18.5t-18.5 -16.5t-18.5 -3.5t-8.5 19.5z" />
    <glyph glyph-name="braceright" unicode="}" horiz-adv-x="422" 
d="M13 -135q-2 0 -1.5 7t1 16t2 16.5t2.5 8.5q89 9 134.5 26.5t61.5 42t10 55t-21 65.5l-31.5 73.5t-21.5 78.5t9.5 81.5t61.5 81.5q-19 12 -41 28t-38.5 36t-23 45t5.5 54q79 36 119.5 76t49.5 79t-8.5 73.5t-53 58.5t-85 35t-104.5 2v36q66 7 125 -10.5t101.5 -51.5
t64.5 -79t14 -91.5t-49.5 -90t-125.5 -73.5q9 -14 33.5 -30t54.5 -32.5t60.5 -33t51.5 -32t27 -29t-14 -24.5q-53 19 -89 19.5t-57.5 -13t-30.5 -38.5t-7.5 -57t12 -68.5t27.5 -72.5q31 -63 28 -115t-34 -88t-87.5 -53.5t-132.5 -11.5z" />
    <glyph glyph-name="asciitilde" unicode="~" horiz-adv-x="504" 
d="M22 351q27 53 59 87t64.5 46t63 1.5t53.5 -46.5q15 -32 31 -46t32 -15t31.5 8t30 21.5t27.5 26.5t24 24q2 2 9.5 2t9.5 -2q6 -8 -1.5 -29.5t-25 -44.5t-41.5 -41.5t-51 -22.5t-54.5 13.5t-50.5 67.5q-20 32 -39 40.5t-39.5 -2t-44 -37.5t-53.5 -67q-1 1 -6.5 3t-11.5 4.5
t-11 5t-6 3.5z" />
    <glyph glyph-name="sterling" unicode="&#xa3;" horiz-adv-x="770" 
d="M36 18q-24 36 -26 60t9.5 40.5t32.5 27.5t43.5 21.5t42 22.5t27.5 30q2 6 9.5 25t16.5 45.5t19.5 57t20 57.5t17 48.5t10.5 29.5q-5 10 -23 17.5t-41 14t-46 13.5t-37 17t-14 23.5t22 33.5l174 -52q21 29 38.5 65.5t35.5 74t38 72t45.5 60t59 37t77.5 3.5
q6 -3 15.5 -13.5t18 -36.5t15 -71t6.5 -117q0 -6 -4 -10t-10 -6.5t-12.5 -3t-10.5 1.5q-5 81 -16.5 125t-27.5 60.5t-35.5 9t-40 -29t-41.5 -54t-39 -67t-33 -66t-24 -52.5q0 -10 13.5 -18t33.5 -14.5t45 -11.5t47 -7.5t39.5 -3.5t23.5 0q-8 -33 -22 -48.5t-32.5 -18.5
t-40.5 3t-45 15t-46.5 19.5t-44.5 15.5l-103 -270l334 -138q40 -12 72.5 -8.5t57.5 17t43 34t30 41.5q14 -35 7.5 -59.5t-27 -40.5t-50.5 -24t-61.5 -10t-60.5 1.5t-48 11.5q-11 4 -34 12.5t-52 19.5t-60.5 23t-60.5 22.5t-52 19.5t-34 13q-7 -5 -15 -19t-19 -30.5t-25 -33
t-32.5 -27t-41.5 -12.5t-51 12zM156 131q-20 -1 -44 -8.5t-40 -19t-18.5 -25t20.5 -25.5q14 -1 29.5 7t27.5 20.5t19.5 26t5.5 24.5z" />
    <glyph glyph-name="comma" unicode="," horiz-adv-x="254" 
d="M107 -129q-14 -6 -32.5 -12t-35 -6t-29 8t-13.5 29q31 3 67.5 16t64 36t39.5 55.5t-6 75.5q2 -12 -14 -19.5t-38 -9t-44 4t-33 20t-4.5 38t41.5 58.5q36 24 66 16t50.5 -35.5t28.5 -67.5t0.5 -80.5t-34 -75.5t-74.5 -51z" />
    <glyph glyph-name="V" unicode="V" horiz-adv-x="737" 
d="M419 52q-18 88 -42.5 164t-52.5 147t-58.5 141t-60.5 147q-32 68 -57 96t-42.5 27t-27 -25t-11.5 -59t4.5 -75.5t20.5 -74.5q-26 -12 -43.5 -1.5t-27.5 35.5t-12 60t3 70.5t17.5 67.5t32 51.5t45.5 22.5t58 -20q41 -55 76 -124.5t69 -152.5t68.5 -179.5t75.5 -205.5
l201 585q3 42 -3 62.5t-17.5 26t-26.5 -0.5t-30 -17t-28.5 -24t-21.5 -22q7 39 24.5 63.5t39.5 36.5t45.5 12t42.5 -11t29.5 -32.5t7.5 -52.5l-230 -753q-12 -23 -24.5 -28.5t-22.5 0t-16.5 18.5t-4.5 25z" />
    <glyph glyph-name="Euro" unicode="&#x20ac;" horiz-adv-x="745" 
d="M25 470q2 1 8 2.5t24 2.5t53.5 2t95.5 1q28 69 66.5 132.5t83 115.5t92 87t94.5 47q61 15 92.5 3.5t42 -37t5 -58.5t-19.5 -60.5t-32.5 -43.5t-32.5 -6v129q-16 19 -53.5 1t-83.5 -62.5t-94 -109t-85 -137.5h190l8 -49l-221 1q-14 -32 -24 -63.5t-16 -62.5
q72 4 144.5 5.5t125.5 -0.5l9 -50q-2 0 -28 -1t-66.5 -3t-91 -4t-101.5 -3q-2 -27 0.5 -53t10.5 -49q25 -59 67 -85.5t92.5 -29.5t104 12.5t101 41.5t84.5 57t55 59q22 -28 19 -55t-24.5 -51.5t-57.5 -45.5t-80 -37t-91.5 -25.5t-92.5 -11t-83.5 6t-63.5 25.5
q-56 40 -78.5 102t-20.5 137q-38 -1 -71 -1.5t-56 -0.5v37q23 6 57.5 10.5t74.5 8.5q9 63 32 131l-164 1q-4 5 -4 18.5t4 18.5z" />
    <glyph glyph-name="quoteright" unicode="&#x2019;" horiz-adv-x="239" 
d="M51 455q4 2 21 9.5t34.5 24t29.5 44t7 69.5q-18 -16 -43.5 -20t-48.5 2q-8 2 -13 8.5t-7 15t-1.5 17t3.5 14.5q4 8 12.5 16.5t19 16.5t21.5 14t20 8q40 5 60.5 -9t26.5 -39.5t0.5 -57.5t-18.5 -63t-30.5 -57t-35.5 -38.5t-33.5 -8.5t-24.5 34z" />
    <glyph glyph-name="quoteleft" unicode="&#x2018;" horiz-adv-x="239" 
d="M187 467q-9 -28 -24.5 -32t-33.5 8t-35.5 36t-30.5 53.5t-19 59.5t0.5 54t27 37t60.5 9q9 -2 20 -7.5t21.5 -13t19 -16t12.5 -15.5q3 -5 3.5 -13t-1.5 -16t-7 -14.5t-13 -8.5q-23 -5 -48.5 -1.5t-43.5 18.5q-5 -39 7 -65t29.5 -41.5t34.5 -22.5t21 -9z" />
    <glyph glyph-name="quotedblleft" unicode="&#x201c;" horiz-adv-x="426" 
d="M325 569q-30 -36 -51 -40t-34 13t-17 48.5t0 66t15.5 66t31.5 48.5q24 27 43.5 32.5t34.5 -3.5t24 -28t11 -39.5t-3 -39.5t-18.5 -27.5t-36 -3t-55.5 33.5q-6 -9 -7.5 -34t4 -49t19.5 -39t39 -5zM149 617q-30 -36 -51 -40t-34 13t-17 48.5t0 66t15.5 66t31.5 48.5
q22 28 40.5 33t32.5 -3.5t23 -27.5t11 -40t-2.5 -40.5t-18 -29t-35.5 -5t-55 30.5q-6 -9 -7 -33t5.5 -46.5t21 -36.5t39.5 -4z" />
    <glyph glyph-name="quotedblright" unicode="&#x201d;" horiz-adv-x="426" 
d="M99 583q22 -10 34.5 4.5t17.5 37t3.5 46t-6.5 32.5q-29 -26 -49 -31.5t-32 2.5t-16.5 26t-2.5 38t10 37.5t21 26t30.5 3.5t38.5 -31q17 -16 27.5 -45.5t14 -62.5t0 -63t-15 -46t-30 -12.5t-45.5 38.5zM255 628q22 -10 35 3.5t18.5 35t5 44t-6.5 31.5q-29 -25 -48.5 -29
t-31.5 5t-16 27.5t-2 38.5t9.5 38t20 26t29 3t36.5 -31q17 -16 27.5 -46t14 -62.5t-0.5 -62.5t-15 -46t-30 -12.5t-45 37.5z" />
    <glyph glyph-name="endash" unicode="&#x2013;" horiz-adv-x="560" 
d="M112 332q-9 -1 -21 3.5t-18.5 12.5t-5 19t19.5 23l396 11q13 -2 23 -8t13.5 -14t0 -17t-18.5 -16z" />
    <glyph glyph-name="emdash" unicode="&#x2014;" horiz-adv-x="560" 
d="M112 332q-9 -1 -21 3.5t-18.5 12.5t-5 19t19.5 23l396 11q13 -2 23 -8t13.5 -14t0 -17t-18.5 -16z" />
    <glyph glyph-name="exclamdown" unicode="&#xa1;" horiz-adv-x="321" 
d="M267.553 -124.898q16.8984 -3.1416 24.8779 1.57129t10.3262 12.9609q2.34766 8.24805 1.4082 16.4961q-0.938477 8.24805 -1.87695 12.1758q-15.96 53.415 -42.2451 119.399q-26.2861 65.9844 -54.9189 133.146t-53.9805 129.61q-25.3467 62.4492 -38.4893 108.01
l-5.63281 5.8916t-13.1436 8.24805q-7.50977 2.35645 -16.4287 -2.75q-8.91797 -5.10547 -16.4287 -25.5293zM36.6123 538.868q14.082 -26.708 28.1641 -36.9189q14.0811 -10.2119 25.3467 -9.81934t18.7754 8.64062q7.51074 8.24805 9.3877 18.46
q0.939453 5.49805 -3.75488 14.1396q-4.69336 8.64062 -12.2041 16.1025q-7.50977 7.46289 -17.3672 13.3545t-19.2451 6.28418t-17.3672 -6.67773q-7.98047 -7.06934 -11.7354 -23.5654z" />
    <glyph glyph-name="questiondown" unicode="&#xbf;" horiz-adv-x="560" 
d="M458.336 590.443q0 -0.923828 -3.25391 -19.4043t-8.83203 -46.6631q-5.57812 -28.1816 -12.0859 -60.9844t-12.0859 -62.3711t-9.76172 -52.2061q-4.18359 -22.6387 -5.11328 -30.0303q-26.0312 0 -65.0781 -16.6328q-39.0469 -16.6318 -78.5586 -38.8086
q-39.5117 -22.1758 -74.8398 -44.8145q-35.3281 -22.6377 -54.8516 -35.5742q-45.5547 -36.96 -52.9922 -69.3008t11.6211 -57.751t57.6406 -42.042q38.582 -16.6328 84.6016 -21.7148t92.0391 4.1582t80.418 34.1885q4.64844 3.69629 12.0859 14.3223t16.7344 24.4863
t19.0586 27.7207q9.76172 13.8594 19.9883 24.0244q10.2266 10.1641 19.0586 14.3213q8.83203 4.1582 15.3398 -3.2334q12.0859 -48.0488 -7.90234 -83.623t-59.9648 -57.751q-39.9766 -22.1758 -93.8984 -32.3398t-109.238 -8.77832t-106.449 13.8604
q-51.1328 12.4736 -85.0664 36.0361t-45.0898 56.8262q-11.1562 33.2646 13.0156 75.7695q23.2422 42.5039 64.6133 78.541q41.3711 36.0361 89.25 66.0664t97.6172 53.1309t89.7148 39.7324q2.78906 11.0879 9.76172 40.1943t15.3398 61.4473
q8.36719 32.3398 15.8047 61.4463t10.2266 40.1943q2.78906 10.1641 8.36719 19.8662t12.5508 13.8604t14.875 1.38574q7.90234 -2.77148 15.3398 -17.5557zM446.25 774.321q15.8047 -1.84766 25.1016 -12.9365q9.29688 -11.0879 10.2266 -24.0234
q0.929688 -12.9365 -7.4375 -25.4111q-8.36719 -12.4736 -27.8906 -17.0938q-10.2266 -6.46777 -20.4531 -1.84766t-17.6641 14.3223t-10.6914 22.6377q-3.25391 12.9365 0.464844 23.5625t15.3398 17.0938q11.6211 6.46875 33.0039 3.69629z" />
    <glyph glyph-name="acute" unicode="&#xb4;" horiz-adv-x="197" 
d="M79 561q-15 -15 -26.5 -17.5t-19 4t-10.5 20t1 30.5q12 12 20.5 23t16.5 22t16.5 22.5t19.5 24.5q4 4 11 10t17 9t23 1t28 -14z" />
    <glyph glyph-name="glyph109" horiz-adv-x="340" 
d="M79 561q-15 -15 -26.5 -17.5t-19 4t-10.5 20t1 30.5q12 12 29 37t35 52.5t35 52.5t28 38q4 4 11 10t17 9t23 1t28 -14q4 -12 17 -37.5t27 -53.5t26.5 -53.5t14.5 -37.5q4 -20 -11 -29t-38 -16l-13 39t-18 48.5t-22 46t-25 32.5z" />
    <glyph glyph-name="caron" unicode="&#x2c7;" horiz-adv-x="340" 
d="M181 596q13 8 26 23t23.5 31.5t19 33t13.5 27.5q24 -5 40 -11t12 -20q-3 -9 -15.5 -26.5t-28 -37t-29 -37t-17.5 -26.5q-16 -8 -29.5 -9.5t-24 1t-18 6.5t-11.5 7q-12 9 -29.5 26t-36.5 36t-37 36.5t-30 25.5q-8 24 9 35t48 -9z" />
    <glyph glyph-name="breve" unicode="&#x2d8;" horiz-adv-x="278" 
d="M78 667q13 -33 27.5 -46.5t29 -14t29 9t28.5 21t26.5 23t22.5 15.5q24 -10 23.5 -30t-17.5 -40t-45.5 -35t-60 -16t-61 17.5t-47.5 65.5q-4 12 -3 22t6.5 15t16 4t25.5 -11z" />
    <glyph glyph-name="dotlessi" unicode="&#x131;" horiz-adv-x="283" 
d="M77 57q-5 55 0 115t13.5 114t15.5 96t6 62t-15 12t-48 -55l-18 18q-7 6 -1 20.5t19.5 30.5t32 30.5t37 22t35.5 4t27 -22.5q-1 -26 -8.5 -66t-16.5 -86t-17.5 -93t-12.5 -87t-1.5 -68t16 -35.5t39.5 10t70 68.5q24 -5 23 -21.5t-17.5 -36.5t-43.5 -38t-54.5 -26.5
t-50 -2.5t-30.5 35z" />
    <glyph glyph-name="ogonek" unicode="&#x2db;" horiz-adv-x="242" 
d="M135 8q-11 -23 -19.5 -54.5t-2.5 -57.5t31.5 -39t81.5 0q-22 -40 -47.5 -53t-48 -5.5t-39.5 32.5t-22.5 60t2 77.5t35.5 86.5z" />
    <glyph glyph-name="hungarumlaut" unicode="&#x2dd;" horiz-adv-x="364" 
d="M79 561q-15 -15 -26.5 -17.5t-19 4t-10.5 20t1 30.5q23 24 42.5 49t42.5 51q4 4 11 10t17 9t23 1t28 -14zM231 549q-15 -15 -26.5 -17.5t-19 4t-10.5 20t1 30.5q23 24 42.5 49t42.5 51q4 4 11 10t17 9t23 1t28 -14z" />
    <glyph glyph-name="ring" unicode="&#x2da;" horiz-adv-x="291" 
d="M41 629q14 23 40.5 37.5t57 20t59.5 2t48.5 -14.5t25 -30.5t-12.5 -45.5q-16 -25 -42.5 -38.5t-55.5 -18t-56.5 -0.5t-46.5 16t-25 30t8 42zM121 647q-21 -18 -26.5 -30t0 -19.5t18.5 -10.5t28.5 -3t30.5 3.5t24 9.5q11 7 14.5 19.5t-4.5 23t-28.5 14t-56.5 -6.5z" />
    <glyph glyph-name="dotaccent" unicode="&#x2d9;" horiz-adv-x="168" 
d="M65 558q-17 2 -27 14t-11 26t8 27.5t30 18.5q11 7 22 2t19 -15.5t11.5 -24.5t-0.5 -25.5t-16.5 -18.5t-35.5 -4z" />
    <glyph glyph-name="dieresis" unicode="&#xa8;" horiz-adv-x="291" 
d="M77 564q-17 2 -27 14t-11 26t8 27.5t30 18.5q11 6 22 1.5t19 -15t11.5 -24.5t-0.5 -25.5t-16.5 -18.5t-35.5 -4zM204 566q-17 2 -27 14t-11 26t8 27.5t30 18.5q11 6 22 1.5t19 -15t11.5 -24.5t-0.5 -25.5t-16.5 -18.5t-35.5 -4z" />
    <glyph glyph-name="quotesinglbase" unicode="&#x201a;" horiz-adv-x="239" 
d="M56 -2q4 2 21 9.5t34.5 24t29.5 44t7 69.5q-18 -16 -43.5 -20t-48.5 2q-8 2 -13 8.5t-7 15t-1.5 17t3.5 14.5q4 8 12.5 16.5t19 16.5t21.5 14t20 8q40 5 60.5 -9t26.5 -39.5t0.5 -57.5t-18.5 -63t-30.5 -57t-35.5 -38.5t-33.5 -8.5t-24.5 34z" />
    <glyph glyph-name="quotedblbase" unicode="&#x201e;" horiz-adv-x="426" 
d="M111 5q22 -10 34.5 4.5t17.5 37t3.5 46t-6.5 32.5q-29 -26 -49 -31.5t-32 2.5t-16.5 26t-2.5 38t10 37.5t21 26t30.5 3.5t38.5 -31q17 -16 27.5 -45.5t14 -62.5t0 -63t-15 -46t-30 -12.5t-45.5 38.5zM267 50q22 -10 35 3.5t18.5 35t5 44t-6.5 31.5q-29 -25 -48.5 -29
t-31.5 5t-16 27.5t-2 38.5t9.5 38t20 26t29 3t36.5 -31q17 -16 27.5 -46t14 -62.5t-0.5 -62.5t-15 -46t-30 -12.5t-45 37.5z" />
    <glyph glyph-name="florin" unicode="&#x192;" horiz-adv-x="303" 
d="M-225 -201q-14 28 -12.5 46.5t11 25.5t24 1t26.5 -28q31 -55 64 -78t64 -22.5t57.5 19.5t46 48.5t30 65t7.5 68.5q2 36 3.5 68.5t2 65.5t0 70.5t-1.5 84t-3 105.5t-4 136l-98 -4l-4 60q12 0 21.5 0.5t20.5 0.5t25.5 -0.5t37.5 -1.5q-3 51 2 106.5t18.5 104t36 86
t55.5 53.5t77 5t99 -58l6 -84q-39 51 -72 69.5t-59.5 12.5t-46.5 -33.5t-33 -67.5t-19.5 -90t-4.5 -102l135 4l-4 -57l-127 -8l-8 -526q-2 -79 -22.5 -132.5t-52.5 -84.5t-72 -40.5t-80.5 0.5t-79 38.5t-66.5 72.5z" />
    <glyph glyph-name="ellipsis" unicode="&#x2026;" horiz-adv-x="663" 
d="M16 57q-9 26 -1.5 51.5t25 46.5t41 34.5t46.5 15t42 -10.5t28 -43q8 -28 0.5 -53.5t-25 -45t-40.5 -31t-46 -12.5t-42 10.5t-28 37.5zM59 95q4 -21 12.5 -30t18.5 -8.5t20.5 8t18.5 17t13 20.5t4 18q-2 13 -10 23.5t-20 11t-27 -12.5t-30 -47zM237 57q-9 26 -1.5 51.5
t25 46.5t41 34.5t46.5 15t42 -10.5t28 -43q8 -28 0.5 -53.5t-25 -45t-40.5 -31t-46 -12.5t-42 10.5t-28 37.5zM280 95q4 -21 12.5 -30t18.5 -8.5t20.5 8t18.5 17t13 20.5t4 18q-2 13 -10 23.5t-20 11t-27 -12.5t-30 -47zM458 57q-9 26 -1.5 51.5t25 46.5t41 34.5t46.5 15
t42 -10.5t28 -43q8 -28 0.5 -53.5t-25 -45t-40.5 -31t-46 -12.5t-42 10.5t-28 37.5zM501 95q4 -21 12.5 -30t18.5 -8.5t20.5 8t18.5 17t13 20.5t4 18q-2 13 -10 23.5t-20 11t-27 -12.5t-30 -47z" />
    <glyph glyph-name="circumflex" unicode="&#x2c6;" horiz-adv-x="348" 
d="M78 548q-15 -15 -26.5 -17.5t-19 4t-10.5 20t1 30.5q12 12 28.5 31.5t34 40.5t34 41t27.5 33q4 4 11 10t17 9t23 1t28 -14q4 -12 17 -32t28 -42t28 -42t15 -32q4 -20 -11 -29t-38 -16q-3 13 -6.5 21.5t-11.5 20.5t-23 32.5t-40 57.5z" />
    <glyph glyph-name="tilde" unicode="&#x2dc;" horiz-adv-x="504" 
d="M22 564q27 53 59 87t64.5 46t63 1.5t53.5 -46.5q15 -32 31 -46t32 -15t31.5 8t30 21.5t27.5 26.5t24 24q2 2 9.5 2t9.5 -2q6 -8 -1.5 -29.5t-25 -44.5t-41.5 -41.5t-51 -22.5t-54.5 13.5t-50.5 67.5q-20 32 -39 40.5t-39.5 -2t-44 -37.5t-53.5 -67q-1 1 -6.5 3t-11.5 4.5
t-11 5t-6 3.5z" />
    <glyph glyph-name="cedilla" unicode="&#xb8;" horiz-adv-x="352" 
d="M250 -78q-57 -3 -93 10t-55 32t-22.5 40.5t3.5 36t23 18t37 -13.5q-3 -32 5 -49t22 -24.5t33 -8.5l38 -2t37 -4t31 -14q25 -46 14 -83.5t-39 -60.5t-63.5 -29.5t-60.5 9.5q-16 -2 -37.5 14t-34.5 36.5t-9 37.5t39 17q9 -29 26.5 -42.5t38 -15t39.5 7t31 22t12.5 31.5
t-15.5 35z" />
    <glyph glyph-name="minus" unicode="&#x2212;" horiz-adv-x="397" 
d="M112 332q-9 -1 -21 3.5t-18.5 12.5t-5 19t19.5 23l239 -3q13 -2 23 -8t13.5 -14t0 -17t-18.5 -16h-232z" />
    <glyph glyph-name="germandbls" unicode="&#xdf;" horiz-adv-x="827" 
d="M146 -214q-26 15 -58.5 35t-54.5 42t-24.5 45t30.5 45q16 -23 35 -46.5t40.5 -36.5t44 -10t45 32t44 90t40.5 164t35 253.5t27 359.5q-43 4 -81 7.5t-69 -3.5t-53.5 -28.5t-34.5 -67.5h-19q-13 45 -5 73t29 44t51.5 21.5t63 6.5t64 -1t54.5 -1q21 48 35 56.5t21.5 -9.5
t8 -56t-7.5 -84q16 6 42 25t57.5 41t65.5 42t65 27t57 -4.5t41 -52.5q4 -30 3.5 -68.5t-17 -81.5t-53 -87t-102.5 -86q40 -2 77.5 -9t68.5 -26t52 -53t28 -91q1 -41 -13.5 -81.5t-40 -75t-59.5 -61t-72.5 -39t-79.5 -9.5t-79 27l9 77q35 -29 76 -36t79 8t68 52t44 97
q2 58 -15.5 90t-46 47.5t-62.5 17.5t-65 -1t-53.5 -7t-28.5 -1q-12 3 -18 20.5t-1 34.5q61 20 107.5 53.5t77 71t46 75t15.5 67t-16 46.5t-47.5 13t-78.5 -32.5t-110 -90.5q-4 -22 -11.5 -75t-17.5 -124.5t-24 -154t-31 -163.5t-37.5 -153.5t-45.5 -123.5t-53.5 -73
t-61.5 -3z" />
    <glyph glyph-name="Thorn" unicode="&#xde;" horiz-adv-x="505" 
d="M123 -254q1 118 3 226t1 214.5t-5.5 216.5t-15.5 232q-26 -22 -50 -52.5t-42 -57.5h-18q-6 20 8 54t39.5 67t57 57t60.5 24l3 -313q67 70 122.5 86t97 -3.5t67 -66.5t32.5 -105t-6.5 -118t-50 -105t-97.5 -66.5t-149 -2.5l13 -283q-4 -12 -13 -19t-19.5 -8.5t-20.5 4
t-17 19.5zM184 364q-1 -2 -0.5 -23t1.5 -51t2.5 -65t2.5 -65.5t1.5 -51.5t0.5 -23q77 -7 126.5 14.5t75.5 59.5t31 85t-5.5 90.5t-34 77t-55.5 44t-70 -9.5t-76 -82z" />
    <glyph glyph-name="thorn" unicode="&#xfe;" horiz-adv-x="505" 
d="M94 0q1 79 3 144.5t4 124t3.5 114.5t0.5 116t-4.5 127t-10.5 149q-26 -22 -50 -52.5t-42 -57.5h-18q-6 20 8 54t39.5 67t57 57t60.5 24l3 -313q67 70 122.5 86t97 -3.5t67 -66.5t32.5 -105t-6.5 -118t-50 -105t-97.5 -66.5t-149 -2.5v-169q-4 -12 -13 -19t-19.5 -8.5
t-20.5 4t-17 19.5zM168 504q-1 -2 -0.5 -23t1.5 -51t2.5 -65t2.5 -65.5t1.5 -51.5t0.5 -23q77 -7 126.5 14.5t75.5 59.5t31 85t-5.5 90.5t-34 77t-55.5 44t-70 -9.5t-76 -82z" />
    <glyph glyph-name="commaaccent" horiz-adv-x="311" 
d="M154 -358q-14 -6 -32.5 -12t-35 -6t-29 8t-13.5 29q31 3 67.5 16t64 36t39.5 55.5t-6 75.5q2 -12 -14 -19.5t-38 -9t-44 4t-33 20t-4.5 38t41.5 58.5q36 24 66 16t50.5 -35.5t28.5 -67.5t0.5 -80.5t-34 -75.5t-74.5 -51z" />
    <glyph glyph-name="Aacute" unicode="&#xc1;" horiz-adv-x="790" 
d="M655 -107q-21 42 -30 96.5t-11.5 112t0 113t5.5 100.5q-5 1 -15.5 1h-22h-22t-14.5 -1q-72 -114 -136.5 -176t-120.5 -84t-102.5 -12t-81.5 40t-57 72.5t-30 85t0 78t33 51.5q2 2 9 2t9 -2q-6 -58 3.5 -109t31 -89t52.5 -60t68.5 -22t80 24t85.5 78q42 52 76.5 122.5
t63 145.5t51 147.5t39.5 129.5q-10 1 -36.5 2.5t-59.5 1t-65.5 -5.5t-53.5 -17.5t-25.5 -34.5t19.5 -56h-55q-18 47 -8.5 78t34.5 49.5t62 27.5t76 11.5t73.5 1t56.5 -2.5q25 48 46.5 67t38 17t26 -21t9 -47.5t-11.5 -62t-35 -63.5q-11 -70 -17 -146t-1 -148q39 -19 47 -33
t-2 -23.5t-29.5 -15.5t-35.5 -9q-4 -41 -6 -93t1.5 -106t13 -105.5t29.5 -91.5q27 -6 51 5.5t46 25.5t43 23.5t44 0.5q5 -8 -6.5 -24.5t-33 -34.5t-50 -33t-57 -20.5t-53.5 2.5t-39 37zM551 385h84q0 7 0.5 25.5t1 43.5t1 52t0.5 52t-0.5 43.5t-0.5 25.5zM687 913
q-15 -15 -26.5 -17.5t-19 4t-10.5 20t1 30.5q12 12 20.5 23t16.5 22t16.5 22.5t19.5 24.5q4 4 11 10t17 9t23 1t28 -14z" />
    <glyph glyph-name="Abreve" unicode="&#x102;" horiz-adv-x="790" 
d="M655 -107q-21 42 -30 96.5t-11.5 112t0 113t5.5 100.5q-5 1 -15.5 1h-22h-22t-14.5 -1q-72 -114 -136.5 -176t-120.5 -84t-102.5 -12t-81.5 40t-57 72.5t-30 85t0 78t33 51.5q2 2 9 2t9 -2q-6 -58 3.5 -109t31 -89t52.5 -60t68.5 -22t80 24t85.5 78q42 52 76.5 122.5
t63 145.5t51 147.5t39.5 129.5q-10 1 -36.5 2.5t-59.5 1t-65.5 -5.5t-53.5 -17.5t-25.5 -34.5t19.5 -56h-55q-18 47 -8.5 78t34.5 49.5t62 27.5t76 11.5t73.5 1t56.5 -2.5q25 48 46.5 67t38 17t26 -21t9 -47.5t-11.5 -62t-35 -63.5q-11 -70 -17 -146t-1 -148q39 -19 47 -33
t-2 -23.5t-29.5 -15.5t-35.5 -9q-4 -41 -6 -93t1.5 -106t13 -105.5t29.5 -91.5q27 -6 51 5.5t46 25.5t43 23.5t44 0.5q5 -8 -6.5 -24.5t-33 -34.5t-50 -33t-57 -20.5t-53.5 2.5t-39 37zM551 385h84q0 7 0.5 25.5t1 43.5t1 52t0.5 52t-0.5 43.5t-0.5 25.5zM587 1036
q13 -33 27.5 -46.5t29 -14t29 9t28.5 21t26.5 23t22.5 15.5q24 -10 23.5 -30t-17.5 -40t-45.5 -35t-60 -16t-61 17.5t-47.5 65.5q-4 12 -3 22t6.5 15t16 4t25.5 -11z" />
    <glyph glyph-name="Acircumflex" unicode="&#xc2;" horiz-adv-x="790" 
d="M655 -107q-21 42 -30 96.5t-11.5 112t0 113t5.5 100.5q-5 1 -15.5 1h-22h-22t-14.5 -1q-72 -114 -136.5 -176t-120.5 -84t-102.5 -12t-81.5 40t-57 72.5t-30 85t0 78t33 51.5q2 2 9 2t9 -2q-6 -58 3.5 -109t31 -89t52.5 -60t68.5 -22t80 24t85.5 78q42 52 76.5 122.5
t63 145.5t51 147.5t39.5 129.5q-10 1 -36.5 2.5t-59.5 1t-65.5 -5.5t-53.5 -17.5t-25.5 -34.5t19.5 -56h-55q-18 47 -8.5 78t34.5 49.5t62 27.5t76 11.5t73.5 1t56.5 -2.5q25 48 46.5 67t38 17t26 -21t9 -47.5t-11.5 -62t-35 -63.5q-11 -70 -17 -146t-1 -148q39 -19 47 -33
t-2 -23.5t-29.5 -15.5t-35.5 -9q-4 -41 -6 -93t1.5 -106t13 -105.5t29.5 -91.5q27 -6 51 5.5t46 25.5t43 23.5t44 0.5q5 -8 -6.5 -24.5t-33 -34.5t-50 -33t-57 -20.5t-53.5 2.5t-39 37zM551 385h84q0 7 0.5 25.5t1 43.5t1 52t0.5 52t-0.5 43.5t-0.5 25.5zM606 904
q-15 -15 -26.5 -17.5t-19 4t-10.5 20t1 30.5q12 12 28.5 31.5t34 40.5t34 41t27.5 33q4 4 11 10t17 9t23 1t28 -14q4 -12 17 -32t28 -42t28 -42t15 -32q4 -20 -11 -29t-38 -16q-3 13 -6.5 21.5t-11.5 20.5t-23 32.5t-40 57.5z" />
    <glyph glyph-name="Agrave" unicode="&#xc0;" horiz-adv-x="790" 
d="M655 -107q-21 42 -30 96.5t-11.5 112t0 113t5.5 100.5q-5 1 -15.5 1h-22h-22t-14.5 -1q-72 -114 -136.5 -176t-120.5 -84t-102.5 -12t-81.5 40t-57 72.5t-30 85t0 78t33 51.5q2 2 9 2t9 -2q-6 -58 3.5 -109t31 -89t52.5 -60t68.5 -22t80 24t85.5 78q42 52 76.5 122.5
t63 145.5t51 147.5t39.5 129.5q-10 1 -36.5 2.5t-59.5 1t-65.5 -5.5t-53.5 -17.5t-25.5 -34.5t19.5 -56h-55q-18 47 -8.5 78t34.5 49.5t62 27.5t76 11.5t73.5 1t56.5 -2.5q25 48 46.5 67t38 17t26 -21t9 -47.5t-11.5 -62t-35 -63.5q-11 -70 -17 -146t-1 -148q39 -19 47 -33
t-2 -23.5t-29.5 -15.5t-35.5 -9q-4 -41 -6 -93t1.5 -106t13 -105.5t29.5 -91.5q27 -6 51 5.5t46 25.5t43 23.5t44 0.5q5 -8 -6.5 -24.5t-33 -34.5t-50 -33t-57 -20.5t-53.5 2.5t-39 37zM551 385h84q0 7 0.5 25.5t1 43.5t1 52t0.5 52t-0.5 43.5t-0.5 25.5zM744 913
q-20 18 -35 30t-28 24t-25 27.5t-27 39.5q-4 5 -0.5 14.5t11 16.5t17 9.5t18.5 -6.5l114 -123q3 -7 -1.5 -15t-12 -13.5t-16.5 -7t-15 3.5z" />
    <glyph glyph-name="Adieresis" unicode="&#xc4;" horiz-adv-x="790" 
d="M655 -107q-21 42 -30 96.5t-11.5 112t0 113t5.5 100.5q-5 1 -15.5 1h-22h-22t-14.5 -1q-72 -114 -136.5 -176t-120.5 -84t-102.5 -12t-81.5 40t-57 72.5t-30 85t0 78t33 51.5q2 2 9 2t9 -2q-6 -58 3.5 -109t31 -89t52.5 -60t68.5 -22t80 24t85.5 78q42 52 76.5 122.5
t63 145.5t51 147.5t39.5 129.5q-10 1 -36.5 2.5t-59.5 1t-65.5 -5.5t-53.5 -17.5t-25.5 -34.5t19.5 -56h-55q-18 47 -8.5 78t34.5 49.5t62 27.5t76 11.5t73.5 1t56.5 -2.5q25 48 46.5 67t38 17t26 -21t9 -47.5t-11.5 -62t-35 -63.5q-11 -70 -17 -146t-1 -148q39 -19 47 -33
t-2 -23.5t-29.5 -15.5t-35.5 -9q-4 -41 -6 -93t1.5 -106t13 -105.5t29.5 -91.5q27 -6 51 5.5t46 25.5t43 23.5t44 0.5q5 -8 -6.5 -24.5t-33 -34.5t-50 -33t-57 -20.5t-53.5 2.5t-39 37zM551 385h84q0 7 0.5 25.5t1 43.5t1 52t0.5 52t-0.5 43.5t-0.5 25.5zM636 908
q-17 2 -27 14t-11 26t8 27.5t30 18.5q11 6 22 1.5t19 -15t11.5 -24.5t-0.5 -25.5t-16.5 -18.5t-35.5 -4zM763 910q-17 2 -27 14t-11 26t8 27.5t30 18.5q11 6 22 1.5t19 -15t11.5 -24.5t-0.5 -25.5t-16.5 -18.5t-35.5 -4z" />
    <glyph glyph-name="macron" unicode="&#xaf;" horiz-adv-x="459" 
d="M70 547q-9 -1 -21 3.5t-18.5 12.5t-5 19t19.5 23l326 -1q13 -2 23 -8t13.5 -14t0 -17t-18.5 -16z" />
    <glyph glyph-name="Amacron" unicode="&#x100;" horiz-adv-x="790" 
d="M655 -107q-21 42 -30 96.5t-11.5 112t0 113t5.5 100.5q-5 1 -15.5 1h-22h-22t-14.5 -1q-72 -114 -136.5 -176t-120.5 -84t-102.5 -12t-81.5 40t-57 72.5t-30 85t0 78t33 51.5q2 2 9 2t9 -2q-6 -58 3.5 -109t31 -89t52.5 -60t68.5 -22t80 24t85.5 78q42 52 76.5 122.5
t63 145.5t51 147.5t39.5 129.5q-10 1 -36.5 2.5t-59.5 1t-65.5 -5.5t-53.5 -17.5t-25.5 -34.5t19.5 -56h-55q-18 47 -8.5 78t34.5 49.5t62 27.5t76 11.5t73.5 1t56.5 -2.5q25 48 46.5 67t38 17t26 -21t9 -47.5t-11.5 -62t-35 -63.5q-11 -70 -17 -146t-1 -148q39 -19 47 -33
t-2 -23.5t-29.5 -15.5t-35.5 -9q-4 -41 -6 -93t1.5 -106t13 -105.5t29.5 -91.5q27 -6 51 5.5t46 25.5t43 23.5t44 0.5q5 -8 -6.5 -24.5t-33 -34.5t-50 -33t-57 -20.5t-53.5 2.5t-39 37zM551 385h84q0 7 0.5 25.5t1 43.5t1 52t0.5 52t-0.5 43.5t-0.5 25.5zM559 911
q-9 -1 -21 3.5t-18.5 12.5t-5 19t19.5 23l326 -1q13 -2 23 -8t13.5 -14t0 -17t-18.5 -16z" />
    <glyph glyph-name="Aogonek" unicode="&#x104;" horiz-adv-x="790" 
d="M655 -107q-21 42 -30 96.5t-11.5 112t0 113t5.5 100.5q-5 1 -15.5 1h-22h-22t-14.5 -1q-72 -114 -136.5 -176t-120.5 -84t-102.5 -12t-81.5 40t-57 72.5t-30 85t0 78t33 51.5q2 2 9 2t9 -2q-6 -58 3.5 -109t31 -89t52.5 -60t68.5 -22t80 24t85.5 78q42 52 76.5 122.5
t63 145.5t51 147.5t39.5 129.5q-10 1 -36.5 2.5t-59.5 1t-65.5 -5.5t-53.5 -17.5t-25.5 -34.5t19.5 -56h-55q-18 47 -8.5 78t34.5 49.5t62 27.5t76 11.5t73.5 1t56.5 -2.5q25 48 46.5 67t38 17t26 -21t9 -47.5t-11.5 -62t-35 -63.5q-11 -70 -17 -146t-1 -148q39 -19 47 -33
t-2 -23.5t-29.5 -15.5t-35.5 -9q-4 -41 -6 -93t1.5 -106t13 -105.5t29.5 -91.5q27 -6 51 5.5t46 25.5t43 23.5t44 0.5q5 -8 -6.5 -24.5t-33 -34.5t-50 -33t-57 -20.5t-53.5 2.5t-39 37zM551 385h84q0 7 0.5 25.5t1 43.5t1 52t0.5 52t-0.5 43.5t-0.5 25.5zM675 -85
q-11 -23 -19.5 -54.5t-2.5 -57.5t31.5 -39t81.5 0q-22 -40 -47.5 -53t-48 -5.5t-39.5 32.5t-22.5 60t2 77.5t35.5 86.5z" />
    <glyph glyph-name="Aring" unicode="&#xc5;" horiz-adv-x="790" 
d="M655 -107q-21 42 -30 96.5t-11.5 112t0 113t5.5 100.5q-5 1 -15.5 1h-22h-22t-14.5 -1q-72 -114 -136.5 -176t-120.5 -84t-102.5 -12t-81.5 40t-57 72.5t-30 85t0 78t33 51.5q2 2 9 2t9 -2q-6 -58 3.5 -109t31 -89t52.5 -60t68.5 -22t80 24t85.5 78q42 52 76.5 122.5
t63 145.5t51 147.5t39.5 129.5q-10 1 -36.5 2.5t-59.5 1t-65.5 -5.5t-53.5 -17.5t-25.5 -34.5t19.5 -56h-55q-18 47 -8.5 78t34.5 49.5t62 27.5t76 11.5t73.5 1t56.5 -2.5q25 48 46.5 67t38 17t26 -21t9 -47.5t-11.5 -62t-35 -63.5q-11 -70 -17 -146t-1 -148q39 -19 47 -33
t-2 -23.5t-29.5 -15.5t-35.5 -9q-4 -41 -6 -93t1.5 -106t13 -105.5t29.5 -91.5q27 -6 51 5.5t46 25.5t43 23.5t44 0.5q5 -8 -6.5 -24.5t-33 -34.5t-50 -33t-57 -20.5t-53.5 2.5t-39 37zM551 385h84q0 7 0.5 25.5t1 43.5t1 52t0.5 52t-0.5 43.5t-0.5 25.5zM579 976
q14 23 40.5 37.5t57 20t59.5 2t48.5 -14.5t25 -30.5t-12.5 -45.5q-16 -25 -42.5 -38.5t-55.5 -18t-56.5 -0.5t-46.5 16t-25 30t8 42zM659 994q-21 -18 -26.5 -30t0 -19.5t18.5 -10.5t28.5 -3t30.5 3.5t24 9.5q11 7 14.5 19.5t-4.5 23t-28.5 14t-56.5 -6.5z" />
    <glyph glyph-name="Atilde" unicode="&#xc3;" horiz-adv-x="790" 
d="M655 -107q-21 42 -30 96.5t-11.5 112t0 113t5.5 100.5q-5 1 -15.5 1h-22h-22t-14.5 -1q-72 -114 -136.5 -176t-120.5 -84t-102.5 -12t-81.5 40t-57 72.5t-30 85t0 78t33 51.5q2 2 9 2t9 -2q-6 -58 3.5 -109t31 -89t52.5 -60t68.5 -22t80 24t85.5 78q42 52 76.5 122.5
t63 145.5t51 147.5t39.5 129.5q-10 1 -36.5 2.5t-59.5 1t-65.5 -5.5t-53.5 -17.5t-25.5 -34.5t19.5 -56h-55q-18 47 -8.5 78t34.5 49.5t62 27.5t76 11.5t73.5 1t56.5 -2.5q25 48 46.5 67t38 17t26 -21t9 -47.5t-11.5 -62t-35 -63.5q-11 -70 -17 -146t-1 -148q39 -19 47 -33
t-2 -23.5t-29.5 -15.5t-35.5 -9q-4 -41 -6 -93t1.5 -106t13 -105.5t29.5 -91.5q27 -6 51 5.5t46 25.5t43 23.5t44 0.5q5 -8 -6.5 -24.5t-33 -34.5t-50 -33t-57 -20.5t-53.5 2.5t-39 37zM551 385h84q0 7 0.5 25.5t1 43.5t1 52t0.5 52t-0.5 43.5t-0.5 25.5zM530 904
q27 53 59 87t64.5 46t63 1.5t53.5 -46.5q15 -32 31 -46t32 -15t31.5 8t30 21.5t27.5 26.5t24 24q2 2 9.5 2t9.5 -2q6 -8 -1.5 -29.5t-25 -44.5t-41.5 -41.5t-51 -22.5t-54.5 13.5t-50.5 67.5q-20 32 -39 40.5t-39.5 -2t-44 -37.5t-53.5 -67q-1 1 -6.5 3t-11.5 4.5t-11 5
t-6 3.5z" />
    <glyph glyph-name="AE" unicode="&#xc6;" horiz-adv-x="1249" 
d="M662 -95q-21 42 -26.5 98t-3 115t9 116t9.5 102q-5 1 -19 0t-30.5 -3t-31 -3.5t-18.5 -2.5q-72 -114 -136.5 -176t-120.5 -84t-102.5 -12t-81.5 40t-57 72.5t-30 85t0 78t33 51.5q2 2 9 2t9 -2q-6 -58 3.5 -109t31 -89t52.5 -60t68.5 -22t80 24t85.5 78q42 52 76.5 122.5
t63 145.5t51 147.5t39.5 129.5q-10 1 -36.5 2.5t-59.5 1t-65.5 -5.5t-53.5 -17.5t-25.5 -34.5t19.5 -56h-55q-18 47 -9 78t34.5 49.5t62.5 27.5t76 11.5t73.5 1t56.5 -2.5q28 55 53 72.5t41.5 8.5t22.5 -38t-2 -66q36 10 81 18t96.5 12t109.5 2t121 -12q16 -5 20 -16
t-0.5 -23t-17 -21t-29.5 -8l-387 -16l-6 -310q18 1 62 1h94h94t62 -1q21 1 27 -10t3 -23.5t-12 -22.5t-18 -7q-36 -4 -79 -1t-85.5 5t-81 0.5t-66.5 -13.5l-35 -229q73 -22 134 -39t116.5 -20t110 11.5t114.5 54.5q15 1 21 -5.5t6.5 -15t-4 -16.5t-10.5 -9
q-69 -56 -146 -75.5t-152 -16.5q2 -9 -11 -26t-35 -34t-50 -31.5t-55 -19t-51 4t-38 36.5zM569 389l92 12q0 7 1.5 26t3 44t2.5 53t2.5 53t1.5 44v26zM859 -21q-49 5 -93 17t-80 27q-3 -51 14 -72.5t44 -22.5t58.5 14.5t56.5 36.5z" />
    <glyph glyph-name="AEacute" unicode="&#x1fc;" horiz-adv-x="1249" 
d="M662 -95q-21 42 -26.5 98t-3 115t9 116t9.5 102q-5 1 -19 0t-30.5 -3t-31 -3.5t-18.5 -2.5q-72 -114 -136.5 -176t-120.5 -84t-102.5 -12t-81.5 40t-57 72.5t-30 85t0 78t33 51.5q2 2 9 2t9 -2q-6 -58 3.5 -109t31 -89t52.5 -60t68.5 -22t80 24t85.5 78q42 52 76.5 122.5
t63 145.5t51 147.5t39.5 129.5q-10 1 -36.5 2.5t-59.5 1t-65.5 -5.5t-53.5 -17.5t-25.5 -34.5t19.5 -56h-55q-18 47 -9 78t34.5 49.5t62.5 27.5t76 11.5t73.5 1t56.5 -2.5q28 55 53 72.5t41.5 8.5t22.5 -38t-2 -66q36 10 81 18t96.5 12t109.5 2t121 -12q16 -5 20 -16
t-0.5 -23t-17 -21t-29.5 -8l-387 -16l-6 -310q18 1 62 1h94h94t62 -1q21 1 27 -10t3 -23.5t-12 -22.5t-18 -7q-36 -4 -79 -1t-85.5 5t-81 0.5t-66.5 -13.5l-35 -229q73 -22 134 -39t116.5 -20t110 11.5t114.5 54.5q15 1 21 -5.5t6.5 -15t-4 -16.5t-10.5 -9
q-69 -56 -146 -75.5t-152 -16.5q2 -9 -11 -26t-35 -34t-50 -31.5t-55 -19t-51 4t-38 36.5zM569 389l92 12q0 7 1.5 26t3 44t2.5 53t2.5 53t1.5 44v26zM859 -21q-49 5 -93 17t-80 27q-3 -51 14 -72.5t44 -22.5t58.5 14.5t56.5 36.5zM882 941q-15 -15 -26.5 -17.5t-19 4
t-10.5 20t1 30.5q12 12 20.5 23t16.5 22t16.5 22.5t19.5 24.5q4 4 11 10t17 9t23 1t28 -14z" />
    <glyph glyph-name="Cacute" unicode="&#x106;" horiz-adv-x="606" 
d="M112 8q-49 35 -72 87.5t-26 115t11.5 132t42.5 138t66.5 132t83 114.5t92 86.5t93.5 46.5q60 15 92 3.5t42.5 -37t5 -58.5t-19.5 -60.5t-32.5 -43.5t-32.5 -6v129q-13 15 -39 7t-60 -34.5t-71.5 -68t-73.5 -93t-67 -109.5t-50.5 -117.5t-24.5 -117t10 -107.5
q25 -59 67 -85.5t92.5 -29.5t104 12.5t101 41.5t84.5 57t55 59q22 -28 19 -55t-24.5 -51.5t-57.5 -45.5t-80 -37t-91.5 -25.5t-92.5 -11t-83.5 6t-63.5 25.5zM361 921q-15 -15 -26.5 -17.5t-19 4t-10.5 20t1 30.5q12 12 20.5 23t16.5 22t16.5 22.5t19.5 24.5q4 4 11 10t17 9
t23 1t28 -14z" />
    <glyph glyph-name="Ccaron" unicode="&#x10c;" horiz-adv-x="606" 
d="M112 8q-49 35 -72 87.5t-26 115t11.5 132t42.5 138t66.5 132t83 114.5t92 86.5t93.5 46.5q60 15 92 3.5t42.5 -37t5 -58.5t-19.5 -60.5t-32.5 -43.5t-32.5 -6v129q-13 15 -39 7t-60 -34.5t-71.5 -68t-73.5 -93t-67 -109.5t-50.5 -117.5t-24.5 -117t10 -107.5
q25 -59 67 -85.5t92.5 -29.5t104 12.5t101 41.5t84.5 57t55 59q22 -28 19 -55t-24.5 -51.5t-57.5 -45.5t-80 -37t-91.5 -25.5t-92.5 -11t-83.5 6t-63.5 25.5zM390 952q13 8 26 23t23.5 31.5t19 33t13.5 27.5q24 -5 40 -11t12 -20q-3 -9 -15.5 -26.5t-28 -37t-29 -37
t-17.5 -26.5q-16 -8 -29.5 -9.5t-24 1t-18 6.5t-11.5 7q-12 9 -29.5 26t-36.5 36t-37 36.5t-30 25.5q-8 24 9 35t48 -9z" />
    <glyph glyph-name="Ccedilla" unicode="&#xc7;" horiz-adv-x="606" 
d="M112 8q-49 35 -72 87.5t-26 115t11.5 132t42.5 138t66.5 132t83 114.5t92 86.5t93.5 46.5q60 15 92 3.5t42.5 -37t5 -58.5t-19.5 -60.5t-32.5 -43.5t-32.5 -6v129q-13 15 -39 7t-60 -34.5t-71.5 -68t-73.5 -93t-67 -109.5t-50.5 -117.5t-24.5 -117t10 -107.5
q25 -59 67 -85.5t92.5 -29.5t104 12.5t101 41.5t84.5 57t55 59q22 -28 19 -55t-24.5 -51.5t-57.5 -45.5t-80 -37t-91.5 -25.5t-92.5 -11t-83.5 6t-63.5 25.5zM399 -126q-57 -3 -93 10t-55 32t-22.5 40.5t3.5 36t23 18t37 -13.5q-3 -32 5 -49t22 -24.5t33 -8.5l38 -2t37 -4
t31 -14q25 -46 14 -83.5t-39 -60.5t-63.5 -29.5t-60.5 9.5q-16 -2 -37.5 14t-34.5 36.5t-9 37.5t39 17q9 -29 26.5 -42.5t38 -15t39.5 7t31 22t12.5 31.5t-15.5 35z" />
    <glyph glyph-name="Ccircumflex" unicode="&#x108;" horiz-adv-x="606" 
d="M112 8q-49 35 -72 87.5t-26 115t11.5 132t42.5 138t66.5 132t83 114.5t92 86.5t93.5 46.5q60 15 92 3.5t42.5 -37t5 -58.5t-19.5 -60.5t-32.5 -43.5t-32.5 -6v129q-13 15 -39 7t-60 -34.5t-71.5 -68t-73.5 -93t-67 -109.5t-50.5 -117.5t-24.5 -117t10 -107.5
q25 -59 67 -85.5t92.5 -29.5t104 12.5t101 41.5t84.5 57t55 59q22 -28 19 -55t-24.5 -51.5t-57.5 -45.5t-80 -37t-91.5 -25.5t-92.5 -11t-83.5 6t-63.5 25.5zM321 920q-15 -15 -26.5 -17.5t-19 4t-10.5 20t1 30.5q12 12 28.5 31.5t34 40.5t34 41t27.5 33q4 4 11 10t17 9
t23 1t28 -14q4 -12 17 -32t28 -42t28 -42t15 -32q4 -20 -11 -29t-38 -16q-3 13 -6.5 21.5t-11.5 20.5t-23 32.5t-40 57.5z" />
    <glyph glyph-name="Cdotaccent" unicode="&#x10a;" horiz-adv-x="606" 
d="M112 8q-49 35 -72 87.5t-26 115t11.5 132t42.5 138t66.5 132t83 114.5t92 86.5t93.5 46.5q60 15 92 3.5t42.5 -37t5 -58.5t-19.5 -60.5t-32.5 -43.5t-32.5 -6v129q-13 15 -39 7t-60 -34.5t-71.5 -68t-73.5 -93t-67 -109.5t-50.5 -117.5t-24.5 -117t10 -107.5
q25 -59 67 -85.5t92.5 -29.5t104 12.5t101 41.5t84.5 57t55 59q22 -28 19 -55t-24.5 -51.5t-57.5 -45.5t-80 -37t-91.5 -25.5t-92.5 -11t-83.5 6t-63.5 25.5zM407 910q-17 2 -27 14t-11 26t8 27.5t30 18.5q11 7 22 2t19 -15.5t11.5 -24.5t-0.5 -25.5t-16.5 -18.5t-35.5 -4z
" />
    <glyph glyph-name="Dcaron" unicode="&#x10e;" horiz-adv-x="1101" 
d="M10 10q12 53 41 78t67 37.5t82.5 19.5t88.5 24q22 12 40.5 55t32.5 101.5t24 125t15.5 127t6.5 107t-3 64.5q-32 3 -62 0t-53 -14.5t-37 -34.5t-13 -61q-44 29 -51 55.5t13.5 50t62.5 43.5t95.5 35.5t113 27t115.5 17t103 5.5t74 -7q61 -14 115 -46.5t96 -79t70.5 -104.5
t38 -121.5t-1 -130t-46.5 -131.5q-83 -113 -173.5 -169t-183.5 -69t-185 10.5t-177 69.5q-35 -34 -81.5 -63t-92 -44t-83 -12t-52.5 34zM229 95q1 6 -12 6t-32.5 -3.5t-41.5 -10.5t-38.5 -15.5t-23 -17.5t4.5 -17q9 -9 32 -4t47 16.5t43 25t21 20.5zM381 151q91 -53 179 -62
t164 14.5t137 73t99 114t48 137.5t-14.5 143.5t-89 132.5t-175.5 103q-65 13 -109.5 3t-73.5 -38t-46 -71t-27 -95.5t-16.5 -111t-15 -118.5t-22.5 -117.5t-38 -107.5zM572 948q13 8 26 23t23.5 31.5t19 33t13.5 27.5q24 -5 40 -11t12 -20q-3 -9 -15.5 -26.5t-28 -37
t-29 -37t-17.5 -26.5q-16 -8 -29.5 -9.5t-24 1t-18 6.5t-11.5 7q-12 9 -29.5 26t-36.5 36t-37 36.5t-30 25.5q-8 24 9 35t48 -9z" />
    <glyph glyph-name="Dcroat" unicode="&#x110;" horiz-adv-x="1101" 
d="M10 10q12 53 41 78t67 37.5t82.5 19.5t88.5 24q22 12 40.5 55t32.5 101.5t24 125t15.5 127t6.5 107t-3 64.5q-32 3 -62 0t-53 -14.5t-37 -34.5t-13 -61q-44 29 -51 55.5t13.5 50t62.5 43.5t95.5 35.5t113 27t115.5 17t103 5.5t74 -7q61 -14 115 -46.5t96 -79t70.5 -104.5
t38 -121.5t-1 -130t-46.5 -131.5q-83 -113 -173.5 -169t-183.5 -69t-185 10.5t-177 69.5q-35 -34 -81.5 -63t-92 -44t-83 -12t-52.5 34zM229 95q1 6 -12 6t-32.5 -3.5t-41.5 -10.5t-38.5 -15.5t-23 -17.5t4.5 -17q9 -9 32 -4t47 16.5t43 25t21 20.5zM381 151q91 -53 179 -62
t164 14.5t137 73t99 114t48 137.5t-14.5 143.5t-89 132.5t-175.5 103q-65 13 -109.5 3t-73.5 -38t-46 -71t-27 -95.5t-16.5 -111t-15 -118.5t-22.5 -117.5t-38 -107.5zM277 376q-9 -1 -21 3.5t-18.5 12.5t-5 19t19.5 23l326 -1q13 -2 23 -8t13.5 -14t0 -17t-18.5 -16z" />
    <glyph glyph-name="Eacute" unicode="&#xc9;" horiz-adv-x="868" 
d="M28 37q-12 23 -1.5 40t32.5 30.5t52 24t58 19t50 16.5t29 16q13 28 24.5 74t21 102t17.5 118t15 121.5t13.5 112.5t12.5 92q-57 -1 -99 -5t-68 -17t-36.5 -38.5t-5.5 -70.5q-31 1 -47 14t-20 31.5t3.5 40.5t23 41t38.5 32.5t51 15.5q30 7 60 9.5t66 3t81 0t104.5 0t136 3
t175.5 8.5q16 -5 20 -16t-0.5 -23t-17 -21t-29.5 -8l-350 -14l-43 -312q18 1 62 1h94h94t62 -1q21 1 27 -10t3 -23.5t-12 -22.5t-18 -7q-36 -4 -79 -1t-85.5 5t-81 0.5t-66.5 -13.5l-35 -229q73 -22 134 -39t116.5 -20t110 11.5t114.5 54.5q15 1 21 -5.5t6.5 -15t-4 -16.5
t-10.5 -9q-47 -39 -98.5 -59.5t-104.5 -28t-105 -4t-99 14t-87.5 26t-70.5 31.5q-15 -12 -34.5 -35t-41.5 -47.5t-45.5 -44.5t-47 -24.5t-45.5 10.5t-41 61zM217 119q-1 -1 -14 -5t-32 -9.5t-40 -13.5t-35.5 -17.5t-20 -20.5t6.5 -24q-2 -7 7 -5t23.5 9.5t32 19.5t33 24
t26.5 23.5t13 18.5zM545 913q-15 -15 -26.5 -17.5t-19 4t-10.5 20t1 30.5q12 12 20.5 23t16.5 22t16.5 22.5t19.5 24.5q4 4 11 10t17 9t23 1t28 -14z" />
    <glyph glyph-name="Ebreve" unicode="&#x114;" horiz-adv-x="868" 
d="M28 37q-12 23 -1.5 40t32.5 30.5t52 24t58 19t50 16.5t29 16q13 28 24.5 74t21 102t17.5 118t15 121.5t13.5 112.5t12.5 92q-57 -1 -99 -5t-68 -17t-36.5 -38.5t-5.5 -70.5q-31 1 -47 14t-20 31.5t3.5 40.5t23 41t38.5 32.5t51 15.5q30 7 60 9.5t66 3t81 0t104.5 0t136 3
t175.5 8.5q16 -5 20 -16t-0.5 -23t-17 -21t-29.5 -8l-350 -14l-43 -312q18 1 62 1h94h94t62 -1q21 1 27 -10t3 -23.5t-12 -22.5t-18 -7q-36 -4 -79 -1t-85.5 5t-81 0.5t-66.5 -13.5l-35 -229q73 -22 134 -39t116.5 -20t110 11.5t114.5 54.5q15 1 21 -5.5t6.5 -15t-4 -16.5
t-10.5 -9q-47 -39 -98.5 -59.5t-104.5 -28t-105 -4t-99 14t-87.5 26t-70.5 31.5q-15 -12 -34.5 -35t-41.5 -47.5t-45.5 -44.5t-47 -24.5t-45.5 10.5t-41 61zM217 119q-1 -1 -14 -5t-32 -9.5t-40 -13.5t-35.5 -17.5t-20 -20.5t6.5 -24q-2 -7 7 -5t23.5 9.5t32 19.5t33 24
t26.5 23.5t13 18.5zM413 1027q13 -33 27.5 -46.5t29 -14t29 9t28.5 21t26.5 23t22.5 15.5q24 -10 23.5 -30t-17.5 -40t-45.5 -35t-60 -16t-61 17.5t-47.5 65.5q-4 12 -3 22t6.5 15t16 4t25.5 -11z" />
    <glyph glyph-name="Ecaron" unicode="&#x11a;" horiz-adv-x="868" 
d="M28 37q-12 23 -1.5 40t32.5 30.5t52 24t58 19t50 16.5t29 16q13 28 24.5 74t21 102t17.5 118t15 121.5t13.5 112.5t12.5 92q-57 -1 -99 -5t-68 -17t-36.5 -38.5t-5.5 -70.5q-31 1 -47 14t-20 31.5t3.5 40.5t23 41t38.5 32.5t51 15.5q30 7 60 9.5t66 3t81 0t104.5 0t136 3
t175.5 8.5q16 -5 20 -16t-0.5 -23t-17 -21t-29.5 -8l-350 -14l-43 -312q18 1 62 1h94h94t62 -1q21 1 27 -10t3 -23.5t-12 -22.5t-18 -7q-36 -4 -79 -1t-85.5 5t-81 0.5t-66.5 -13.5l-35 -229q73 -22 134 -39t116.5 -20t110 11.5t114.5 54.5q15 1 21 -5.5t6.5 -15t-4 -16.5
t-10.5 -9q-47 -39 -98.5 -59.5t-104.5 -28t-105 -4t-99 14t-87.5 26t-70.5 31.5q-15 -12 -34.5 -35t-41.5 -47.5t-45.5 -44.5t-47 -24.5t-45.5 10.5t-41 61zM217 119q-1 -1 -14 -5t-32 -9.5t-40 -13.5t-35.5 -17.5t-20 -20.5t6.5 -24q-2 -7 7 -5t23.5 9.5t32 19.5t33 24
t26.5 23.5t13 18.5zM542 952q13 8 26 23t23.5 31.5t19 33t13.5 27.5q24 -5 40 -11t12 -20q-3 -9 -15.5 -26.5t-28 -37t-29 -37t-17.5 -26.5q-16 -8 -29.5 -9.5t-24 1t-18 6.5t-11.5 7q-12 9 -29.5 26t-36.5 36t-37 36.5t-30 25.5q-8 24 9 35t48 -9z" />
    <glyph glyph-name="Ecircumflex" unicode="&#xca;" horiz-adv-x="868" 
d="M28 37q-12 23 -1.5 40t32.5 30.5t52 24t58 19t50 16.5t29 16q13 28 24.5 74t21 102t17.5 118t15 121.5t13.5 112.5t12.5 92q-57 -1 -99 -5t-68 -17t-36.5 -38.5t-5.5 -70.5q-31 1 -47 14t-20 31.5t3.5 40.5t23 41t38.5 32.5t51 15.5q30 7 60 9.5t66 3t81 0t104.5 0t136 3
t175.5 8.5q16 -5 20 -16t-0.5 -23t-17 -21t-29.5 -8l-350 -14l-43 -312q18 1 62 1h94h94t62 -1q21 1 27 -10t3 -23.5t-12 -22.5t-18 -7q-36 -4 -79 -1t-85.5 5t-81 0.5t-66.5 -13.5l-35 -229q73 -22 134 -39t116.5 -20t110 11.5t114.5 54.5q15 1 21 -5.5t6.5 -15t-4 -16.5
t-10.5 -9q-47 -39 -98.5 -59.5t-104.5 -28t-105 -4t-99 14t-87.5 26t-70.5 31.5q-15 -12 -34.5 -35t-41.5 -47.5t-45.5 -44.5t-47 -24.5t-45.5 10.5t-41 61zM217 119q-1 -1 -14 -5t-32 -9.5t-40 -13.5t-35.5 -17.5t-20 -20.5t6.5 -24q-2 -7 7 -5t23.5 9.5t32 19.5t33 24
t26.5 23.5t13 18.5zM478 904q-15 -15 -26.5 -17.5t-19 4t-10.5 20t1 30.5q12 12 28.5 31.5t34 40.5t34 41t27.5 33q4 4 11 10t17 9t23 1t28 -14q4 -12 17 -32t28 -42t28 -42t15 -32q4 -20 -11 -29t-38 -16q-3 13 -6.5 21.5t-11.5 20.5t-23 32.5t-40 57.5z" />
    <glyph glyph-name="Edieresis" unicode="&#xcb;" horiz-adv-x="868" 
d="M28 37q-12 23 -1.5 40t32.5 30.5t52 24t58 19t50 16.5t29 16q13 28 24.5 74t21 102t17.5 118t15 121.5t13.5 112.5t12.5 92q-57 -1 -99 -5t-68 -17t-36.5 -38.5t-5.5 -70.5q-31 1 -47 14t-20 31.5t3.5 40.5t23 41t38.5 32.5t51 15.5q30 7 60 9.5t66 3t81 0t104.5 0t136 3
t175.5 8.5q16 -5 20 -16t-0.5 -23t-17 -21t-29.5 -8l-350 -14l-43 -312q18 1 62 1h94h94t62 -1q21 1 27 -10t3 -23.5t-12 -22.5t-18 -7q-36 -4 -79 -1t-85.5 5t-81 0.5t-66.5 -13.5l-35 -229q73 -22 134 -39t116.5 -20t110 11.5t114.5 54.5q15 1 21 -5.5t6.5 -15t-4 -16.5
t-10.5 -9q-47 -39 -98.5 -59.5t-104.5 -28t-105 -4t-99 14t-87.5 26t-70.5 31.5q-15 -12 -34.5 -35t-41.5 -47.5t-45.5 -44.5t-47 -24.5t-45.5 10.5t-41 61zM217 119q-1 -1 -14 -5t-32 -9.5t-40 -13.5t-35.5 -17.5t-20 -20.5t6.5 -24q-2 -7 7 -5t23.5 9.5t32 19.5t33 24
t26.5 23.5t13 18.5zM508 908q-17 2 -27 14t-11 26t8 27.5t30 18.5q11 6 22 1.5t19 -15t11.5 -24.5t-0.5 -25.5t-16.5 -18.5t-35.5 -4zM635 910q-17 2 -27 14t-11 26t8 27.5t30 18.5q11 6 22 1.5t19 -15t11.5 -24.5t-0.5 -25.5t-16.5 -18.5t-35.5 -4z" />
    <glyph glyph-name="Edotaccent" unicode="&#x116;" horiz-adv-x="868" 
d="M28 37q-12 23 -1.5 40t32.5 30.5t52 24t58 19t50 16.5t29 16q13 28 24.5 74t21 102t17.5 118t15 121.5t13.5 112.5t12.5 92q-57 -1 -99 -5t-68 -17t-36.5 -38.5t-5.5 -70.5q-31 1 -47 14t-20 31.5t3.5 40.5t23 41t38.5 32.5t51 15.5q30 7 60 9.5t66 3t81 0t104.5 0t136 3
t175.5 8.5q16 -5 20 -16t-0.5 -23t-17 -21t-29.5 -8l-350 -14l-43 -312q18 1 62 1h94h94t62 -1q21 1 27 -10t3 -23.5t-12 -22.5t-18 -7q-36 -4 -79 -1t-85.5 5t-81 0.5t-66.5 -13.5l-35 -229q73 -22 134 -39t116.5 -20t110 11.5t114.5 54.5q15 1 21 -5.5t6.5 -15t-4 -16.5
t-10.5 -9q-47 -39 -98.5 -59.5t-104.5 -28t-105 -4t-99 14t-87.5 26t-70.5 31.5q-15 -12 -34.5 -35t-41.5 -47.5t-45.5 -44.5t-47 -24.5t-45.5 10.5t-41 61zM217 119q-1 -1 -14 -5t-32 -9.5t-40 -13.5t-35.5 -17.5t-20 -20.5t6.5 -24q-2 -7 7 -5t23.5 9.5t32 19.5t33 24
t26.5 23.5t13 18.5zM525 902q-17 2 -27 14t-11 26t8 27.5t30 18.5q11 7 22 2t19 -15.5t11.5 -24.5t-0.5 -25.5t-16.5 -18.5t-35.5 -4z" />
    <glyph glyph-name="Egrave" unicode="&#xc8;" horiz-adv-x="868" 
d="M28 37q-12 23 -1.5 40t32.5 30.5t52 24t58 19t50 16.5t29 16q13 28 24.5 74t21 102t17.5 118t15 121.5t13.5 112.5t12.5 92q-57 -1 -99 -5t-68 -17t-36.5 -38.5t-5.5 -70.5q-31 1 -47 14t-20 31.5t3.5 40.5t23 41t38.5 32.5t51 15.5q30 7 60 9.5t66 3t81 0t104.5 0t136 3
t175.5 8.5q16 -5 20 -16t-0.5 -23t-17 -21t-29.5 -8l-350 -14l-43 -312q18 1 62 1h94h94t62 -1q21 1 27 -10t3 -23.5t-12 -22.5t-18 -7q-36 -4 -79 -1t-85.5 5t-81 0.5t-66.5 -13.5l-35 -229q73 -22 134 -39t116.5 -20t110 11.5t114.5 54.5q15 1 21 -5.5t6.5 -15t-4 -16.5
t-10.5 -9q-47 -39 -98.5 -59.5t-104.5 -28t-105 -4t-99 14t-87.5 26t-70.5 31.5q-15 -12 -34.5 -35t-41.5 -47.5t-45.5 -44.5t-47 -24.5t-45.5 10.5t-41 61zM217 119q-1 -1 -14 -5t-32 -9.5t-40 -13.5t-35.5 -17.5t-20 -20.5t6.5 -24q-2 -7 7 -5t23.5 9.5t32 19.5t33 24
t26.5 23.5t13 18.5zM566 905q-20 18 -35 30t-28 24t-25 27.5t-27 39.5q-4 5 -0.5 14.5t11 16.5t17 9.5t18.5 -6.5l114 -123q3 -7 -1.5 -15t-12 -13.5t-16.5 -7t-15 3.5z" />
    <glyph glyph-name="Eogonek" unicode="&#x118;" horiz-adv-x="868" 
d="M28 37q-12 23 -1.5 40t32.5 30.5t52 24t58 19t50 16.5t29 16q13 28 24.5 74t21 102t17.5 118t15 121.5t13.5 112.5t12.5 92q-57 -1 -99 -5t-68 -17t-36.5 -38.5t-5.5 -70.5q-31 1 -47 14t-20 31.5t3.5 40.5t23 41t38.5 32.5t51 15.5q30 7 60 9.5t66 3t81 0t104.5 0t136 3
t175.5 8.5q16 -5 20 -16t-0.5 -23t-17 -21t-29.5 -8l-350 -14l-43 -312q18 1 62 1h94h94t62 -1q21 1 27 -10t3 -23.5t-12 -22.5t-18 -7q-36 -4 -79 -1t-85.5 5t-81 0.5t-66.5 -13.5l-35 -229q73 -22 134 -39t116.5 -20t110 11.5t114.5 54.5q15 1 21 -5.5t6.5 -15t-4 -16.5
t-10.5 -9q-47 -39 -98.5 -59.5t-104.5 -28t-105 -4t-99 14t-87.5 26t-70.5 31.5q-15 -12 -34.5 -35t-41.5 -47.5t-45.5 -44.5t-47 -24.5t-45.5 10.5t-41 61zM217 119q-1 -1 -14 -5t-32 -9.5t-40 -13.5t-35.5 -17.5t-20 -20.5t6.5 -24q-2 -7 7 -5t23.5 9.5t32 19.5t33 24
t26.5 23.5t13 18.5zM714 61q-11 -23 -19.5 -54.5t-2.5 -57.5t31.5 -39t81.5 0q-22 -40 -47.5 -53t-48 -5.5t-39.5 32.5t-22.5 60t2 77.5t35.5 86.5z" />
    <glyph glyph-name="Emacron" unicode="&#x112;" horiz-adv-x="868" 
d="M28 37q-12 23 -1.5 40t32.5 30.5t52 24t58 19t50 16.5t29 16q13 28 24.5 74t21 102t17.5 118t15 121.5t13.5 112.5t12.5 92q-57 -1 -99 -5t-68 -17t-36.5 -38.5t-5.5 -70.5q-31 1 -47 14t-20 31.5t3.5 40.5t23 41t38.5 32.5t51 15.5q30 7 60 9.5t66 3t81 0t104.5 0t136 3
t175.5 8.5q16 -5 20 -16t-0.5 -23t-17 -21t-29.5 -8l-350 -14l-43 -312q18 1 62 1h94h94t62 -1q21 1 27 -10t3 -23.5t-12 -22.5t-18 -7q-36 -4 -79 -1t-85.5 5t-81 0.5t-66.5 -13.5l-35 -229q73 -22 134 -39t116.5 -20t110 11.5t114.5 54.5q15 1 21 -5.5t6.5 -15t-4 -16.5
t-10.5 -9q-47 -39 -98.5 -59.5t-104.5 -28t-105 -4t-99 14t-87.5 26t-70.5 31.5q-15 -12 -34.5 -35t-41.5 -47.5t-45.5 -44.5t-47 -24.5t-45.5 10.5t-41 61zM217 119q-1 -1 -14 -5t-32 -9.5t-40 -13.5t-35.5 -17.5t-20 -20.5t6.5 -24q-2 -7 7 -5t23.5 9.5t32 19.5t33 24
t26.5 23.5t13 18.5zM361 920q-9 -1 -21 3.5t-18.5 12.5t-5 19t19.5 23l326 -1q13 -2 23 -8t13.5 -14t0 -17t-18.5 -16z" />
    <glyph glyph-name="Gcircumflex" unicode="&#x11c;" 
d="M29 -598q-40 65 -46 118t13.5 97t59.5 80.5t93.5 69t115 62.5t123.5 61q4 50 9 105t9 133q-107 -83 -181.5 -112t-120.5 -17.5t-66.5 57t-19.5 111.5t21.5 145.5t55.5 159t83.5 153.5t105 127.5t119.5 81t128 14.5q49 -7 74.5 -19.5t33.5 -26t1 -26t-21.5 -19t-33.5 -5.5
t-37 14q-7 -63 -15.5 -143t-17.5 -165.5l-18 -171t-15.5 -159t-11 -129.5t-4.5 -82q9 1 22 0.5t26.5 -2t26.5 -2.5t22 -2q14 -1 24.5 -8.5t13.5 -16.5t-3.5 -17.5t-27.5 -12.5l-108 -2q-2 -16 -3.5 -55.5t-7 -91t-17 -109.5t-31.5 -110t-51 -92t-76 -56.5t-106 -3.5t-141 67
zM70 -557q62 -50 111 -55t86.5 20t63 73.5t40 106.5t18.5 118.5t-1 109.5q-51 -13 -101.5 -36.5t-94.5 -54.5t-78 -67t-52.5 -73.5t-18 -74t26.5 -67.5zM482 774q-53 1 -103.5 -31.5t-96 -85.5t-83 -120.5t-65 -137.5t-42 -136t-13.5 -115.5t20 -77t59 -20.5t102.5 55
t151.5 149q7 27 15.5 67.5t16.5 89t15.5 101t13 101t8 91t1.5 70.5zM379 884q-15 -15 -26.5 -17.5t-19 4t-10.5 20t1 30.5q12 12 28.5 31.5t34 40.5t34 41t27.5 33q4 4 11 10t17 9t23 1t28 -14q4 -12 17 -32t28 -42t28 -42t15 -32q4 -20 -11 -29t-38 -16q-3 13 -6.5 21.5
t-11.5 20.5t-23 32.5t-40 57.5z" />
    <glyph glyph-name="Gbreve" unicode="&#x11e;" 
d="M29 -598q-40 65 -46 118t13.5 97t59.5 80.5t93.5 69t115 62.5t123.5 61q4 50 9 105t9 133q-107 -83 -181.5 -112t-120.5 -17.5t-66.5 57t-19.5 111.5t21.5 145.5t55.5 159t83.5 153.5t105 127.5t119.5 81t128 14.5q49 -7 74.5 -19.5t33.5 -26t1 -26t-21.5 -19t-33.5 -5.5
t-37 14q-7 -63 -15.5 -143t-17.5 -165.5l-18 -171t-15.5 -159t-11 -129.5t-4.5 -82q9 1 22 0.5t26.5 -2t26.5 -2.5t22 -2q14 -1 24.5 -8.5t13.5 -16.5t-3.5 -17.5t-27.5 -12.5l-108 -2q-2 -16 -3.5 -55.5t-7 -91t-17 -109.5t-31.5 -110t-51 -92t-76 -56.5t-106 -3.5t-141 67
zM70 -557q62 -50 111 -55t86.5 20t63 73.5t40 106.5t18.5 118.5t-1 109.5q-51 -13 -101.5 -36.5t-94.5 -54.5t-78 -67t-52.5 -73.5t-18 -74t26.5 -67.5zM482 774q-53 1 -103.5 -31.5t-96 -85.5t-83 -120.5t-65 -137.5t-42 -136t-13.5 -115.5t20 -77t59 -20.5t102.5 55
t151.5 149q7 27 15.5 67.5t16.5 89t15.5 101t13 101t8 91t1.5 70.5zM401 1011q13 -33 27.5 -46.5t29 -14t29 9t28.5 21t26.5 23t22.5 15.5q24 -10 23.5 -30t-17.5 -40t-45.5 -35t-60 -16t-61 17.5t-47.5 65.5q-4 12 -3 22t6.5 15t16 4t25.5 -11z" />
    <glyph glyph-name="Gdotaccent" unicode="&#x120;" 
d="M29 -598q-40 65 -46 118t13.5 97t59.5 80.5t93.5 69t115 62.5t123.5 61q4 50 9 105t9 133q-107 -83 -181.5 -112t-120.5 -17.5t-66.5 57t-19.5 111.5t21.5 145.5t55.5 159t83.5 153.5t105 127.5t119.5 81t128 14.5q49 -7 74.5 -19.5t33.5 -26t1 -26t-21.5 -19t-33.5 -5.5
t-37 14q-7 -63 -15.5 -143t-17.5 -165.5l-18 -171t-15.5 -159t-11 -129.5t-4.5 -82q9 1 22 0.5t26.5 -2t26.5 -2.5t22 -2q14 -1 24.5 -8.5t13.5 -16.5t-3.5 -17.5t-27.5 -12.5l-108 -2q-2 -16 -3.5 -55.5t-7 -91t-17 -109.5t-31.5 -110t-51 -92t-76 -56.5t-106 -3.5t-141 67
zM70 -557q62 -50 111 -55t86.5 20t63 73.5t40 106.5t18.5 118.5t-1 109.5q-51 -13 -101.5 -36.5t-94.5 -54.5t-78 -67t-52.5 -73.5t-18 -74t26.5 -67.5zM482 774q-53 1 -103.5 -31.5t-96 -85.5t-83 -120.5t-65 -137.5t-42 -136t-13.5 -115.5t20 -77t59 -20.5t102.5 55
t151.5 149q7 27 15.5 67.5t16.5 89t15.5 101t13 101t8 91t1.5 70.5zM379 885q-17 2 -27 14t-11 26t8 27.5t30 18.5q11 7 22 2t19 -15.5t11.5 -24.5t-0.5 -25.5t-16.5 -18.5t-35.5 -4z" />
    <glyph glyph-name="Gcommaaccent" unicode="&#x122;" 
d="M29 -598q-40 65 -46 118t13.5 97t59.5 80.5t93.5 69t115 62.5t123.5 61q4 50 9 105t9 133q-107 -83 -181.5 -112t-120.5 -17.5t-66.5 57t-19.5 111.5t21.5 145.5t55.5 159t83.5 153.5t105 127.5t119.5 81t128 14.5q49 -7 74.5 -19.5t33.5 -26t1 -26t-21.5 -19t-33.5 -5.5
t-37 14q-7 -63 -15.5 -143t-17.5 -165.5l-18 -171t-15.5 -159t-11 -129.5t-4.5 -82q9 1 22 0.5t26.5 -2t26.5 -2.5t22 -2q14 -1 24.5 -8.5t13.5 -16.5t-3.5 -17.5t-27.5 -12.5l-108 -2q-2 -16 -3.5 -55.5t-7 -91t-17 -109.5t-31.5 -110t-51 -92t-76 -56.5t-106 -3.5t-141 67
zM70 -557q62 -50 111 -55t86.5 20t63 73.5t40 106.5t18.5 118.5t-1 109.5q-51 -13 -101.5 -36.5t-94.5 -54.5t-78 -67t-52.5 -73.5t-18 -74t26.5 -67.5zM482 774q-53 1 -103.5 -31.5t-96 -85.5t-83 -120.5t-65 -137.5t-42 -136t-13.5 -115.5t20 -77t59 -20.5t102.5 55
t151.5 149q7 27 15.5 67.5t16.5 89t15.5 101t13 101t8 91t1.5 70.5zM546 -632q-14 -6 -32.5 -12t-35 -6t-29 8t-13.5 29q31 3 67.5 16t64 36t39.5 55.5t-6 75.5q2 -12 -14 -19.5t-38 -9t-44 4t-33 20t-4.5 38t41.5 58.5q36 24 66 16t50.5 -35.5t28.5 -67.5t0.5 -80.5
t-34 -75.5t-74.5 -51z" />
    <glyph glyph-name="Hbar" unicode="&#x126;" horiz-adv-x="737" 
d="M631 414q-23 -4 -55 -5t-70.5 -3t-81 -6.5t-85.5 -14.5q10 -111 0.5 -186t-31.5 -120.5t-53.5 -65t-65 -20t-67 15t-59 40.5t-41 55.5t-13.5 60.5q2 4 8.5 11t9.5 7q37 -68 74.5 -99.5t70.5 -33t59.5 23.5t43 68t19.5 101t-10 124q-45 3 -63.5 19t-16 34t23.5 30.5
t56 8.5q2 27 4.5 55.5t5 59.5t5 66t4.5 76q-17 4 -34.5 1t-30 -12.5t-16.5 -25t7 -37.5q-53 8 -60.5 29.5t14.5 48t64 54t88.5 47t88 27.5t62.5 -4q16 -24 14 -32.5t-17 -14t-42 -13.5t-60 -31q-14 -30 -24 -67.5t-15.5 -77t-6.5 -78t4 -71.5q69 0 139 6t155 12q0 11 1 37.5
t2 61t2.5 72.5t3 72.5t3 61t2.5 37.5q-2 25 6.5 40.5t20 18.5t21.5 -9t11 -43l-33 -826q-4 -14 -14 -22t-20 -7.5t-17.5 12t-6.5 35.5zM358.461 532.957q-11.8613 -0.950195 -27.6758 3.3252q-15.8145 4.27441 -24.3799 11.875q-8.56641 7.59961 -6.58984 18.0498
q1.97754 10.4502 25.6982 21.8506l429.627 -0.950195q17.1318 -1.90039 30.3105 -7.59961q13.1787 -5.7002 17.791 -13.3008q4.61328 -7.59961 0 -16.1504q-4.6123 -8.5498 -24.3809 -15.2002z" />
    <glyph glyph-name="Hcircumflex" unicode="&#x124;" horiz-adv-x="737" 
d="M631 414q-23 -4 -55 -5t-70.5 -3t-81 -6.5t-85.5 -14.5q10 -111 0.5 -186t-31.5 -120.5t-53.5 -65t-65 -20t-67 15t-59 40.5t-41 55.5t-13.5 60.5q2 4 8.5 11t9.5 7q37 -68 74.5 -99.5t70.5 -33t59.5 23.5t43 68t19.5 101t-10 124q-45 3 -63.5 19t-16 34t23.5 30.5
t56 8.5q2 27 4.5 55.5t5 59.5t5 66t4.5 76q-17 4 -34.5 1t-30 -12.5t-16.5 -25t7 -37.5q-53 8 -60.5 29.5t14.5 48t64 54t88.5 47t88 27.5t62.5 -4q16 -24 14 -32.5t-17 -14t-42 -13.5t-60 -31q-14 -30 -24 -67.5t-15.5 -77t-6.5 -78t4 -71.5q69 0 139 6t155 12q0 11 1 37.5
t2 61t2.5 72.5t3 72.5t3 61t2.5 37.5q-2 25 6.5 40.5t20 18.5t21.5 -9t11 -43l-33 -826q-4 -14 -14 -22t-20 -7.5t-17.5 12t-6.5 35.5zM440 916q-15 -15 -26.5 -17.5t-19 4t-10.5 20t1 30.5q12 12 28.5 31.5t34 40.5t34 41t27.5 33q4 4 11 10t17 9t23 1t28 -14q4 -12 17 -32
t28 -42t28 -42t15 -32q4 -20 -11 -29t-38 -16q-3 13 -6.5 21.5t-11.5 20.5t-23 32.5t-40 57.5z" />
    <glyph glyph-name="Iacute" unicode="&#xcd;" horiz-adv-x="339" 
d="M211 0q1 99 5 196t8 192.5t5.5 190t-1.5 189.5q-56 -18 -99.5 -47t-59.5 -62t2.5 -65t84.5 -54l-1 -47q-44 -9 -78 11.5t-53 55.5t-20 76.5t22 76.5q20 30 53 53t69.5 41t72 31t62.5 22q7 -2 10 -33t4 -82t0 -116.5t-3 -137t-4 -144t-4 -137t-3 -116.5t0 -82
q-3 -13 -11.5 -21.5t-19.5 -10.5t-22 2.5t-19 17.5zM153 913q-15 -15 -26.5 -17.5t-19 4t-10.5 20t1 30.5q12 12 20.5 23t16.5 22t16.5 22.5t19.5 24.5q4 4 11 10t17 9t23 1t28 -14z" />
    <glyph glyph-name="Ibreve" unicode="&#x12c;" horiz-adv-x="339" 
d="M211 0q1 99 5 196t8 192.5t5.5 190t-1.5 189.5q-56 -18 -99.5 -47t-59.5 -62t2.5 -65t84.5 -54l-1 -47q-44 -9 -78 11.5t-53 55.5t-20 76.5t22 76.5q20 30 53 53t69.5 41t72 31t62.5 22q7 -2 10 -33t4 -82t0 -116.5t-3 -137t-4 -144t-4 -137t-3 -116.5t0 -82
q-3 -13 -11.5 -21.5t-19.5 -10.5t-22 2.5t-19 17.5zM153 1023q13 -33 27.5 -46.5t29 -14t29 9t28.5 21t26.5 23t22.5 15.5q24 -10 23.5 -30t-17.5 -40t-45.5 -35t-60 -16t-61 17.5t-47.5 65.5q-4 12 -3 22t6.5 15t16 4t25.5 -11z" />
    <glyph glyph-name="Icircumflex" unicode="&#xce;" horiz-adv-x="339" 
d="M211 0q1 99 5 196t8 192.5t5.5 190t-1.5 189.5q-56 -18 -99.5 -47t-59.5 -62t2.5 -65t84.5 -54l-1 -47q-44 -9 -78 11.5t-53 55.5t-20 76.5t22 76.5q20 30 53 53t69.5 41t72 31t62.5 22q7 -2 10 -33t4 -82t0 -116.5t-3 -137t-4 -144t-4 -137t-3 -116.5t0 -82
q-3 -13 -11.5 -21.5t-19.5 -10.5t-22 2.5t-19 17.5zM147 908q-15 -15 -26.5 -17.5t-19 4t-10.5 20t1 30.5q12 12 28.5 31.5t34 40.5t34 41t27.5 33q4 4 11 10t17 9t23 1t28 -14q4 -12 17 -32t28 -42t28 -42t15 -32q4 -20 -11 -29t-38 -16q-3 13 -6.5 21.5t-11.5 20.5
t-23 32.5t-40 57.5z" />
    <glyph glyph-name="Idieresis" unicode="&#xcf;" horiz-adv-x="339" 
d="M211 0q1 99 5 196t8 192.5t5.5 190t-1.5 189.5q-56 -18 -99.5 -47t-59.5 -62t2.5 -65t84.5 -54l-1 -47q-44 -9 -78 11.5t-53 55.5t-20 76.5t22 76.5q20 30 53 53t69.5 41t72 31t62.5 22q7 -2 10 -33t4 -82t0 -116.5t-3 -137t-4 -144t-4 -137t-3 -116.5t0 -82
q-3 -13 -11.5 -21.5t-19.5 -10.5t-22 2.5t-19 17.5zM177 920q-17 2 -27 14t-11 26t8 27.5t30 18.5q11 6 22 1.5t19 -15t11.5 -24.5t-0.5 -25.5t-16.5 -18.5t-35.5 -4zM304 922q-17 2 -27 14t-11 26t8 27.5t30 18.5q11 6 22 1.5t19 -15t11.5 -24.5t-0.5 -25.5t-16.5 -18.5
t-35.5 -4z" />
    <glyph glyph-name="Idotaccent" unicode="&#x130;" horiz-adv-x="339" 
d="M211 0q1 99 5 196t8 192.5t5.5 190t-1.5 189.5q-56 -18 -99.5 -47t-59.5 -62t2.5 -65t84.5 -54l-1 -47q-44 -9 -78 11.5t-53 55.5t-20 76.5t22 76.5q20 30 53 53t69.5 41t72 31t62.5 22q7 -2 10 -33t4 -82t0 -116.5t-3 -137t-4 -144t-4 -137t-3 -116.5t0 -82
q-3 -13 -11.5 -21.5t-19.5 -10.5t-22 2.5t-19 17.5zM228 914q-17 2 -27 14t-11 26t8 27.5t30 18.5q11 7 22 2t19 -15.5t11.5 -24.5t-0.5 -25.5t-16.5 -18.5t-35.5 -4z" />
    <glyph glyph-name="Igrave" unicode="&#xcc;" horiz-adv-x="339" 
d="M211 0q1 99 5 196t8 192.5t5.5 190t-1.5 189.5q-56 -18 -99.5 -47t-59.5 -62t2.5 -65t84.5 -54l-1 -47q-44 -9 -78 11.5t-53 55.5t-20 76.5t22 76.5q20 30 53 53t69.5 41t72 31t62.5 22q7 -2 10 -33t4 -82t0 -116.5t-3 -137t-4 -144t-4 -137t-3 -116.5t0 -82
q-3 -13 -11.5 -21.5t-19.5 -10.5t-22 2.5t-19 17.5zM199 901q-20 18 -35 30t-28 24t-25 27.5t-27 39.5q-4 5 -0.5 14.5t11 16.5t17 9.5t18.5 -6.5l114 -123q3 -7 -1.5 -15t-12 -13.5t-16.5 -7t-15 3.5z" />
    <glyph glyph-name="Itilde" unicode="&#x128;" horiz-adv-x="339" 
d="M211 0q1 99 5 196t8 192.5t5.5 190t-1.5 189.5q-56 -18 -99.5 -47t-59.5 -62t2.5 -65t84.5 -54l-1 -47q-44 -9 -78 11.5t-53 55.5t-20 76.5t22 76.5q20 30 53 53t69.5 41t72 31t62.5 22q7 -2 10 -33t4 -82t0 -116.5t-3 -137t-4 -144t-4 -137t-3 -116.5t0 -82
q-3 -13 -11.5 -21.5t-19.5 -10.5t-22 2.5t-19 17.5zM-59 916q27 53 59 87t64.5 46t63 1.5t53.5 -46.5q15 -32 31 -46t32 -15t31.5 8t30 21.5t27.5 26.5t24 24q2 2 9.5 2t9.5 -2q6 -8 -1.5 -29.5t-25 -44.5t-41.5 -41.5t-51 -22.5t-54.5 13.5t-50.5 67.5q-20 32 -39 40.5
t-39.5 -2t-44 -37.5t-53.5 -67q-1 1 -6.5 3t-11.5 4.5t-11 5t-6 3.5z" />
    <glyph glyph-name="Imacron" horiz-adv-x="339" 
d="M211 0q1 99 5 196t8 192.5t5.5 190t-1.5 189.5q-56 -18 -99.5 -47t-59.5 -62t2.5 -65t84.5 -54l-1 -47q-44 -9 -78 11.5t-53 55.5t-20 76.5t22 76.5q20 30 53 53t69.5 41t72 31t62.5 22q7 -2 10 -33t4 -82t0 -116.5t-3 -137t-4 -144t-4 -137t-3 -116.5t0 -82
q-3 -13 -11.5 -21.5t-19.5 -10.5t-22 2.5t-19 17.5zM28 899q-9 -1 -21 3.5t-18.5 12.5t-5 19t19.5 23l326 -1q13 -2 23 -8t13.5 -14t0 -17t-18.5 -16z" />
    <glyph glyph-name="Iogonek" unicode="&#x12e;" horiz-adv-x="339" 
d="M211 0q1 99 5 196t8 192.5t5.5 190t-1.5 189.5q-56 -18 -99.5 -47t-59.5 -62t2.5 -65t84.5 -54l-1 -47q-44 -9 -78 11.5t-53 55.5t-20 76.5t22 76.5q20 30 53 53t69.5 41t72 31t62.5 22q7 -2 10 -33t4 -82t0 -116.5t-3 -137t-4 -144t-4 -137t-3 -116.5t0 -82
q-3 -13 -11.5 -21.5t-19.5 -10.5t-22 2.5t-19 17.5zM252 24q-11 -23 -19.5 -54.5t-2.5 -57.5t31.5 -39t81.5 0q-22 -40 -47.5 -53t-48 -5.5t-39.5 32.5t-22.5 60t2 77.5t35.5 86.5z" />
    <glyph glyph-name="Jcircumflex" unicode="&#x134;" horiz-adv-x="717" 
d="M205 -295q-59 36 -100 83.5t-61 96.5t-16.5 94.5t33.5 77.5t88.5 45.5t148.5 -1.5l17 -35q-72 6 -117.5 -5.5t-69 -34.5t-27.5 -54t6.5 -63.5t33 -63t52.5 -53.5t64 -35t68 -6.5t65.5 32t54.5 79.5q36 76 59.5 158.5t37 165.5t19 162.5t5.5 150t-3.5 128.5t-7.5 98
q-73 3 -119 -7.5t-70 -31t-27.5 -48.5t8.5 -59.5t37.5 -65t60.5 -63.5q-32 -11 -63 3.5t-54.5 45t-37 70.5t-10.5 78.5t24.5 70t67.5 44.5q11 2 39.5 7.5t61 11.5t61 10.5t39.5 6.5q31 52 63 69.5t56.5 12t38.5 -27t9 -47t-33.5 -49t-87.5 -31.5q13 -214 3 -382t-38 -293
t-70.5 -207.5t-93 -124.5t-106 -45t-109.5 32zM689 827q-1 1 -12.5 0t-23 -6t-18.5 -14t0 -25q15 -3 27 2.5t19.5 14t9.5 17t-2 11.5zM430 920q-15 -15 -26.5 -17.5t-19 4t-10.5 20t1 30.5q12 12 28.5 31.5t34 40.5t34 41t27.5 33q4 4 11 10t17 9t23 1t28 -14q4 -12 17 -32
t28 -42t28 -42t15 -32q4 -20 -11 -29t-38 -16q-3 13 -6.5 21.5t-11.5 20.5t-23 32.5t-40 57.5z" />
    <glyph glyph-name="Kcommaaccent" unicode="&#x136;" horiz-adv-x="766" 
d="M151 0q-1 24 0 79.5t3.5 126.5t6.5 150.5t7.5 152.5t6.5 131.5t4 88.5q-1 31 -11.5 47t-25.5 19.5t-32 -3.5t-31 -20.5t-22 -33t-6 -40.5t16.5 -42.5t47.5 -39.5q-15 -33 -35 -34t-37.5 18t-29 53t-10 70t19.5 68.5t60 49.5q61 9 93 -2t45 -36t11.5 -60t-7 -73.5
t-10 -77.5t2 -72t29 -57t70.5 -31q47 31 89 79t80 104t73 117.5t67 119.5q37 5 41.5 -17t-13.5 -61.5t-53 -91.5t-76.5 -107t-84.5 -108t-76 -94q28 -51 57.5 -110t65 -108.5t78.5 -80.5t97 -25q35 16 53.5 17.5t24.5 -6t1 -20.5t-17 -25.5t-29.5 -22t-36.5 -9.5
q-54 -3 -96 13.5t-75 44.5t-58.5 65.5t-45.5 76.5t-35.5 76.5t-29.5 67.5q-9 3 -25.5 2.5t-33 -2.5t-29 -3.5t-14.5 -1.5v-330q-5 -2 -15.5 -4t-21 -2t-19 3t-9.5 11zM310 377q-4 0 -14 5.5t-22 13t-25 13t-22 5t-13 -9.5t2 -31zM375 -358q-14 -6 -32.5 -12t-35 -6t-29 8
t-13.5 29q31 3 67.5 16t64 36t39.5 55.5t-6 75.5q2 -12 -14 -19.5t-38 -9t-44 4t-33 20t-4.5 38t41.5 58.5q36 24 66 16t50.5 -35.5t28.5 -67.5t0.5 -80.5t-34 -75.5t-74.5 -51z" />
    <glyph glyph-name="Lacute" unicode="&#x139;" horiz-adv-x="811" 
d="M28 18q-13 26 -3 53t28.5 53t39 50.5t27.5 45.5q8 52 5.5 117.5t-6 135t-1.5 137.5t19.5 125t56.5 97t110 54q25 7 49.5 -5t43.5 -35.5t31.5 -54t15.5 -59.5t-5.5 -52t-31.5 -32q-8 77 -28.5 116.5t-47.5 50t-55.5 -4t-51 -45t-35.5 -73.5t-9 -90q1 -34 2.5 -78
t3.5 -89.5t3 -89t1.5 -77t-1 -53.5t-5.5 -18q43 -30 97 -56.5t112 -42.5t115.5 -18.5t107.5 15t88.5 59t59.5 112.5q26 -8 36 -26t3 -35q-28 -75 -74.5 -117.5t-102.5 -59.5t-118.5 -13.5t-123 20t-115 42t-94.5 51.5q-12 3 -24.5 -10t-25 -32.5t-25.5 -41t-25 -34.5
t-24 -13.5t-23 21.5zM303 934q-15 -15 -26.5 -17.5t-19 4t-10.5 20t1 30.5q12 12 20.5 23t16.5 22t16.5 22.5t19.5 24.5q4 4 11 10t17 9t23 1t28 -14z" />
    <glyph glyph-name="Lcaron" unicode="&#x13d;" horiz-adv-x="811" 
d="M28 18q-13 26 -3 53t28.5 53t39 50.5t27.5 45.5q8 52 5.5 117.5t-6 135t-1.5 137.5t19.5 125t56.5 97t110 54q25 7 49.5 -5t43.5 -35.5t31.5 -54t15.5 -59.5t-5.5 -52t-31.5 -32q-8 77 -28.5 116.5t-47.5 50t-55.5 -4t-51 -45t-35.5 -73.5t-9 -90q1 -34 2.5 -78
t3.5 -89.5t3 -89t1.5 -77t-1 -53.5t-5.5 -18q43 -30 97 -56.5t112 -42.5t115.5 -18.5t107.5 15t88.5 59t59.5 112.5q26 -8 36 -26t3 -35q-28 -75 -74.5 -117.5t-102.5 -59.5t-118.5 -13.5t-123 20t-115 42t-94.5 51.5q-12 3 -24.5 -10t-25 -32.5t-25.5 -41t-25 -34.5
t-24 -13.5t-23 21.5zM572 684q4 2 21 9.5t34.5 24t29.5 44t7 69.5q-18 -16 -43.5 -20t-48.5 2q-8 2 -13 8.5t-7 15t-1.5 17t3.5 14.5q4 8 12.5 16.5t19 16.5t21.5 14t20 8q40 5 60.5 -9t26.5 -39.5t0.5 -57.5t-18.5 -63t-30.5 -57t-35.5 -38.5t-33.5 -8.5t-24.5 34z" />
    <glyph glyph-name="Lcommaaccent" unicode="&#x13b;" horiz-adv-x="811" 
d="M28 18q-13 26 -3 53t28.5 53t39 50.5t27.5 45.5q8 52 5.5 117.5t-6 135t-1.5 137.5t19.5 125t56.5 97t110 54q25 7 49.5 -5t43.5 -35.5t31.5 -54t15.5 -59.5t-5.5 -52t-31.5 -32q-8 77 -28.5 116.5t-47.5 50t-55.5 -4t-51 -45t-35.5 -73.5t-9 -90q1 -34 2.5 -78
t3.5 -89.5t3 -89t1.5 -77t-1 -53.5t-5.5 -18q43 -30 97 -56.5t112 -42.5t115.5 -18.5t107.5 15t88.5 59t59.5 112.5q26 -8 36 -26t3 -35q-28 -75 -74.5 -117.5t-102.5 -59.5t-118.5 -13.5t-123 20t-115 42t-94.5 51.5q-12 3 -24.5 -10t-25 -32.5t-25.5 -41t-25 -34.5
t-24 -13.5t-23 21.5zM397 -358q-14 -6 -32.5 -12t-35 -6t-29 8t-13.5 29q31 3 67.5 16t64 36t39.5 55.5t-6 75.5q2 -12 -14 -19.5t-38 -9t-44 4t-33 20t-4.5 38t41.5 58.5q36 24 66 16t50.5 -35.5t28.5 -67.5t0.5 -80.5t-34 -75.5t-74.5 -51z" />
    <glyph glyph-name="Ldot" unicode="&#x13f;" horiz-adv-x="811" 
d="M28 18q-13 26 -3 53t28.5 53t39 50.5t27.5 45.5q8 52 5.5 117.5t-6 135t-1.5 137.5t19.5 125t56.5 97t110 54q25 7 49.5 -5t43.5 -35.5t31.5 -54t15.5 -59.5t-5.5 -52t-31.5 -32q-8 77 -28.5 116.5t-47.5 50t-55.5 -4t-51 -45t-35.5 -73.5t-9 -90q1 -34 2.5 -78
t3.5 -89.5t3 -89t1.5 -77t-1 -53.5t-5.5 -18q43 -30 97 -56.5t112 -42.5t115.5 -18.5t107.5 15t88.5 59t59.5 112.5q26 -8 36 -26t3 -35q-28 -75 -74.5 -117.5t-102.5 -59.5t-118.5 -13.5t-123 20t-115 42t-94.5 51.5q-12 3 -24.5 -10t-25 -32.5t-25.5 -41t-25 -34.5
t-24 -13.5t-23 21.5zM608 428q-17 2 -27 14t-11 26t8 27.5t30 18.5q11 7 22 2t19 -15.5t11.5 -24.5t-0.5 -25.5t-16.5 -18.5t-35.5 -4z" />
    <glyph glyph-name="Lslash" unicode="&#x141;" horiz-adv-x="811" 
d="M35 312q-9 -1 -21 3.5t-18.5 12.5t-5 19t19.5 23l379 84q13 -2 23 -8t13.5 -14t0 -17t-18.5 -16zM28 18q-13 26 -3 53t28.5 53t39 50.5t27.5 45.5q8 52 5.5 117.5t-6 135t-1.5 137.5t19.5 125t56.5 97t110 54q25 7 49.5 -5t43.5 -35.5t31.5 -54t15.5 -59.5t-5.5 -52
t-31.5 -32q-8 77 -28.5 116.5t-47.5 50t-55.5 -4t-51 -45t-35.5 -73.5t-9 -90q1 -34 2.5 -78t3.5 -89.5t3 -89t1.5 -77t-1 -53.5t-5.5 -18q43 -30 97 -56.5t112 -42.5t115.5 -18.5t107.5 15t88.5 59t59.5 112.5q26 -8 36 -26t3 -35q-28 -75 -74.5 -117.5t-102.5 -59.5
t-118.5 -13.5t-123 20t-115 42t-94.5 51.5q-12 3 -24.5 -10t-25 -32.5t-25.5 -41t-25 -34.5t-24 -13.5t-23 21.5z" />
    <glyph glyph-name="Nacute" unicode="&#x143;" horiz-adv-x="876" 
d="M430 575q2 -142 -12 -244t-38 -170.5t-56 -107t-67 -54t-70.5 -11t-66.5 21t-55.5 42.5t-36.5 54.5t-9.5 55.5t24.5 46q37 -82 73.5 -119.5t71 -40.5t64.5 25t53.5 77t39.5 115t21.5 140t-0.5 151t-27 148q-82 4 -133.5 1.5t-78.5 -8.5t-32 -15t5.5 -17.5t33 -15
t51.5 -8.5q9 -3 12.5 -13t1 -20.5t-11 -18.5t-23.5 -6q-7 -3 -27 3t-43 17.5t-44.5 27.5t-31 34t-1.5 36t42.5 33.5t102 26.5t177.5 16q6 57 29.5 82t50 26.5t50.5 -16t32 -44.5t-6.5 -59.5t-64.5 -61.5l292 -588q0 7 0.5 47t4 100t11 133t20 147t31 141.5t45 116.5t61.5 72
t80 8q-54 -62 -88.5 -127.5t-55.5 -134.5t-30.5 -142t-13 -150t-3.5 -157.5t-2 -165.5l-57 -4zM451 833q-7 4 -20 1t-24 -13t-14.5 -26.5t9.5 -39.5q19 -4 32 5.5t19.5 24t6 28.5t-8.5 20zM680 897q-15 -15 -26.5 -17.5t-19 4t-10.5 20t1 30.5q12 12 20.5 23t16.5 22
t16.5 22.5t19.5 24.5q4 4 11 10t17 9t23 1t28 -14z" />
    <glyph glyph-name="Ncaron" unicode="&#x147;" horiz-adv-x="876" 
d="M430 575q2 -142 -12 -244t-38 -170.5t-56 -107t-67 -54t-70.5 -11t-66.5 21t-55.5 42.5t-36.5 54.5t-9.5 55.5t24.5 46q37 -82 73.5 -119.5t71 -40.5t64.5 25t53.5 77t39.5 115t21.5 140t-0.5 151t-27 148q-82 4 -133.5 1.5t-78.5 -8.5t-32 -15t5.5 -17.5t33 -15
t51.5 -8.5q9 -3 12.5 -13t1 -20.5t-11 -18.5t-23.5 -6q-7 -3 -27 3t-43 17.5t-44.5 27.5t-31 34t-1.5 36t42.5 33.5t102 26.5t177.5 16q6 57 29.5 82t50 26.5t50.5 -16t32 -44.5t-6.5 -59.5t-64.5 -61.5l292 -588q0 7 0.5 47t4 100t11 133t20 147t31 141.5t45 116.5t61.5 72
t80 8q-54 -62 -88.5 -127.5t-55.5 -134.5t-30.5 -142t-13 -150t-3.5 -157.5t-2 -165.5l-57 -4zM451 833q-7 4 -20 1t-24 -13t-14.5 -26.5t9.5 -39.5q19 -4 32 5.5t19.5 24t6 28.5t-8.5 20zM661 940q13 8 26 23t23.5 31.5t19 33t13.5 27.5q24 -5 40 -11t12 -20
q-3 -9 -15.5 -26.5t-28 -37t-29 -37t-17.5 -26.5q-16 -8 -29.5 -9.5t-24 1t-18 6.5t-11.5 7q-12 9 -29.5 26t-36.5 36t-37 36.5t-30 25.5q-8 24 9 35t48 -9z" />
    <glyph glyph-name="Ncommaaccent" unicode="&#x145;" horiz-adv-x="876" 
d="M430 575q2 -142 -12 -244t-38 -170.5t-56 -107t-67 -54t-70.5 -11t-66.5 21t-55.5 42.5t-36.5 54.5t-9.5 55.5t24.5 46q37 -82 73.5 -119.5t71 -40.5t64.5 25t53.5 77t39.5 115t21.5 140t-0.5 151t-27 148q-82 4 -133.5 1.5t-78.5 -8.5t-32 -15t5.5 -17.5t33 -15
t51.5 -8.5q9 -3 12.5 -13t1 -20.5t-11 -18.5t-23.5 -6q-7 -3 -27 3t-43 17.5t-44.5 27.5t-31 34t-1.5 36t42.5 33.5t102 26.5t177.5 16q6 57 29.5 82t50 26.5t50.5 -16t32 -44.5t-6.5 -59.5t-64.5 -61.5l292 -588q0 7 0.5 47t4 100t11 133t20 147t31 141.5t45 116.5t61.5 72
t80 8q-54 -62 -88.5 -127.5t-55.5 -134.5t-30.5 -142t-13 -150t-3.5 -157.5t-2 -165.5l-57 -4zM451 833q-7 4 -20 1t-24 -13t-14.5 -26.5t9.5 -39.5q19 -4 32 5.5t19.5 24t6 28.5t-8.5 20zM495 -309q-14 -6 -32.5 -12t-35 -6t-29 8t-13.5 29q31 3 67.5 16t64 36t39.5 55.5
t-6 75.5q2 -12 -14 -19.5t-38 -9t-44 4t-33 20t-4.5 38t41.5 58.5q36 24 66 16t50.5 -35.5t28.5 -67.5t0.5 -80.5t-34 -75.5t-74.5 -51z" />
    <glyph glyph-name="Ntilde" unicode="&#xd1;" horiz-adv-x="876" 
d="M430 575q2 -142 -12 -244t-38 -170.5t-56 -107t-67 -54t-70.5 -11t-66.5 21t-55.5 42.5t-36.5 54.5t-9.5 55.5t24.5 46q37 -82 73.5 -119.5t71 -40.5t64.5 25t53.5 77t39.5 115t21.5 140t-0.5 151t-27 148q-82 4 -133.5 1.5t-78.5 -8.5t-32 -15t5.5 -17.5t33 -15
t51.5 -8.5q9 -3 12.5 -13t1 -20.5t-11 -18.5t-23.5 -6q-7 -3 -27 3t-43 17.5t-44.5 27.5t-31 34t-1.5 36t42.5 33.5t102 26.5t177.5 16q6 57 29.5 82t50 26.5t50.5 -16t32 -44.5t-6.5 -59.5t-64.5 -61.5l292 -588q0 7 0.5 47t4 100t11 133t20 147t31 141.5t45 116.5t61.5 72
t80 8q-54 -62 -88.5 -127.5t-55.5 -134.5t-30.5 -142t-13 -150t-3.5 -157.5t-2 -165.5l-57 -4zM451 833q-7 4 -20 1t-24 -13t-14.5 -26.5t9.5 -39.5q19 -4 32 5.5t19.5 24t6 28.5t-8.5 20zM294 907q27 53 59 87t64.5 46t63 1.5t53.5 -46.5q15 -32 31 -46t32 -15t31.5 8
t30 21.5t27.5 26.5t24 24q2 2 9.5 2t9.5 -2q6 -8 -1.5 -29.5t-25 -44.5t-41.5 -41.5t-51 -22.5t-54.5 13.5t-50.5 67.5q-20 32 -39 40.5t-39.5 -2t-44 -37.5t-53.5 -67q-1 1 -6.5 3t-11.5 4.5t-11 5t-6 3.5z" />
    <glyph glyph-name="Oacute" unicode="&#xd3;" horiz-adv-x="569" 
d="M146 18q-55 23 -85 70t-40.5 107.5t-4.5 129.5t23 136.5t42.5 127.5t54 102.5t57 62t51.5 5.5q42 77 84 103.5t80 11.5t69.5 -67t52.5 -133q15 -82 20 -165t-4.5 -158.5t-36 -140.5t-74 -110.5t-119 -68t-170.5 -13.5zM135 94q37 -25 80 -27t85 14t79.5 46t64 69t39 83.5
t4.5 89.5q-78 7 -127 27.5t-77 58t-40 94.5t-16 137q-30 -29 -57.5 -74t-49 -98t-34.5 -111t-13.5 -114t14 -106.5t48.5 -88.5zM463 725q-32 63 -61.5 81t-53 5.5t-39.5 -48.5t-21 -82t2.5 -94.5t30 -86t62 -56.5t99.5 -6q5 42 7.5 77t1 68t-8 67t-19.5 75zM268 913
q-15 -15 -26.5 -17.5t-19 4t-10.5 20t1 30.5q12 12 20.5 23t16.5 22t16.5 22.5t19.5 24.5q4 4 11 10t17 9t23 1t28 -14z" />
    <glyph glyph-name="Obreve" unicode="&#x14e;" horiz-adv-x="569" 
d="M146 18q-55 23 -85 70t-40.5 107.5t-4.5 129.5t23 136.5t42.5 127.5t54 102.5t57 62t51.5 5.5q42 77 84 103.5t80 11.5t69.5 -67t52.5 -133q15 -82 20 -165t-4.5 -158.5t-36 -140.5t-74 -110.5t-119 -68t-170.5 -13.5zM135 94q37 -25 80 -27t85 14t79.5 46t64 69t39 83.5
t4.5 89.5q-78 7 -127 27.5t-77 58t-40 94.5t-16 137q-30 -29 -57.5 -74t-49 -98t-34.5 -111t-13.5 -114t14 -106.5t48.5 -88.5zM463 725q-32 63 -61.5 81t-53 5.5t-39.5 -48.5t-21 -82t2.5 -94.5t30 -86t62 -56.5t99.5 -6q5 42 7.5 77t1 68t-8 67t-19.5 75zM227 1031
q13 -33 27.5 -46.5t29 -14t29 9t28.5 21t26.5 23t22.5 15.5q24 -10 23.5 -30t-17.5 -40t-45.5 -35t-60 -16t-61 17.5t-47.5 65.5q-4 12 -3 22t6.5 15t16 4t25.5 -11z" />
    <glyph glyph-name="Ocircumflex" unicode="&#xd4;" horiz-adv-x="569" 
d="M146 18q-55 23 -85 70t-40.5 107.5t-4.5 129.5t23 136.5t42.5 127.5t54 102.5t57 62t51.5 5.5q42 77 84 103.5t80 11.5t69.5 -67t52.5 -133q15 -82 20 -165t-4.5 -158.5t-36 -140.5t-74 -110.5t-119 -68t-170.5 -13.5zM135 94q37 -25 80 -27t85 14t79.5 46t64 69t39 83.5
t4.5 89.5q-78 7 -127 27.5t-77 58t-40 94.5t-16 137q-30 -29 -57.5 -74t-49 -98t-34.5 -111t-13.5 -114t14 -106.5t48.5 -88.5zM463 725q-32 63 -61.5 81t-53 5.5t-39.5 -48.5t-21 -82t2.5 -94.5t30 -86t62 -56.5t99.5 -6q5 42 7.5 77t1 68t-8 67t-19.5 75zM249 896
q-15 -15 -26.5 -17.5t-19 4t-10.5 20t1 30.5q12 12 28.5 31.5t34 40.5t34 41t27.5 33q4 4 11 10t17 9t23 1t28 -14q4 -12 17 -32t28 -42t28 -42t15 -32q4 -20 -11 -29t-38 -16q-3 13 -6.5 21.5t-11.5 20.5t-23 32.5t-40 57.5z" />
    <glyph glyph-name="Odieresis" unicode="&#xd6;" horiz-adv-x="569" 
d="M146 18q-55 23 -85 70t-40.5 107.5t-4.5 129.5t23 136.5t42.5 127.5t54 102.5t57 62t51.5 5.5q42 77 84 103.5t80 11.5t69.5 -67t52.5 -133q15 -82 20 -165t-4.5 -158.5t-36 -140.5t-74 -110.5t-119 -68t-170.5 -13.5zM135 94q37 -25 80 -27t85 14t79.5 46t64 69t39 83.5
t4.5 89.5q-78 7 -127 27.5t-77 58t-40 94.5t-16 137q-30 -29 -57.5 -74t-49 -98t-34.5 -111t-13.5 -114t14 -106.5t48.5 -88.5zM463 725q-32 63 -61.5 81t-53 5.5t-39.5 -48.5t-21 -82t2.5 -94.5t30 -86t62 -56.5t99.5 -6q5 42 7.5 77t1 68t-8 67t-19.5 75zM272 916
q-17 2 -27 14t-11 26t8 27.5t30 18.5q11 6 22 1.5t19 -15t11.5 -24.5t-0.5 -25.5t-16.5 -18.5t-35.5 -4zM399 918q-17 2 -27 14t-11 26t8 27.5t30 18.5q11 6 22 1.5t19 -15t11.5 -24.5t-0.5 -25.5t-16.5 -18.5t-35.5 -4z" />
    <glyph glyph-name="Ograve" unicode="&#xd2;" horiz-adv-x="569" 
d="M146 18q-55 23 -85 70t-40.5 107.5t-4.5 129.5t23 136.5t42.5 127.5t54 102.5t57 62t51.5 5.5q42 77 84 103.5t80 11.5t69.5 -67t52.5 -133q15 -82 20 -165t-4.5 -158.5t-36 -140.5t-74 -110.5t-119 -68t-170.5 -13.5zM135 94q37 -25 80 -27t85 14t79.5 46t64 69t39 83.5
t4.5 89.5q-78 7 -127 27.5t-77 58t-40 94.5t-16 137q-30 -29 -57.5 -74t-49 -98t-34.5 -111t-13.5 -114t14 -106.5t48.5 -88.5zM463 725q-32 63 -61.5 81t-53 5.5t-39.5 -48.5t-21 -82t2.5 -94.5t30 -86t62 -56.5t99.5 -6q5 42 7.5 77t1 68t-8 67t-19.5 75zM359 917
q-20 18 -35 30t-28 24t-25 27.5t-27 39.5q-4 5 -0.5 14.5t11 16.5t17 9.5t18.5 -6.5l114 -123q3 -7 -1.5 -15t-12 -13.5t-16.5 -7t-15 3.5z" />
    <glyph glyph-name="Ohungarumlaut" unicode="&#x150;" horiz-adv-x="569" 
d="M146 18q-55 23 -85 70t-40.5 107.5t-4.5 129.5t23 136.5t42.5 127.5t54 102.5t57 62t51.5 5.5q42 77 84 103.5t80 11.5t69.5 -67t52.5 -133q15 -82 20 -165t-4.5 -158.5t-36 -140.5t-74 -110.5t-119 -68t-170.5 -13.5zM135 94q37 -25 80 -27t85 14t79.5 46t64 69t39 83.5
t4.5 89.5q-78 7 -127 27.5t-77 58t-40 94.5t-16 137q-30 -29 -57.5 -74t-49 -98t-34.5 -111t-13.5 -114t14 -106.5t48.5 -88.5zM463 725q-32 63 -61.5 81t-53 5.5t-39.5 -48.5t-21 -82t2.5 -94.5t30 -86t62 -56.5t99.5 -6q5 42 7.5 77t1 68t-8 67t-19.5 75zM309 929
q-15 -15 -26.5 -17.5t-19 4t-10.5 20t1 30.5q23 24 42.5 49t42.5 51q4 4 11 10t17 9t23 1t28 -14zM461 917q-15 -15 -26.5 -17.5t-19 4t-10.5 20t1 30.5q23 24 42.5 49t42.5 51q4 4 11 10t17 9t23 1t28 -14z" />
    <glyph glyph-name="Omacron" unicode="&#x14c;" horiz-adv-x="569" 
d="M146 18q-55 23 -85 70t-40.5 107.5t-4.5 129.5t23 136.5t42.5 127.5t54 102.5t57 62t51.5 5.5q42 77 84 103.5t80 11.5t69.5 -67t52.5 -133q15 -82 20 -165t-4.5 -158.5t-36 -140.5t-74 -110.5t-119 -68t-170.5 -13.5zM135 94q37 -25 80 -27t85 14t79.5 46t64 69t39 83.5
t4.5 89.5q-78 7 -127 27.5t-77 58t-40 94.5t-16 137q-30 -29 -57.5 -74t-49 -98t-34.5 -111t-13.5 -114t14 -106.5t48.5 -88.5zM463 725q-32 63 -61.5 81t-53 5.5t-39.5 -48.5t-21 -82t2.5 -94.5t30 -86t62 -56.5t99.5 -6q5 42 7.5 77t1 68t-8 67t-19.5 75zM183 920
q-9 -1 -21 3.5t-18.5 12.5t-5 19t19.5 23l326 -1q13 -2 23 -8t13.5 -14t0 -17t-18.5 -16z" />
    <glyph glyph-name="Oslashacute" unicode="&#x1fe;" horiz-adv-x="569" 
d="M146 18q-55 23 -85 70t-40.5 107.5t-4.5 129.5t23 136.5t42.5 127.5t54 102.5t57 62t51.5 5.5q42 77 84 103.5t80 11.5t69.5 -67t52.5 -133q15 -82 20 -165t-4.5 -158.5t-36 -140.5t-74 -110.5t-119 -68t-170.5 -13.5zM135 94q37 -25 80 -27t85 14t79.5 46t64 69t39 83.5
t4.5 89.5q-78 7 -127 27.5t-77 58t-40 94.5t-16 137q-30 -29 -57.5 -74t-49 -98t-34.5 -111t-13.5 -114t14 -106.5t48.5 -88.5zM463 725q-32 63 -61.5 81t-53 5.5t-39.5 -48.5t-21 -82t2.5 -94.5t30 -86t62 -56.5t99.5 -6q5 42 7.5 77t1 68t-8 67t-19.5 75zM36 18
q-10 -14 -22 -16.5t-21 2t-13 14t1 19.5l594 819l30 -30l-569 -808v0zM268 913q-15 -15 -26.5 -17.5t-19 4t-10.5 20t1 30.5q12 12 20.5 23t16.5 22t16.5 22.5t19.5 24.5q4 4 11 10t17 9t23 1t28 -14z" />
    <glyph glyph-name="Oslash" unicode="&#xd8;" horiz-adv-x="569" 
d="M146 18q-55 23 -85 70t-40.5 107.5t-4.5 129.5t23 136.5t42.5 127.5t54 102.5t57 62t51.5 5.5q42 77 84 103.5t80 11.5t69.5 -67t52.5 -133q15 -82 20 -165t-4.5 -158.5t-36 -140.5t-74 -110.5t-119 -68t-170.5 -13.5zM135 94q37 -25 80 -27t85 14t79.5 46t64 69t39 83.5
t4.5 89.5q-78 7 -127 27.5t-77 58t-40 94.5t-16 137q-30 -29 -57.5 -74t-49 -98t-34.5 -111t-13.5 -114t14 -106.5t48.5 -88.5zM463 725q-32 63 -61.5 81t-53 5.5t-39.5 -48.5t-21 -82t2.5 -94.5t30 -86t62 -56.5t99.5 -6q5 42 7.5 77t1 68t-8 67t-19.5 75zM36 18
q-10 -14 -22 -16.5t-21 2t-13 14t1 19.5l594 819l30 -30l-569 -808v0z" />
    <glyph glyph-name="Otilde" unicode="&#xd5;" horiz-adv-x="569" 
d="M146 18q-55 23 -85 70t-40.5 107.5t-4.5 129.5t23 136.5t42.5 127.5t54 102.5t57 62t51.5 5.5q42 77 84 103.5t80 11.5t69.5 -67t52.5 -133q15 -82 20 -165t-4.5 -158.5t-36 -140.5t-74 -110.5t-119 -68t-170.5 -13.5zM135 94q37 -25 80 -27t85 14t79.5 46t64 69t39 83.5
t4.5 89.5q-78 7 -127 27.5t-77 58t-40 94.5t-16 137q-30 -29 -57.5 -74t-49 -98t-34.5 -111t-13.5 -114t14 -106.5t48.5 -88.5zM463 725q-32 63 -61.5 81t-53 5.5t-39.5 -48.5t-21 -82t2.5 -94.5t30 -86t62 -56.5t99.5 -6q5 42 7.5 77t1 68t-8 67t-19.5 75zM198 896
q27 53 59 87t64.5 46t63 1.5t53.5 -46.5q15 -32 31 -46t32 -15t31.5 8t30 21.5t27.5 26.5t24 24q2 2 9.5 2t9.5 -2q6 -8 -1.5 -29.5t-25 -44.5t-41.5 -41.5t-51 -22.5t-54.5 13.5t-50.5 67.5q-20 32 -39 40.5t-39.5 -2t-44 -37.5t-53.5 -67q-1 1 -6.5 3t-11.5 4.5t-11 5
t-6 3.5z" />
    <glyph glyph-name="OE" unicode="&#x152;" horiz-adv-x="1118" 
d="M146 18q-55 23 -85 70t-40.5 107.5t-4.5 129.5t23 136.5t42.5 127.5t54 102.5t57 62t51.5 5.5q28 52 56.5 81t56.5 36.5t53.5 -4.5t48.5 -40q4 28 22 38.5t50.5 11t79.5 -5.5t110 -11.5t142.5 -6.5t176.5 9q16 -5 20 -16t-0.5 -23t-17 -21t-29.5 -8l-350 -14l-43 -312
q18 1 62 1h94h94t62 -1q21 1 27 -10t3 -23.5t-12 -22.5t-18 -7q-36 -4 -79 -1t-85.5 5t-81 0.5t-66.5 -13.5l-35 -229q73 -22 134 -39t116.5 -20t110 11.5t114.5 54.5q15 1 21 -5.5t6.5 -15t-4 -16.5t-10.5 -9q-46 -37 -96.5 -55.5t-102.5 -23t-104 2.5t-99.5 20t-89 29.5
t-73.5 32.5q-24 -24 -64.5 -47.5t-89.5 -41.5t-103 -27.5t-105 -4.5zM135 94q37 -25 81.5 -27.5t88 11.5t83 42.5t68 66t42.5 81t6 88.5q-78 7 -129.5 29.5t-83 62.5t-46 99t-18.5 139q-30 -29 -57.5 -74t-49 -98t-34.5 -111t-13.5 -114t14 -106.5t48.5 -88.5zM463 725
q-32 63 -61 80.5t-51 4t-36.5 -51t-18 -84.5t5.5 -96.5t32.5 -88t64 -58t100.5 -6.5q5 42 5 79t-4.5 72.5t-14 71.5t-22.5 77zM530 674q5 -29 9.5 -59t6.5 -60q9 71 16 135t15 109q-38 -1 -61 0.5t-36 3.5q29 -51 50 -129z" />
    <glyph glyph-name="Racute" unicode="&#x154;" horiz-adv-x="987" 
d="M505 477q53 6 104.5 21t95.5 37t79.5 50.5t56.5 60.5t26 66.5t-11 69.5q-19 41 -54.5 45.5t-77 -16t-84 -60t-75.5 -87t-50.5 -97t-9.5 -90.5zM500 639q2 17 18 43t40.5 54.5t56.5 57t66 50t68.5 33t64.5 7t54 -28.5t37 -73q19 -74 4.5 -126.5t-47.5 -89.5t-77 -59.5
t-84 -36.5t-67.5 -21t-27.5 -11q0 -81 21 -153.5t64 -123t108 -72.5t153 -3q18 -14 22 -26.5t-2 -22.5t-19.5 -16.5t-31.5 -8.5q-79 -9 -137.5 10t-99.5 55.5t-66.5 84.5t-40 97.5t-19.5 94.5t-5 76h-62q-5 -40 -6 -87.5t-5.5 -95t-16.5 -91.5t-39 -78t-72 -53.5t-115 -17.5
q-4 0 -12 2.5t-17 5.5t-16 6t-10 4q-24 6 -46.5 23.5t-39.5 42t-27 54.5t-8 60.5t17.5 60t48.5 53.5q-24 -63 -15 -115t38 -86.5t71 -50t83 -6.5t74 46t44 106q1 18 3 57t4.5 89t6 105t6.5 105t5 89.5t3 57.5q4 52 -16 76t-48.5 27t-57.5 -11.5t-42.5 -38t-4 -52.5t58.5 -56
q-1 -18 -12.5 -23.5t-28 -1t-33.5 18t-29.5 34t-17 47.5t5.5 58q10 30 32.5 49.5t51 29.5t59.5 10.5t57.5 -8t44.5 -26t21 -42.5zM604 918q-15 -15 -26.5 -17.5t-19 4t-10.5 20t1 30.5q12 12 20.5 23t16.5 22t16.5 22.5t19.5 24.5q4 4 11 10t17 9t23 1t28 -14z" />
    <glyph glyph-name="Rcaron" unicode="&#x158;" horiz-adv-x="987" 
d="M505 477q53 6 104.5 21t95.5 37t79.5 50.5t56.5 60.5t26 66.5t-11 69.5q-19 41 -54.5 45.5t-77 -16t-84 -60t-75.5 -87t-50.5 -97t-9.5 -90.5zM500 639q2 17 18 43t40.5 54.5t56.5 57t66 50t68.5 33t64.5 7t54 -28.5t37 -73q19 -74 4.5 -126.5t-47.5 -89.5t-77 -59.5
t-84 -36.5t-67.5 -21t-27.5 -11q0 -81 21 -153.5t64 -123t108 -72.5t153 -3q18 -14 22 -26.5t-2 -22.5t-19.5 -16.5t-31.5 -8.5q-79 -9 -137.5 10t-99.5 55.5t-66.5 84.5t-40 97.5t-19.5 94.5t-5 76h-62q-5 -40 -6 -87.5t-5.5 -95t-16.5 -91.5t-39 -78t-72 -53.5t-115 -17.5
q-4 0 -12 2.5t-17 5.5t-16 6t-10 4q-24 6 -46.5 23.5t-39.5 42t-27 54.5t-8 60.5t17.5 60t48.5 53.5q-24 -63 -15 -115t38 -86.5t71 -50t83 -6.5t74 46t44 106q1 18 3 57t4.5 89t6 105t6.5 105t5 89.5t3 57.5q4 52 -16 76t-48.5 27t-57.5 -11.5t-42.5 -38t-4 -52.5t58.5 -56
q-1 -18 -12.5 -23.5t-28 -1t-33.5 18t-29.5 34t-17 47.5t5.5 58q10 30 32.5 49.5t51 29.5t59.5 10.5t57.5 -8t44.5 -26t21 -42.5zM593 931q13 8 26 23t23.5 31.5t19 33t13.5 27.5q24 -5 40 -11t12 -20q-3 -9 -15.5 -26.5t-28 -37t-29 -37t-17.5 -26.5q-16 -8 -29.5 -9.5
t-24 1t-18 6.5t-11.5 7q-12 9 -29.5 26t-36.5 36t-37 36.5t-30 25.5q-8 24 9 35t48 -9z" />
    <glyph glyph-name="Rcommaaccent" unicode="&#x156;" horiz-adv-x="987" 
d="M505 477q53 6 104.5 21t95.5 37t79.5 50.5t56.5 60.5t26 66.5t-11 69.5q-19 41 -54.5 45.5t-77 -16t-84 -60t-75.5 -87t-50.5 -97t-9.5 -90.5zM500 639q2 17 18 43t40.5 54.5t56.5 57t66 50t68.5 33t64.5 7t54 -28.5t37 -73q19 -74 4.5 -126.5t-47.5 -89.5t-77 -59.5
t-84 -36.5t-67.5 -21t-27.5 -11q0 -81 21 -153.5t64 -123t108 -72.5t153 -3q18 -14 22 -26.5t-2 -22.5t-19.5 -16.5t-31.5 -8.5q-79 -9 -137.5 10t-99.5 55.5t-66.5 84.5t-40 97.5t-19.5 94.5t-5 76h-62q-5 -40 -6 -87.5t-5.5 -95t-16.5 -91.5t-39 -78t-72 -53.5t-115 -17.5
q-4 0 -12 2.5t-17 5.5t-16 6t-10 4q-24 6 -46.5 23.5t-39.5 42t-27 54.5t-8 60.5t17.5 60t48.5 53.5q-24 -63 -15 -115t38 -86.5t71 -50t83 -6.5t74 46t44 106q1 18 3 57t4.5 89t6 105t6.5 105t5 89.5t3 57.5q4 52 -16 76t-48.5 27t-57.5 -11.5t-42.5 -38t-4 -52.5t58.5 -56
q-1 -18 -12.5 -23.5t-28 -1t-33.5 18t-29.5 34t-17 47.5t5.5 58q10 30 32.5 49.5t51 29.5t59.5 10.5t57.5 -8t44.5 -26t21 -42.5zM522 -300q-14 -6 -32.5 -12t-35 -6t-29 8t-13.5 29q31 3 67.5 16t64 36t39.5 55.5t-6 75.5q2 -12 -14 -19.5t-38 -9t-44 4t-33 20t-4.5 38
t41.5 58.5q36 24 66 16t50.5 -35.5t28.5 -67.5t0.5 -80.5t-34 -75.5t-74.5 -51z" />
    <glyph glyph-name="Sacute" unicode="&#x15a;" horiz-adv-x="716" 
d="M138 18q-35 9 -64.5 41t-43.5 72t-7.5 80t42.5 64q-10 -69 7 -114t52.5 -70.5t84 -33.5t102 -3t107 21t98 38.5t76 50t40.5 55t-8.5 53t-70.5 45.5q-48 10 -103 14.5t-107 11t-96.5 18t-72.5 34t-35 60t17 95.5q32 59 81.5 117.5t105.5 105t112.5 75t102.5 27.5t75 -37
t31 -118q-11 -35 -31 -56.5t-43 -31t-45 -8t-37 11t-19 27t10 39.5q8 -6 18 -15t22 -14.5t24.5 -4t26.5 15.5q17 72 3.5 104t-45.5 34t-77 -20t-92 -58.5t-89 -81.5t-69 -88t-32.5 -79t22.5 -55q31 -21 66.5 -31.5t73.5 -16t77 -8t77.5 -8t75.5 -16t71 -30.5q44 -38 53 -76
t-7.5 -72.5t-54.5 -65.5t-88 -55.5t-107.5 -41t-114.5 -23.5t-108 -2t-87 24zM448 913q-15 -15 -26.5 -17.5t-19 4t-10.5 20t1 30.5q12 12 20.5 23t16.5 22t16.5 22.5t19.5 24.5q4 4 11 10t17 9t23 1t28 -14z" />
    <glyph glyph-name="Scaron" unicode="&#x160;" horiz-adv-x="716" 
d="M138 18q-35 9 -64.5 41t-43.5 72t-7.5 80t42.5 64q-10 -69 7 -114t52.5 -70.5t84 -33.5t102 -3t107 21t98 38.5t76 50t40.5 55t-8.5 53t-70.5 45.5q-48 10 -103 14.5t-107 11t-96.5 18t-72.5 34t-35 60t17 95.5q32 59 81.5 117.5t105.5 105t112.5 75t102.5 27.5t75 -37
t31 -118q-11 -35 -31 -56.5t-43 -31t-45 -8t-37 11t-19 27t10 39.5q8 -6 18 -15t22 -14.5t24.5 -4t26.5 15.5q17 72 3.5 104t-45.5 34t-77 -20t-92 -58.5t-89 -81.5t-69 -88t-32.5 -79t22.5 -55q31 -21 66.5 -31.5t73.5 -16t77 -8t77.5 -8t75.5 -16t71 -30.5q44 -38 53 -76
t-7.5 -72.5t-54.5 -65.5t-88 -55.5t-107.5 -41t-114.5 -23.5t-108 -2t-87 24zM519 956q13 8 26 23t23.5 31.5t19 33t13.5 27.5q24 -5 40 -11t12 -20q-3 -9 -15.5 -26.5t-28 -37t-29 -37t-17.5 -26.5q-16 -8 -29.5 -9.5t-24 1t-18 6.5t-11.5 7q-12 9 -29.5 26t-36.5 36
t-37 36.5t-30 25.5q-8 24 9 35t48 -9z" />
    <glyph glyph-name="Scedilla" unicode="&#x15e;" horiz-adv-x="716" 
d="M138 18q-35 9 -64.5 41t-43.5 72t-7.5 80t42.5 64q-10 -69 7 -114t52.5 -70.5t84 -33.5t102 -3t107 21t98 38.5t76 50t40.5 55t-8.5 53t-70.5 45.5q-48 10 -103 14.5t-107 11t-96.5 18t-72.5 34t-35 60t17 95.5q32 59 81.5 117.5t105.5 105t112.5 75t102.5 27.5t75 -37
t31 -118q-11 -35 -31 -56.5t-43 -31t-45 -8t-37 11t-19 27t10 39.5q8 -6 18 -15t22 -14.5t24.5 -4t26.5 15.5q17 72 3.5 104t-45.5 34t-77 -20t-92 -58.5t-89 -81.5t-69 -88t-32.5 -79t22.5 -55q31 -21 66.5 -31.5t73.5 -16t77 -8t77.5 -8t75.5 -16t71 -30.5q44 -38 53 -76
t-7.5 -72.5t-54.5 -65.5t-88 -55.5t-107.5 -41t-114.5 -23.5t-108 -2t-87 24zM474 -97q-57 -3 -93 10t-55 32t-22.5 40.5t3.5 36t23 18t37 -13.5q-3 -32 5 -49t22 -24.5t33 -8.5l38 -2t37 -4t31 -14q25 -46 14 -83.5t-39 -60.5t-63.5 -29.5t-60.5 9.5q-16 -2 -37.5 14
t-34.5 36.5t-9 37.5t39 17q9 -29 26.5 -42.5t38 -15t39.5 7t31 22t12.5 31.5t-15.5 35z" />
    <glyph glyph-name="Scircumflex" unicode="&#x15c;" horiz-adv-x="716" 
d="M138 18q-35 9 -64.5 41t-43.5 72t-7.5 80t42.5 64q-10 -69 7 -114t52.5 -70.5t84 -33.5t102 -3t107 21t98 38.5t76 50t40.5 55t-8.5 53t-70.5 45.5q-48 10 -103 14.5t-107 11t-96.5 18t-72.5 34t-35 60t17 95.5q32 59 81.5 117.5t105.5 105t112.5 75t102.5 27.5t75 -37
t31 -118q-11 -35 -31 -56.5t-43 -31t-45 -8t-37 11t-19 27t10 39.5q8 -6 18 -15t22 -14.5t24.5 -4t26.5 15.5q17 72 3.5 104t-45.5 34t-77 -20t-92 -58.5t-89 -81.5t-69 -88t-32.5 -79t22.5 -55q31 -21 66.5 -31.5t73.5 -16t77 -8t77.5 -8t75.5 -16t71 -30.5q44 -38 53 -76
t-7.5 -72.5t-54.5 -65.5t-88 -55.5t-107.5 -41t-114.5 -23.5t-108 -2t-87 24zM434 913q-15 -15 -26.5 -17.5t-19 4t-10.5 20t1 30.5q12 12 28.5 31.5t34 40.5t34 41t27.5 33q4 4 11 10t17 9t23 1t28 -14q4 -12 17 -32t28 -42t28 -42t15 -32q4 -20 -11 -29t-38 -16
q-3 13 -6.5 21.5t-11.5 20.5t-23 32.5t-40 57.5z" />
    <glyph glyph-name="Scommaaccent" unicode="&#x218;" horiz-adv-x="716" 
d="M138 18q-35 9 -64.5 41t-43.5 72t-7.5 80t42.5 64q-10 -69 7 -114t52.5 -70.5t84 -33.5t102 -3t107 21t98 38.5t76 50t40.5 55t-8.5 53t-70.5 45.5q-48 10 -103 14.5t-107 11t-96.5 18t-72.5 34t-35 60t17 95.5q32 59 81.5 117.5t105.5 105t112.5 75t102.5 27.5t75 -37
t31 -118q-11 -35 -31 -56.5t-43 -31t-45 -8t-37 11t-19 27t10 39.5q8 -6 18 -15t22 -14.5t24.5 -4t26.5 15.5q17 72 3.5 104t-45.5 34t-77 -20t-92 -58.5t-89 -81.5t-69 -88t-32.5 -79t22.5 -55q31 -21 66.5 -31.5t73.5 -16t77 -8t77.5 -8t75.5 -16t71 -30.5q44 -38 53 -76
t-7.5 -72.5t-54.5 -65.5t-88 -55.5t-107.5 -41t-114.5 -23.5t-108 -2t-87 24zM350 -358q-14 -6 -32.5 -12t-35 -6t-29 8t-13.5 29q31 3 67.5 16t64 36t39.5 55.5t-6 75.5q2 -12 -14 -19.5t-38 -9t-44 4t-33 20t-4.5 38t41.5 58.5q36 24 66 16t50.5 -35.5t28.5 -67.5
t0.5 -80.5t-34 -75.5t-74.5 -51z" />
    <glyph glyph-name="Tbar" unicode="&#x166;" horiz-adv-x="631" 
d="M315 14q-4 34 -3.5 107t-1 170t-7.5 210t-24 228q-3 3 -19.5 12t-39.5 19.5t-49.5 20.5t-49.5 14.5t-38 2t-15.5 -17t17 -42.5t60.5 -75q1 -1 -3.5 -7t-10 -13t-10.5 -13.5t-6 -7.5q-31 14 -59 42t-45 60.5t-21 63.5t12 51t55 23.5t108 -19.5q61 -21 105.5 -35.5
t84.5 -21.5t82 -5.5t99 13.5q31 10 35 24t-6.5 26t-31 19t-39.5 3q26 18 55.5 17t53 -14.5t37 -34.5t8.5 -42t-32 -39t-85 -24q-14 -1 -38.5 -1.5t-51 -0.5t-51.5 0.5t-38 1.5q3 -78 4.5 -170.5t3 -187.5t3.5 -187t7 -170q-5 -6 -13 -11t-16.5 -6.5t-15.5 2t-10 15.5z
M185 495q-9 -1 -21 3.5t-18.5 12.5t-5 19t19.5 23l326 -1q13 -2 23 -8t13.5 -14t0 -17t-18.5 -16z" />
    <glyph glyph-name="Tcaron" unicode="&#x164;" horiz-adv-x="631" 
d="M315 14q-4 34 -3.5 107t-1 170t-7.5 210t-24 228q-3 3 -19.5 12t-39.5 19.5t-49.5 20.5t-49.5 14.5t-38 2t-15.5 -17t17 -42.5t60.5 -75q1 -1 -3.5 -7t-10 -13t-10.5 -13.5t-6 -7.5q-31 14 -59 42t-45 60.5t-21 63.5t12 51t55 23.5t108 -19.5q61 -21 105.5 -35.5
t84.5 -21.5t82 -5.5t99 13.5q31 10 35 24t-6.5 26t-31 19t-39.5 3q26 18 55.5 17t53 -14.5t37 -34.5t8.5 -42t-32 -39t-85 -24q-14 -1 -38.5 -1.5t-51 -0.5t-51.5 0.5t-38 1.5q3 -78 4.5 -170.5t3 -187.5t3.5 -187t7 -170q-5 -6 -13 -11t-16.5 -6.5t-15.5 2t-10 15.5z
M337 948q13 8 26 23t23.5 31.5t19 33t13.5 27.5q24 -5 40 -11t12 -20q-3 -9 -15.5 -26.5t-28 -37t-29 -37t-17.5 -26.5q-16 -8 -29.5 -9.5t-24 1t-18 6.5t-11.5 7q-12 9 -29.5 26t-36.5 36t-37 36.5t-30 25.5q-8 24 9 35t48 -9z" />
    <glyph glyph-name="Tcommaaccent" unicode="&#x162;" horiz-adv-x="631" 
d="M315 14q-4 34 -3.5 107t-1 170t-7.5 210t-24 228q-3 3 -19.5 12t-39.5 19.5t-49.5 20.5t-49.5 14.5t-38 2t-15.5 -17t17 -42.5t60.5 -75q1 -1 -3.5 -7t-10 -13t-10.5 -13.5t-6 -7.5q-31 14 -59 42t-45 60.5t-21 63.5t12 51t55 23.5t108 -19.5q61 -21 105.5 -35.5
t84.5 -21.5t82 -5.5t99 13.5q31 10 35 24t-6.5 26t-31 19t-39.5 3q26 18 55.5 17t53 -14.5t37 -34.5t8.5 -42t-32 -39t-85 -24q-14 -1 -38.5 -1.5t-51 -0.5t-51.5 0.5t-38 1.5q3 -78 4.5 -170.5t3 -187.5t3.5 -187t7 -170q-5 -6 -13 -11t-16.5 -6.5t-15.5 2t-10 15.5z
M307 -358q-14 -6 -32.5 -12t-35 -6t-29 8t-13.5 29q31 3 67.5 16t64 36t39.5 55.5t-6 75.5q2 -12 -14 -19.5t-38 -9t-44 4t-33 20t-4.5 38t41.5 58.5q36 24 66 16t50.5 -35.5t28.5 -67.5t0.5 -80.5t-34 -75.5t-74.5 -51z" />
    <glyph glyph-name="Uacute" unicode="&#xda;" horiz-adv-x="864" 
d="M553 221q-16 -37 -48 -78t-70 -73.5t-78 -50.5t-73.5 -7.5t-56.5 54.5t-26 136q2 70 9 139.5t14 134.5t12.5 123t4.5 104t-10 78t-30 45q-16 13 -31.5 13t-29.5 -8t-26.5 -22t-23.5 -28.5t-20 -27.5t-15 -19q-13 -13 -19.5 -5.5t-8 23t1 32.5t7.5 23q37 47 82.5 66
t85.5 9t69 -49t34 -108q-5 -36 -12.5 -86t-14.5 -106.5t-13 -116t-8 -114t1 -100.5t13 -76.5t29 -41t49.5 5.5t73 62.5t99.5 130.5l100 561q4 18 12.5 20.5t17.5 -3.5t16.5 -16.5t8.5 -18.5l-81 -535q10 -97 30.5 -145.5t49.5 -62t65 2t76 45.5q11 0 20 -4.5t12 -13
t-3 -20.5t-26 -27q-46 -34 -90.5 -45.5t-81 5t-62.5 64t-35 131.5zM416 913q-15 -15 -26.5 -17.5t-19 4t-10.5 20t1 30.5q12 12 20.5 23t16.5 22t16.5 22.5t19.5 24.5q4 4 11 10t17 9t23 1t28 -14z" />
    <glyph glyph-name="Ucircumflex" unicode="&#xdb;" horiz-adv-x="864" 
d="M553 221q-16 -37 -48 -78t-70 -73.5t-78 -50.5t-73.5 -7.5t-56.5 54.5t-26 136q2 70 9 139.5t14 134.5t12.5 123t4.5 104t-10 78t-30 45q-16 13 -31.5 13t-29.5 -8t-26.5 -22t-23.5 -28.5t-20 -27.5t-15 -19q-13 -13 -19.5 -5.5t-8 23t1 32.5t7.5 23q37 47 82.5 66
t85.5 9t69 -49t34 -108q-5 -36 -12.5 -86t-14.5 -106.5t-13 -116t-8 -114t1 -100.5t13 -76.5t29 -41t49.5 5.5t73 62.5t99.5 130.5l100 561q4 18 12.5 20.5t17.5 -3.5t16.5 -16.5t8.5 -18.5l-81 -535q10 -97 30.5 -145.5t49.5 -62t65 2t76 45.5q11 0 20 -4.5t12 -13
t-3 -20.5t-26 -27q-46 -34 -90.5 -45.5t-81 5t-62.5 64t-35 131.5zM344 900q-15 -15 -26.5 -17.5t-19 4t-10.5 20t1 30.5q12 12 28.5 31.5t34 40.5t34 41t27.5 33q4 4 11 10t17 9t23 1t28 -14q4 -12 17 -32t28 -42t28 -42t15 -32q4 -20 -11 -29t-38 -16q-3 13 -6.5 21.5
t-11.5 20.5t-23 32.5t-40 57.5z" />
    <glyph glyph-name="Ugrave" unicode="&#xd9;" horiz-adv-x="864" 
d="M553 221q-16 -37 -48 -78t-70 -73.5t-78 -50.5t-73.5 -7.5t-56.5 54.5t-26 136q2 70 9 139.5t14 134.5t12.5 123t4.5 104t-10 78t-30 45q-16 13 -31.5 13t-29.5 -8t-26.5 -22t-23.5 -28.5t-20 -27.5t-15 -19q-13 -13 -19.5 -5.5t-8 23t1 32.5t7.5 23q37 47 82.5 66
t85.5 9t69 -49t34 -108q-5 -36 -12.5 -86t-14.5 -106.5t-13 -116t-8 -114t1 -100.5t13 -76.5t29 -41t49.5 5.5t73 62.5t99.5 130.5l100 561q4 18 12.5 20.5t17.5 -3.5t16.5 -16.5t8.5 -18.5l-81 -535q10 -97 30.5 -145.5t49.5 -62t65 2t76 45.5q11 0 20 -4.5t12 -13
t-3 -20.5t-26 -27q-46 -34 -90.5 -45.5t-81 5t-62.5 64t-35 131.5zM462 901q-20 18 -35 30t-28 24t-25 27.5t-27 39.5q-4 5 -0.5 14.5t11 16.5t17 9.5t18.5 -6.5l114 -123q3 -7 -1.5 -15t-12 -13.5t-16.5 -7t-15 3.5z" />
    <glyph glyph-name="Ubreve" unicode="&#x16c;" horiz-adv-x="864" 
d="M553 221q-16 -37 -48 -78t-70 -73.5t-78 -50.5t-73.5 -7.5t-56.5 54.5t-26 136q2 70 9 139.5t14 134.5t12.5 123t4.5 104t-10 78t-30 45q-16 13 -31.5 13t-29.5 -8t-26.5 -22t-23.5 -28.5t-20 -27.5t-15 -19q-13 -13 -19.5 -5.5t-8 23t1 32.5t7.5 23q37 47 82.5 66
t85.5 9t69 -49t34 -108q-5 -36 -12.5 -86t-14.5 -106.5t-13 -116t-8 -114t1 -100.5t13 -76.5t29 -41t49.5 5.5t73 62.5t99.5 130.5l100 561q4 18 12.5 20.5t17.5 -3.5t16.5 -16.5t8.5 -18.5l-81 -535q10 -97 30.5 -145.5t49.5 -62t65 2t76 45.5q11 0 20 -4.5t12 -13
t-3 -20.5t-26 -27q-46 -34 -90.5 -45.5t-81 5t-62.5 64t-35 131.5zM329 1019q13 -33 27.5 -46.5t29 -14t29 9t28.5 21t26.5 23t22.5 15.5q24 -10 23.5 -30t-17.5 -40t-45.5 -35t-60 -16t-61 17.5t-47.5 65.5q-4 12 -3 22t6.5 15t16 4t25.5 -11z" />
    <glyph glyph-name="Udieresis" unicode="&#xdc;" horiz-adv-x="864" 
d="M553 221q-16 -37 -48 -78t-70 -73.5t-78 -50.5t-73.5 -7.5t-56.5 54.5t-26 136q2 70 9 139.5t14 134.5t12.5 123t4.5 104t-10 78t-30 45q-16 13 -31.5 13t-29.5 -8t-26.5 -22t-23.5 -28.5t-20 -27.5t-15 -19q-13 -13 -19.5 -5.5t-8 23t1 32.5t7.5 23q37 47 82.5 66
t85.5 9t69 -49t34 -108q-5 -36 -12.5 -86t-14.5 -106.5t-13 -116t-8 -114t1 -100.5t13 -76.5t29 -41t49.5 5.5t73 62.5t99.5 130.5l100 561q4 18 12.5 20.5t17.5 -3.5t16.5 -16.5t8.5 -18.5l-81 -535q10 -97 30.5 -145.5t49.5 -62t65 2t76 45.5q11 0 20 -4.5t12 -13
t-3 -20.5t-26 -27q-46 -34 -90.5 -45.5t-81 5t-62.5 64t-35 131.5zM350 916q-17 2 -27 14t-11 26t8 27.5t30 18.5q11 6 22 1.5t19 -15t11.5 -24.5t-0.5 -25.5t-16.5 -18.5t-35.5 -4zM477 918q-17 2 -27 14t-11 26t8 27.5t30 18.5q11 6 22 1.5t19 -15t11.5 -24.5t-0.5 -25.5
t-16.5 -18.5t-35.5 -4z" />
    <glyph glyph-name="Uogonek" unicode="&#x172;" horiz-adv-x="864" 
d="M553 221q-16 -37 -48 -78t-70 -73.5t-78 -50.5t-73.5 -7.5t-56.5 54.5t-26 136q2 70 9 139.5t14 134.5t12.5 123t4.5 104t-10 78t-30 45q-16 13 -31.5 13t-29.5 -8t-26.5 -22t-23.5 -28.5t-20 -27.5t-15 -19q-13 -13 -19.5 -5.5t-8 23t1 32.5t7.5 23q37 47 82.5 66
t85.5 9t69 -49t34 -108q-5 -36 -12.5 -86t-14.5 -106.5t-13 -116t-8 -114t1 -100.5t13 -76.5t29 -41t49.5 5.5t73 62.5t99.5 130.5l100 561q4 18 12.5 20.5t17.5 -3.5t16.5 -16.5t8.5 -18.5l-81 -535q10 -97 30.5 -145.5t49.5 -62t65 2t76 45.5q11 0 20 -4.5t12 -13
t-3 -20.5t-26 -27q-46 -34 -90.5 -45.5t-81 5t-62.5 64t-35 131.5zM730 20q-11 -23 -19.5 -54.5t-2.5 -57.5t31.5 -39t81.5 0q-22 -40 -47.5 -53t-48 -5.5t-39.5 32.5t-22.5 60t2 77.5t35.5 86.5z" />
    <glyph glyph-name="Uhungarumlaut" unicode="&#x170;" horiz-adv-x="864" 
d="M553 221q-16 -37 -48 -78t-70 -73.5t-78 -50.5t-73.5 -7.5t-56.5 54.5t-26 136q2 70 9 139.5t14 134.5t12.5 123t4.5 104t-10 78t-30 45q-16 13 -31.5 13t-29.5 -8t-26.5 -22t-23.5 -28.5t-20 -27.5t-15 -19q-13 -13 -19.5 -5.5t-8 23t1 32.5t7.5 23q37 47 82.5 66
t85.5 9t69 -49t34 -108q-5 -36 -12.5 -86t-14.5 -106.5t-13 -116t-8 -114t1 -100.5t13 -76.5t29 -41t49.5 5.5t73 62.5t99.5 130.5l100 561q4 18 12.5 20.5t17.5 -3.5t16.5 -16.5t8.5 -18.5l-81 -535q10 -97 30.5 -145.5t49.5 -62t65 2t76 45.5q11 0 20 -4.5t12 -13
t-3 -20.5t-26 -27q-46 -34 -90.5 -45.5t-81 5t-62.5 64t-35 131.5zM334 913q-15 -15 -26.5 -17.5t-19 4t-10.5 20t1 30.5q23 24 42.5 49t42.5 51q4 4 11 10t17 9t23 1t28 -14zM486 901q-15 -15 -26.5 -17.5t-19 4t-10.5 20t1 30.5q23 24 42.5 49t42.5 51q4 4 11 10t17 9
t23 1t28 -14z" />
    <glyph glyph-name="Umacron" unicode="&#x16a;" horiz-adv-x="864" 
d="M553 221q-16 -37 -48 -78t-70 -73.5t-78 -50.5t-73.5 -7.5t-56.5 54.5t-26 136q2 70 9 139.5t14 134.5t12.5 123t4.5 104t-10 78t-30 45q-16 13 -31.5 13t-29.5 -8t-26.5 -22t-23.5 -28.5t-20 -27.5t-15 -19q-13 -13 -19.5 -5.5t-8 23t1 32.5t7.5 23q37 47 82.5 66
t85.5 9t69 -49t34 -108q-5 -36 -12.5 -86t-14.5 -106.5t-13 -116t-8 -114t1 -100.5t13 -76.5t29 -41t49.5 5.5t73 62.5t99.5 130.5l100 561q4 18 12.5 20.5t17.5 -3.5t16.5 -16.5t8.5 -18.5l-81 -535q10 -97 30.5 -145.5t49.5 -62t65 2t76 45.5q11 0 20 -4.5t12 -13
t-3 -20.5t-26 -27q-46 -34 -90.5 -45.5t-81 5t-62.5 64t-35 131.5zM289 899q-9 -1 -21 3.5t-18.5 12.5t-5 19t19.5 23l326 -1q13 -2 23 -8t13.5 -14t0 -17t-18.5 -16z" />
    <glyph glyph-name="Utilde" unicode="&#x168;" horiz-adv-x="864" 
d="M553 221q-16 -37 -48 -78t-70 -73.5t-78 -50.5t-73.5 -7.5t-56.5 54.5t-26 136q2 70 9 139.5t14 134.5t12.5 123t4.5 104t-10 78t-30 45q-16 13 -31.5 13t-29.5 -8t-26.5 -22t-23.5 -28.5t-20 -27.5t-15 -19q-13 -13 -19.5 -5.5t-8 23t1 32.5t7.5 23q37 47 82.5 66
t85.5 9t69 -49t34 -108q-5 -36 -12.5 -86t-14.5 -106.5t-13 -116t-8 -114t1 -100.5t13 -76.5t29 -41t49.5 5.5t73 62.5t99.5 130.5l100 561q4 18 12.5 20.5t17.5 -3.5t16.5 -16.5t8.5 -18.5l-81 -535q10 -97 30.5 -145.5t49.5 -62t65 2t76 45.5q11 0 20 -4.5t12 -13
t-3 -20.5t-26 -27q-46 -34 -90.5 -45.5t-81 5t-62.5 64t-35 131.5zM198 937q27 53 59 87t64.5 46t63 1.5t53.5 -46.5q15 -32 31 -46t32 -15t31.5 8t30 21.5t27.5 26.5t24 24q2 2 9.5 2t9.5 -2q6 -8 -1.5 -29.5t-25 -44.5t-41.5 -41.5t-51 -22.5t-54.5 13.5t-50.5 67.5
q-20 32 -39 40.5t-39.5 -2t-44 -37.5t-53.5 -67q-1 1 -6.5 3t-11.5 4.5t-11 5t-6 3.5z" />
    <glyph glyph-name="Uring" unicode="&#x16e;" horiz-adv-x="864" 
d="M553 221q-16 -37 -48 -78t-70 -73.5t-78 -50.5t-73.5 -7.5t-56.5 54.5t-26 136q2 70 9 139.5t14 134.5t12.5 123t4.5 104t-10 78t-30 45q-16 13 -31.5 13t-29.5 -8t-26.5 -22t-23.5 -28.5t-20 -27.5t-15 -19q-13 -13 -19.5 -5.5t-8 23t1 32.5t7.5 23q37 47 82.5 66
t85.5 9t69 -49t34 -108q-5 -36 -12.5 -86t-14.5 -106.5t-13 -116t-8 -114t1 -100.5t13 -76.5t29 -41t49.5 5.5t73 62.5t99.5 130.5l100 561q4 18 12.5 20.5t17.5 -3.5t16.5 -16.5t8.5 -18.5l-81 -535q10 -97 30.5 -145.5t49.5 -62t65 2t76 45.5q11 0 20 -4.5t12 -13
t-3 -20.5t-26 -27q-46 -34 -90.5 -45.5t-81 5t-62.5 64t-35 131.5zM316 981q14 23 40.5 37.5t57 20t59.5 2t48.5 -14.5t25 -30.5t-12.5 -45.5q-16 -25 -42.5 -38.5t-55.5 -18t-56.5 -0.5t-46.5 16t-25 30t8 42zM396 999q-21 -18 -26.5 -30t0 -19.5t18.5 -10.5t28.5 -3
t30.5 3.5t24 9.5q11 7 14.5 19.5t-4.5 23t-28.5 14t-56.5 -6.5z" />
    <glyph glyph-name="Wacute" unicode="&#x1e82;" horiz-adv-x="856" 
d="M222 29q16 172 15 313t-13.5 243.5t-33.5 163t-44 71.5t-45.5 -30.5t-37.5 -142.5q-25 10 -34.5 33t-7 51t15 57.5t31.5 53t43 36.5t49 8.5t49.5 -31t44.5 -81.5q6 -19 11.5 -56t9.5 -82.5t7 -94.5t5 -91t2.5 -73t-0.5 -41q4 10 14.5 33.5t24.5 53.5t29 62.5t28.5 62.5
t24 53t14.5 34l6.5 19.5t15 27.5t24 7t32.5 -40l190 -523q13 34 24 86.5t20.5 114t17.5 127t14 126t9.5 110.5t4.5 80q-9 35 -23.5 47.5t-32 10.5t-36.5 -13.5t-36 -24t-30 -21t-19 -4.5q39 53 78.5 88.5t71.5 40.5t53 -25t24 -108q-5 -75 -13.5 -165.5t-20 -180
t-26.5 -170.5t-32.5 -138t-38 -83t-42.5 -4q-2 26 -12 69t-26 94t-36 106t-41.5 106.5t-43 94.5t-40.5 71q-12 -21 -29 -56.5t-36.5 -80t-38.5 -95t-34 -100t-24.5 -95t-8.5 -80.5q-7 -15 -17 -23t-20 -11t-18.5 -0.5t-11.5 9.5zM412 913q-15 -15 -26.5 -17.5t-19 4
t-10.5 20t1 30.5q12 12 20.5 23t16.5 22t16.5 22.5t19.5 24.5q4 4 11 10t17 9t23 1t28 -14z" />
    <glyph glyph-name="Wcircumflex" unicode="&#x174;" horiz-adv-x="856" 
d="M222 29q16 172 15 313t-13.5 243.5t-33.5 163t-44 71.5t-45.5 -30.5t-37.5 -142.5q-25 10 -34.5 33t-7 51t15 57.5t31.5 53t43 36.5t49 8.5t49.5 -31t44.5 -81.5q6 -19 11.5 -56t9.5 -82.5t7 -94.5t5 -91t2.5 -73t-0.5 -41q4 10 14.5 33.5t24.5 53.5t29 62.5t28.5 62.5
t24 53t14.5 34l6.5 19.5t15 27.5t24 7t32.5 -40l190 -523q13 34 24 86.5t20.5 114t17.5 127t14 126t9.5 110.5t4.5 80q-9 35 -23.5 47.5t-32 10.5t-36.5 -13.5t-36 -24t-30 -21t-19 -4.5q39 53 78.5 88.5t71.5 40.5t53 -25t24 -108q-5 -75 -13.5 -165.5t-20 -180
t-26.5 -170.5t-32.5 -138t-38 -83t-42.5 -4q-2 26 -12 69t-26 94t-36 106t-41.5 106.5t-43 94.5t-40.5 71q-12 -21 -29 -56.5t-36.5 -80t-38.5 -95t-34 -100t-24.5 -95t-8.5 -80.5q-7 -15 -17 -23t-20 -11t-18.5 -0.5t-11.5 9.5zM340 900q-15 -15 -26.5 -17.5t-19 4
t-10.5 20t1 30.5q12 12 28.5 31.5t34 40.5t34 41t27.5 33q4 4 11 10t17 9t23 1t28 -14q4 -12 17 -32t28 -42t28 -42t15 -32q4 -20 -11 -29t-38 -16q-3 13 -6.5 21.5t-11.5 20.5t-23 32.5t-40 57.5z" />
    <glyph glyph-name="Wdieresis" unicode="&#x1e84;" horiz-adv-x="856" 
d="M222 29q16 172 15 313t-13.5 243.5t-33.5 163t-44 71.5t-45.5 -30.5t-37.5 -142.5q-25 10 -34.5 33t-7 51t15 57.5t31.5 53t43 36.5t49 8.5t49.5 -31t44.5 -81.5q6 -19 11.5 -56t9.5 -82.5t7 -94.5t5 -91t2.5 -73t-0.5 -41q4 10 14.5 33.5t24.5 53.5t29 62.5t28.5 62.5
t24 53t14.5 34l6.5 19.5t15 27.5t24 7t32.5 -40l190 -523q13 34 24 86.5t20.5 114t17.5 127t14 126t9.5 110.5t4.5 80q-9 35 -23.5 47.5t-32 10.5t-36.5 -13.5t-36 -24t-30 -21t-19 -4.5q39 53 78.5 88.5t71.5 40.5t53 -25t24 -108q-5 -75 -13.5 -165.5t-20 -180
t-26.5 -170.5t-32.5 -138t-38 -83t-42.5 -4q-2 26 -12 69t-26 94t-36 106t-41.5 106.5t-43 94.5t-40.5 71q-12 -21 -29 -56.5t-36.5 -80t-38.5 -95t-34 -100t-24.5 -95t-8.5 -80.5q-7 -15 -17 -23t-20 -11t-18.5 -0.5t-11.5 9.5zM346 916q-17 2 -27 14t-11 26t8 27.5
t30 18.5q11 6 22 1.5t19 -15t11.5 -24.5t-0.5 -25.5t-16.5 -18.5t-35.5 -4zM473 918q-17 2 -27 14t-11 26t8 27.5t30 18.5q11 6 22 1.5t19 -15t11.5 -24.5t-0.5 -25.5t-16.5 -18.5t-35.5 -4z" />
    <glyph glyph-name="Wgrave" unicode="&#x1e80;" horiz-adv-x="856" 
d="M222 29q16 172 15 313t-13.5 243.5t-33.5 163t-44 71.5t-45.5 -30.5t-37.5 -142.5q-25 10 -34.5 33t-7 51t15 57.5t31.5 53t43 36.5t49 8.5t49.5 -31t44.5 -81.5q6 -19 11.5 -56t9.5 -82.5t7 -94.5t5 -91t2.5 -73t-0.5 -41q4 10 14.5 33.5t24.5 53.5t29 62.5t28.5 62.5
t24 53t14.5 34l6.5 19.5t15 27.5t24 7t32.5 -40l190 -523q13 34 24 86.5t20.5 114t17.5 127t14 126t9.5 110.5t4.5 80q-9 35 -23.5 47.5t-32 10.5t-36.5 -13.5t-36 -24t-30 -21t-19 -4.5q39 53 78.5 88.5t71.5 40.5t53 -25t24 -108q-5 -75 -13.5 -165.5t-20 -180
t-26.5 -170.5t-32.5 -138t-38 -83t-42.5 -4q-2 26 -12 69t-26 94t-36 106t-41.5 106.5t-43 94.5t-40.5 71q-12 -21 -29 -56.5t-36.5 -80t-38.5 -95t-34 -100t-24.5 -95t-8.5 -80.5q-7 -15 -17 -23t-20 -11t-18.5 -0.5t-11.5 9.5zM458 901q-20 18 -35 30t-28 24t-25 27.5
t-27 39.5q-4 5 -0.5 14.5t11 16.5t17 9.5t18.5 -6.5l114 -123q3 -7 -1.5 -15t-12 -13.5t-16.5 -7t-15 3.5z" />
    <glyph glyph-name="Yacute" unicode="&#xdd;" horiz-adv-x="811" 
d="M389 -655q-100 32 -140.5 82t-37 108.5t42.5 119.5t97.5 115.5t128.5 96t135 60.5v147q-6 11 -30.5 6t-59 -17.5t-75 -27.5t-77.5 -25t-66 -10.5t-41 16.5q-15 3 -14 37t9.5 87.5t21 119.5t21 133.5t10 130t-12 108t-46 67.5t-91.5 9q-24 -10 -48 -29t-43.5 -43.5
t-31.5 -53t-12 -56.5q-26 17 -30 43.5t8.5 55.5t38 57.5t58 49.5t69.5 32t72 4.5t65 -33t50 -80.5q2 -5 5.5 -16t6.5 -35t2.5 -63.5t-7 -100.5t-20.5 -147t-40 -203q-1 -23 18.5 -27.5t50 2t67.5 21.5t69.5 31.5t56 30t27.5 18.5q0 9 1 37t3 65t4.5 78t4.5 78t4 64.5t4 37.5
q7 48 22.5 103.5t42 106t64.5 88.5t91 51q13 3 22.5 -2.5t12.5 -15t-0.5 -20.5t-16.5 -17q-67 -18 -109.5 -84.5t-62 -176t-18 -259.5t22.5 -336l78 11q18 5 34.5 0t22 -15.5t-3.5 -24t-41 -25.5l-81 -12q-12 -111 -11.5 -199.5t-1 -155.5t-11 -112.5t-40 -70t-88.5 -28
t-156 12.5zM364 -590q69 -14 115.5 -17.5t77 6.5t48 35.5t28.5 70.5v367q-30 -8 -67.5 -28t-77.5 -47.5t-78 -61t-67.5 -69.5t-48 -72.5t-19.5 -70.5t20 -63t69 -50zM573 889q-15 -15 -26.5 -17.5t-19 4t-10.5 20t1 30.5q12 12 20.5 23t16.5 22t16.5 22.5t19.5 24.5
q4 4 11 10t17 9t23 1t28 -14z" />
    <glyph glyph-name="Ycircumflex" unicode="&#x176;" horiz-adv-x="811" 
d="M389 -655q-100 32 -140.5 82t-37 108.5t42.5 119.5t97.5 115.5t128.5 96t135 60.5v147q-6 11 -30.5 6t-59 -17.5t-75 -27.5t-77.5 -25t-66 -10.5t-41 16.5q-15 3 -14 37t9.5 87.5t21 119.5t21 133.5t10 130t-12 108t-46 67.5t-91.5 9q-24 -10 -48 -29t-43.5 -43.5
t-31.5 -53t-12 -56.5q-26 17 -30 43.5t8.5 55.5t38 57.5t58 49.5t69.5 32t72 4.5t65 -33t50 -80.5q2 -5 5.5 -16t6.5 -35t2.5 -63.5t-7 -100.5t-20.5 -147t-40 -203q-1 -23 18.5 -27.5t50 2t67.5 21.5t69.5 31.5t56 30t27.5 18.5q0 9 1 37t3 65t4.5 78t4.5 78t4 64.5t4 37.5
q7 48 22.5 103.5t42 106t64.5 88.5t91 51q13 3 22.5 -2.5t12.5 -15t-0.5 -20.5t-16.5 -17q-67 -18 -109.5 -84.5t-62 -176t-18 -259.5t22.5 -336l78 11q18 5 34.5 0t22 -15.5t-3.5 -24t-41 -25.5l-81 -12q-12 -111 -11.5 -199.5t-1 -155.5t-11 -112.5t-40 -70t-88.5 -28
t-156 12.5zM364 -590q69 -14 115.5 -17.5t77 6.5t48 35.5t28.5 70.5v367q-30 -8 -67.5 -28t-77.5 -47.5t-78 -61t-67.5 -69.5t-48 -72.5t-19.5 -70.5t20 -63t69 -50zM444 876q-15 -15 -26.5 -17.5t-19 4t-10.5 20t1 30.5q12 12 28.5 31.5t34 40.5t34 41t27.5 33q4 4 11 10
t17 9t23 1t28 -14q4 -12 17 -32t28 -42t28 -42t15 -32q4 -20 -11 -29t-38 -16q-3 13 -6.5 21.5t-11.5 20.5t-23 32.5t-40 57.5z" />
    <glyph glyph-name="Ydieresis" unicode="&#x178;" horiz-adv-x="811" 
d="M389 -655q-100 32 -140.5 82t-37 108.5t42.5 119.5t97.5 115.5t128.5 96t135 60.5v147q-6 11 -30.5 6t-59 -17.5t-75 -27.5t-77.5 -25t-66 -10.5t-41 16.5q-15 3 -14 37t9.5 87.5t21 119.5t21 133.5t10 130t-12 108t-46 67.5t-91.5 9q-24 -10 -48 -29t-43.5 -43.5
t-31.5 -53t-12 -56.5q-26 17 -30 43.5t8.5 55.5t38 57.5t58 49.5t69.5 32t72 4.5t65 -33t50 -80.5q2 -5 5.5 -16t6.5 -35t2.5 -63.5t-7 -100.5t-20.5 -147t-40 -203q-1 -23 18.5 -27.5t50 2t67.5 21.5t69.5 31.5t56 30t27.5 18.5q0 9 1 37t3 65t4.5 78t4.5 78t4 64.5t4 37.5
q7 48 22.5 103.5t42 106t64.5 88.5t91 51q13 3 22.5 -2.5t12.5 -15t-0.5 -20.5t-16.5 -17q-67 -18 -109.5 -84.5t-62 -176t-18 -259.5t22.5 -336l78 11q18 5 34.5 0t22 -15.5t-3.5 -24t-41 -25.5l-81 -12q-12 -111 -11.5 -199.5t-1 -155.5t-11 -112.5t-40 -70t-88.5 -28
t-156 12.5zM364 -590q69 -14 115.5 -17.5t77 6.5t48 35.5t28.5 70.5v367q-30 -8 -67.5 -28t-77.5 -47.5t-78 -61t-67.5 -69.5t-48 -72.5t-19.5 -70.5t20 -63t69 -50zM442 871q-17 2 -27 14t-11 26t8 27.5t30 18.5q11 6 22 1.5t19 -15t11.5 -24.5t-0.5 -25.5t-16.5 -18.5
t-35.5 -4zM569 873q-17 2 -27 14t-11 26t8 27.5t30 18.5q11 6 22 1.5t19 -15t11.5 -24.5t-0.5 -25.5t-16.5 -18.5t-35.5 -4z" />
    <glyph glyph-name="Ygrave" unicode="&#x1ef2;" horiz-adv-x="811" 
d="M389 -655q-100 32 -140.5 82t-37 108.5t42.5 119.5t97.5 115.5t128.5 96t135 60.5v147q-6 11 -30.5 6t-59 -17.5t-75 -27.5t-77.5 -25t-66 -10.5t-41 16.5q-15 3 -14 37t9.5 87.5t21 119.5t21 133.5t10 130t-12 108t-46 67.5t-91.5 9q-24 -10 -48 -29t-43.5 -43.5
t-31.5 -53t-12 -56.5q-26 17 -30 43.5t8.5 55.5t38 57.5t58 49.5t69.5 32t72 4.5t65 -33t50 -80.5q2 -5 5.5 -16t6.5 -35t2.5 -63.5t-7 -100.5t-20.5 -147t-40 -203q-1 -23 18.5 -27.5t50 2t67.5 21.5t69.5 31.5t56 30t27.5 18.5q0 9 1 37t3 65t4.5 78t4.5 78t4 64.5t4 37.5
q7 48 22.5 103.5t42 106t64.5 88.5t91 51q13 3 22.5 -2.5t12.5 -15t-0.5 -20.5t-16.5 -17q-67 -18 -109.5 -84.5t-62 -176t-18 -259.5t22.5 -336l78 11q18 5 34.5 0t22 -15.5t-3.5 -24t-41 -25.5l-81 -12q-12 -111 -11.5 -199.5t-1 -155.5t-11 -112.5t-40 -70t-88.5 -28
t-156 12.5zM364 -590q69 -14 115.5 -17.5t77 6.5t48 35.5t28.5 70.5v367q-30 -8 -67.5 -28t-77.5 -47.5t-78 -61t-67.5 -69.5t-48 -72.5t-19.5 -70.5t20 -63t69 -50zM489 872q-20 18 -35 30t-28 24t-25 27.5t-27 39.5q-4 5 -0.5 14.5t11 16.5t17 9.5t18.5 -6.5l114 -123
q3 -7 -1.5 -15t-12 -13.5t-16.5 -7t-15 3.5z" />
    <glyph glyph-name="Zacute" unicode="&#x179;" horiz-adv-x="954" 
d="M36 18q-25 45 -28 85.5t10.5 73.5t40 56.5t61.5 35t75 9.5t80 -21q29 45 69 108.5t82.5 132.5t82.5 136t69 117q-16 1 -51.5 4t-80.5 4.5t-93.5 0.5t-92 -8t-76.5 -21.5t-45 -38.5q1 -17 7 -38.5t6.5 -36t-9.5 -17t-41 18.5q-14 43 -4.5 74t36.5 53t67 35.5t86 21t95 10
t93.5 2t81 -3.5t58.5 -5q47 40 82 56t59.5 15.5t38.5 -13.5t18.5 -30.5t0.5 -35.5t-16 -29q-14 -20 -32 -25t-39 -3t-43.5 6t-44.5 2l-320 -528q64 -13 120.5 -39t105.5 -52t92 -47t80.5 -25t71 15.5t63.5 73.5q1 1 6 3.5t12 1.5t13.5 -7t9.5 -22q-17 -59 -48.5 -88
t-72.5 -36.5t-88.5 3t-96.5 29.5t-97 43t-89.5 45t-74 34.5t-51.5 11.5q-17 -11 -35 -31t-37.5 -42.5t-39.5 -44t-41 -34t-42.5 -13.5t-43.5 18zM233 201q-13 17 -38 20t-52.5 -5t-51.5 -24.5t-35.5 -38.5t-5 -47.5t40.5 -50.5zM774 810q-4 13 -17 16t-29 -1t-30.5 -11.5
t-21.5 -15.5q9 -6 23 -8.5t29 -1t28 7t18 14.5zM461 913q-15 -15 -26.5 -17.5t-19 4t-10.5 20t1 30.5q12 12 20.5 23t16.5 22t16.5 22.5t19.5 24.5q4 4 11 10t17 9t23 1t28 -14z" />
    <glyph glyph-name="Zcaron" unicode="&#x17d;" horiz-adv-x="954" 
d="M36 18q-25 45 -28 85.5t10.5 73.5t40 56.5t61.5 35t75 9.5t80 -21q29 45 69 108.5t82.5 132.5t82.5 136t69 117q-16 1 -51.5 4t-80.5 4.5t-93.5 0.5t-92 -8t-76.5 -21.5t-45 -38.5q1 -17 7 -38.5t6.5 -36t-9.5 -17t-41 18.5q-14 43 -4.5 74t36.5 53t67 35.5t86 21t95 10
t93.5 2t81 -3.5t58.5 -5q47 40 82 56t59.5 15.5t38.5 -13.5t18.5 -30.5t0.5 -35.5t-16 -29q-14 -20 -32 -25t-39 -3t-43.5 6t-44.5 2l-320 -528q64 -13 120.5 -39t105.5 -52t92 -47t80.5 -25t71 15.5t63.5 73.5q1 1 6 3.5t12 1.5t13.5 -7t9.5 -22q-17 -59 -48.5 -88
t-72.5 -36.5t-88.5 3t-96.5 29.5t-97 43t-89.5 45t-74 34.5t-51.5 11.5q-17 -11 -35 -31t-37.5 -42.5t-39.5 -44t-41 -34t-42.5 -13.5t-43.5 18zM233 201q-13 17 -38 20t-52.5 -5t-51.5 -24.5t-35.5 -38.5t-5 -47.5t40.5 -50.5zM774 810q-4 13 -17 16t-29 -1t-30.5 -11.5
t-21.5 -15.5q9 -6 23 -8.5t29 -1t28 7t18 14.5zM499 948q13 8 26 23t23.5 31.5t19 33t13.5 27.5q24 -5 40 -11t12 -20q-3 -9 -15.5 -26.5t-28 -37t-29 -37t-17.5 -26.5q-16 -8 -29.5 -9.5t-24 1t-18 6.5t-11.5 7q-12 9 -29.5 26t-36.5 36t-37 36.5t-30 25.5q-8 24 9 35
t48 -9z" />
    <glyph glyph-name="Zdotaccent" unicode="&#x17b;" horiz-adv-x="954" 
d="M36 18q-25 45 -28 85.5t10.5 73.5t40 56.5t61.5 35t75 9.5t80 -21q29 45 69 108.5t82.5 132.5t82.5 136t69 117q-16 1 -51.5 4t-80.5 4.5t-93.5 0.5t-92 -8t-76.5 -21.5t-45 -38.5q1 -17 7 -38.5t6.5 -36t-9.5 -17t-41 18.5q-14 43 -4.5 74t36.5 53t67 35.5t86 21t95 10
t93.5 2t81 -3.5t58.5 -5q47 40 82 56t59.5 15.5t38.5 -13.5t18.5 -30.5t0.5 -35.5t-16 -29q-14 -20 -32 -25t-39 -3t-43.5 6t-44.5 2l-320 -528q64 -13 120.5 -39t105.5 -52t92 -47t80.5 -25t71 15.5t63.5 73.5q1 1 6 3.5t12 1.5t13.5 -7t9.5 -22q-17 -59 -48.5 -88
t-72.5 -36.5t-88.5 3t-96.5 29.5t-97 43t-89.5 45t-74 34.5t-51.5 11.5q-17 -11 -35 -31t-37.5 -42.5t-39.5 -44t-41 -34t-42.5 -13.5t-43.5 18zM233 201q-13 17 -38 20t-52.5 -5t-51.5 -24.5t-35.5 -38.5t-5 -47.5t40.5 -50.5zM774 810q-4 13 -17 16t-29 -1t-30.5 -11.5
t-21.5 -15.5q9 -6 23 -8.5t29 -1t28 7t18 14.5zM458 910q-17 2 -27 14t-11 26t8 27.5t30 18.5q11 7 22 2t19 -15.5t11.5 -24.5t-0.5 -25.5t-16.5 -18.5t-35.5 -4z" />
    <glyph glyph-name="aacute" unicode="&#xe1;" horiz-adv-x="454" 
d="M36 18q-19 42 -23 103t5.5 126t32.5 126t57.5 102t81 54.5t103.5 -15.5q4 -51 1 -100.5t-8.5 -100t-9.5 -101t-1 -102.5q12 -34 30.5 -45t41 -7.5t47 18.5t46.5 34q10 -24 1 -46t-30 -37t-49 -21t-56 2t-51.5 32t-34.5 70q-31 -48 -59 -71.5t-52 -31t-42.5 -3t-30.5 13.5
zM106 66q25 18 44.5 50t33.5 71.5t22.5 82t11 81t-0.5 69t-12 45.5t-23.5 10.5t-35.5 -35.5q-21 -39 -38.5 -82.5t-29 -85.5t-16.5 -79.5t-2.5 -66t14 -45t32.5 -15.5zM219 589q-15 -15 -26.5 -17.5t-19 4t-10.5 20t1 30.5q12 12 20.5 23t16.5 22t16.5 22.5t19.5 24.5
q4 4 11 10t17 9t23 1t28 -14z" />
    <glyph glyph-name="abreve" unicode="&#x103;" horiz-adv-x="454" 
d="M36 18q-19 42 -23 103t5.5 126t32.5 126t57.5 102t81 54.5t103.5 -15.5q4 -51 1 -100.5t-8.5 -100t-9.5 -101t-1 -102.5q12 -34 30.5 -45t41 -7.5t47 18.5t46.5 34q10 -24 1 -46t-30 -37t-49 -21t-56 2t-51.5 32t-34.5 70q-31 -48 -59 -71.5t-52 -31t-42.5 -3t-30.5 13.5
zM106 66q25 18 44.5 50t33.5 71.5t22.5 82t11 81t-0.5 69t-12 45.5t-23.5 10.5t-35.5 -35.5q-21 -39 -38.5 -82.5t-29 -85.5t-16.5 -79.5t-2.5 -66t14 -45t32.5 -15.5zM124 667q13 -33 27.5 -46.5t29 -14t29 9t28.5 21t26.5 23t22.5 15.5q24 -10 23.5 -30t-17.5 -40
t-45.5 -35t-60 -16t-61 17.5t-47.5 65.5q-4 12 -3 22t6.5 15t16 4t25.5 -11z" />
    <glyph glyph-name="acircumflex" unicode="&#xe2;" horiz-adv-x="454" 
d="M36 18q-19 42 -23 103t5.5 126t32.5 126t57.5 102t81 54.5t103.5 -15.5q4 -51 1 -100.5t-8.5 -100t-9.5 -101t-1 -102.5q12 -34 30.5 -45t41 -7.5t47 18.5t46.5 34q10 -24 1 -46t-30 -37t-49 -21t-56 2t-51.5 32t-34.5 70q-31 -48 -59 -71.5t-52 -31t-42.5 -3t-30.5 13.5
zM106 66q25 18 44.5 50t33.5 71.5t22.5 82t11 81t-0.5 69t-12 45.5t-23.5 10.5t-35.5 -35.5q-21 -39 -38.5 -82.5t-29 -85.5t-16.5 -79.5t-2.5 -66t14 -45t32.5 -15.5zM139 548q-15 -15 -26.5 -17.5t-19 4t-10.5 20t1 30.5q12 12 28.5 31.5t34 40.5t34 41t27.5 33q4 4 11 10
t17 9t23 1t28 -14q4 -12 17 -32t28 -42t28 -42t15 -32q4 -20 -11 -29t-38 -16q-3 13 -6.5 21.5t-11.5 20.5t-23 32.5t-40 57.5z" />
    <glyph glyph-name="adieresis" unicode="&#xe4;" horiz-adv-x="454" 
d="M36 18q-19 42 -23 103t5.5 126t32.5 126t57.5 102t81 54.5t103.5 -15.5q4 -51 1 -100.5t-8.5 -100t-9.5 -101t-1 -102.5q12 -34 30.5 -45t41 -7.5t47 18.5t46.5 34q10 -24 1 -46t-30 -37t-49 -21t-56 2t-51.5 32t-34.5 70q-31 -48 -59 -71.5t-52 -31t-42.5 -3t-30.5 13.5
zM106 66q25 18 44.5 50t33.5 71.5t22.5 82t11 81t-0.5 69t-12 45.5t-23.5 10.5t-35.5 -35.5q-21 -39 -38.5 -82.5t-29 -85.5t-16.5 -79.5t-2.5 -66t14 -45t32.5 -15.5zM145 564q-17 2 -27 14t-11 26t8 27.5t30 18.5q11 6 22 1.5t19 -15t11.5 -24.5t-0.5 -25.5t-16.5 -18.5
t-35.5 -4zM272 566q-17 2 -27 14t-11 26t8 27.5t30 18.5q11 6 22 1.5t19 -15t11.5 -24.5t-0.5 -25.5t-16.5 -18.5t-35.5 -4z" />
    <glyph glyph-name="agrave" unicode="&#xe0;" horiz-adv-x="454" 
d="M36 18q-19 42 -23 103t5.5 126t32.5 126t57.5 102t81 54.5t103.5 -15.5q4 -51 1 -100.5t-8.5 -100t-9.5 -101t-1 -102.5q12 -34 30.5 -45t41 -7.5t47 18.5t46.5 34q10 -24 1 -46t-30 -37t-49 -21t-56 2t-51.5 32t-34.5 70q-31 -48 -59 -71.5t-52 -31t-42.5 -3t-30.5 13.5
zM106 66q25 18 44.5 50t33.5 71.5t22.5 82t11 81t-0.5 69t-12 45.5t-23.5 10.5t-35.5 -35.5q-21 -39 -38.5 -82.5t-29 -85.5t-16.5 -79.5t-2.5 -66t14 -45t32.5 -15.5zM270 570q-20 18 -35 30t-28 24t-25 27.5t-27 39.5q-4 5 -0.5 14.5t11 16.5t17 9.5t18.5 -6.5l114 -123
q3 -7 -1.5 -15t-12 -13.5t-16.5 -7t-15 3.5z" />
    <glyph glyph-name="amacron" unicode="&#x101;" horiz-adv-x="454" 
d="M36 18q-19 42 -23 103t5.5 126t32.5 126t57.5 102t81 54.5t103.5 -15.5q4 -51 1 -100.5t-8.5 -100t-9.5 -101t-1 -102.5q12 -34 30.5 -45t41 -7.5t47 18.5t46.5 34q10 -24 1 -46t-30 -37t-49 -21t-56 2t-51.5 32t-34.5 70q-31 -48 -59 -71.5t-52 -31t-42.5 -3t-30.5 13.5
zM106 66q25 18 44.5 50t33.5 71.5t22.5 82t11 81t-0.5 69t-12 45.5t-23.5 10.5t-35.5 -35.5q-21 -39 -38.5 -82.5t-29 -85.5t-16.5 -79.5t-2.5 -66t14 -45t32.5 -15.5zM80 572q-9 -1 -21 3.5t-18.5 12.5t-5 19t19.5 23l326 -1q13 -2 23 -8t13.5 -14t0 -17t-18.5 -16z" />
    <glyph glyph-name="aogonek" unicode="&#x105;" horiz-adv-x="454" 
d="M36 18q-19 42 -23 103t5.5 126t32.5 126t57.5 102t81 54.5t103.5 -15.5q4 -51 1 -100.5t-8.5 -100t-9.5 -101t-1 -102.5q12 -34 30.5 -45t41 -7.5t47 18.5t46.5 34q10 -24 1 -46t-30 -37t-49 -21t-56 2t-51.5 32t-34.5 70q-31 -48 -59 -71.5t-52 -31t-42.5 -3t-30.5 13.5
zM106 66q25 18 44.5 50t33.5 71.5t22.5 82t11 81t-0.5 69t-12 45.5t-23.5 10.5t-35.5 -35.5q-21 -39 -38.5 -82.5t-29 -85.5t-16.5 -79.5t-2.5 -66t14 -45t32.5 -15.5zM317 25q-11 -23 -19.5 -54.5t-2.5 -57.5t31.5 -39t81.5 0q-22 -40 -47.5 -53t-48 -5.5t-39.5 32.5
t-22.5 60t2 77.5t35.5 86.5z" />
    <glyph glyph-name="aring" unicode="&#xe5;" horiz-adv-x="454" 
d="M36 18q-19 42 -23 103t5.5 126t32.5 126t57.5 102t81 54.5t103.5 -15.5q4 -51 1 -100.5t-8.5 -100t-9.5 -101t-1 -102.5q12 -34 30.5 -45t41 -7.5t47 18.5t46.5 34q10 -24 1 -46t-30 -37t-49 -21t-56 2t-51.5 32t-34.5 70q-31 -48 -59 -71.5t-52 -31t-42.5 -3t-30.5 13.5
zM106 66q25 18 44.5 50t33.5 71.5t22.5 82t11 81t-0.5 69t-12 45.5t-23.5 10.5t-35.5 -35.5q-21 -39 -38.5 -82.5t-29 -85.5t-16.5 -79.5t-2.5 -66t14 -45t32.5 -15.5zM111 629q14 23 40.5 37.5t57 20t59.5 2t48.5 -14.5t25 -30.5t-12.5 -45.5q-16 -25 -42.5 -38.5
t-55.5 -18t-56.5 -0.5t-46.5 16t-25 30t8 42zM191 647q-21 -18 -26.5 -30t0 -19.5t18.5 -10.5t28.5 -3t30.5 3.5t24 9.5q11 7 14.5 19.5t-4.5 23t-28.5 14t-56.5 -6.5z" />
    <glyph glyph-name="atilde" unicode="&#xe3;" horiz-adv-x="454" 
d="M36 18q-19 42 -23 103t5.5 126t32.5 126t57.5 102t81 54.5t103.5 -15.5q4 -51 1 -100.5t-8.5 -100t-9.5 -101t-1 -102.5q12 -34 30.5 -45t41 -7.5t47 18.5t46.5 34q10 -24 1 -46t-30 -37t-49 -21t-56 2t-51.5 32t-34.5 70q-31 -48 -59 -71.5t-52 -31t-42.5 -3t-30.5 13.5
zM106 66q25 18 44.5 50t33.5 71.5t22.5 82t11 81t-0.5 69t-12 45.5t-23.5 10.5t-35.5 -35.5q-21 -39 -38.5 -82.5t-29 -85.5t-16.5 -79.5t-2.5 -66t14 -45t32.5 -15.5zM-1 597q27 53 59 87t64.5 46t63 1.5t53.5 -46.5q15 -32 31 -46t32 -15t31.5 8t30 21.5t27.5 26.5t24 24
q2 2 9.5 2t9.5 -2q6 -8 -1.5 -29.5t-25 -44.5t-41.5 -41.5t-51 -22.5t-54.5 13.5t-50.5 67.5q-20 32 -39 40.5t-39.5 -2t-44 -37.5t-53.5 -67q-1 1 -6.5 3t-11.5 4.5t-11 5t-6 3.5z" />
    <glyph glyph-name="ae" unicode="&#xe6;" horiz-adv-x="639" 
d="M593 175q19 -27 8.5 -57.5t-40 -56t-72 -43.5t-88 -21t-88 13t-71.5 58q-2 -31 1.5 -49.5t-4.5 -18.5q-12 0 -23 -1t-17.5 5.5t-7 24t9.5 54.5q-28 -37 -53.5 -54.5t-46.5 -22.5t-37.5 -0.5t-27.5 12.5q-19 42 -23 103t5.5 126t32.5 126t57.5 102t81 54.5t103.5 -15.5
q2 -22 2.5 -43t-0.5 -43q26 45 60 73.5t69.5 36.5t69.5 -8t60 -60q12 -29 -3.5 -54t-50 -50t-82.5 -51.5t-100 -59.5q-19 -82 -12 -126t31 -60.5t59.5 -10.5t72.5 24.5t70.5 44t53.5 48.5zM106 66q25 18 44.5 50t33.5 71.5t22.5 82t11 81t-0.5 69t-12 45.5t-23.5 10.5
t-35.5 -35.5q-21 -39 -38.5 -82.5t-29 -85.5t-16.5 -79.5t-2.5 -66t14 -45t32.5 -15.5zM499 434q-18 35 -45.5 37.5t-54.5 -16.5t-48.5 -54t-27.5 -74q25 15 58 30.5t60.5 29.5t45 26t12.5 21z" />
    <glyph glyph-name="aeacute" unicode="&#x1fd;" horiz-adv-x="639" 
d="M593 175q19 -27 8.5 -57.5t-40 -56t-72 -43.5t-88 -21t-88 13t-71.5 58q-2 -31 1.5 -49.5t-4.5 -18.5q-12 0 -23 -1t-17.5 5.5t-7 24t9.5 54.5q-28 -37 -53.5 -54.5t-46.5 -22.5t-37.5 -0.5t-27.5 12.5q-19 42 -23 103t5.5 126t32.5 126t57.5 102t81 54.5t103.5 -15.5
q2 -22 2.5 -43t-0.5 -43q26 45 60 73.5t69.5 36.5t69.5 -8t60 -60q12 -29 -3.5 -54t-50 -50t-82.5 -51.5t-100 -59.5q-19 -82 -12 -126t31 -60.5t59.5 -10.5t72.5 24.5t70.5 44t53.5 48.5zM106 66q25 18 44.5 50t33.5 71.5t22.5 82t11 81t-0.5 69t-12 45.5t-23.5 10.5
t-35.5 -35.5q-21 -39 -38.5 -82.5t-29 -85.5t-16.5 -79.5t-2.5 -66t14 -45t32.5 -15.5zM499 434q-18 35 -45.5 37.5t-54.5 -16.5t-48.5 -54t-27.5 -74q25 15 58 30.5t60.5 29.5t45 26t12.5 21zM364 585q-15 -15 -26.5 -17.5t-19 4t-10.5 20t1 30.5q12 12 20.5 23t16.5 22
t16.5 22.5t19.5 24.5q4 4 11 10t17 9t23 1t28 -14z" />
    <glyph glyph-name="cacute" unicode="&#x107;" horiz-adv-x="450" 
d="M55 55q-23 35 -36 80t-15 92.5t8.5 94.5t34.5 88.5t62 73t92 48.5q7 3 12 8.5t10.5 11t11.5 7.5t15 -2q-3 -14 -2 -40.5t1.5 -57.5t0 -62.5t-6.5 -54t-18 -32.5t-33 2v147q-29 4 -53 -13.5t-41.5 -48.5t-28 -71.5t-12 -81.5t6 -79.5t25 -65t46.5 -37t70 2.5t95 54.5
t122 119.5q7 -30 -9 -65.5t-47 -68.5t-72 -58.5t-84.5 -36t-84 -1.5t-70.5 46zM213 586q-15 -15 -26.5 -17.5t-19 4t-10.5 20t1 30.5q12 12 20.5 23t16.5 22t16.5 22.5t19.5 24.5q4 4 11 10t17 9t23 1t28 -14z" />
    <glyph glyph-name="ccaron" unicode="&#x10d;" horiz-adv-x="450" 
d="M55 55q-23 35 -36 80t-15 92.5t8.5 94.5t34.5 88.5t62 73t92 48.5q7 3 12 8.5t10.5 11t11.5 7.5t15 -2q-3 -14 -2 -40.5t1.5 -57.5t0 -62.5t-6.5 -54t-18 -32.5t-33 2v147q-29 4 -53 -13.5t-41.5 -48.5t-28 -71.5t-12 -81.5t6 -79.5t25 -65t46.5 -37t70 2.5t95 54.5
t122 119.5q7 -30 -9 -65.5t-47 -68.5t-72 -58.5t-84.5 -36t-84 -1.5t-70.5 46zM255 633q13 8 26 23t23.5 31.5t19 33t13.5 27.5q24 -5 40 -11t12 -20q-3 -9 -15.5 -26.5t-28 -37t-29 -37t-17.5 -26.5q-16 -8 -29.5 -9.5t-24 1t-18 6.5t-11.5 7q-12 9 -29.5 26t-36.5 36
t-37 36.5t-30 25.5q-8 24 9 35t48 -9z" />
    <glyph glyph-name="ccedilla" unicode="&#xe7;" horiz-adv-x="450" 
d="M55 55q-23 35 -36 80t-15 92.5t8.5 94.5t34.5 88.5t62 73t92 48.5q7 3 12 8.5t10.5 11t11.5 7.5t15 -2q-3 -14 -2 -40.5t1.5 -57.5t0 -62.5t-6.5 -54t-18 -32.5t-33 2v147q-29 4 -53 -13.5t-41.5 -48.5t-28 -71.5t-12 -81.5t6 -79.5t25 -65t46.5 -37t70 2.5t95 54.5
t122 119.5q7 -30 -9 -65.5t-47 -68.5t-72 -58.5t-84.5 -36t-84 -1.5t-70.5 46zM304 -90q-57 -3 -93 10t-55 32t-22.5 40.5t3.5 36t23 18t37 -13.5q-3 -32 5 -49t22 -24.5t33 -8.5l38 -2t37 -4t31 -14q25 -46 14 -83.5t-39 -60.5t-63.5 -29.5t-60.5 9.5q-16 -2 -37.5 14
t-34.5 36.5t-9 37.5t39 17q9 -29 26.5 -42.5t38 -15t39.5 7t31 22t12.5 31.5t-15.5 35z" />
    <glyph glyph-name="ccircumflex" unicode="&#x109;" horiz-adv-x="450" 
d="M55 55q-23 35 -36 80t-15 92.5t8.5 94.5t34.5 88.5t62 73t92 48.5q7 3 12 8.5t10.5 11t11.5 7.5t15 -2q-3 -14 -2 -40.5t1.5 -57.5t0 -62.5t-6.5 -54t-18 -32.5t-33 2v147q-29 4 -53 -13.5t-41.5 -48.5t-28 -71.5t-12 -81.5t6 -79.5t25 -65t46.5 -37t70 2.5t95 54.5
t122 119.5q7 -30 -9 -65.5t-47 -68.5t-72 -58.5t-84.5 -36t-84 -1.5t-70.5 46zM137 581q-15 -15 -26.5 -17.5t-19 4t-10.5 20t1 30.5q12 12 28.5 31.5t34 40.5t34 41t27.5 33q4 4 11 10t17 9t23 1t28 -14q4 -12 17 -32t28 -42t28 -42t15 -32q4 -20 -11 -29t-38 -16
q-3 13 -6.5 21.5t-11.5 20.5t-23 32.5t-40 57.5z" />
    <glyph glyph-name="cdotaccent" unicode="&#x10b;" horiz-adv-x="450" 
d="M55 55q-23 35 -36 80t-15 92.5t8.5 94.5t34.5 88.5t62 73t92 48.5q7 3 12 8.5t10.5 11t11.5 7.5t15 -2q-3 -14 -2 -40.5t1.5 -57.5t0 -62.5t-6.5 -54t-18 -32.5t-33 2v147q-29 4 -53 -13.5t-41.5 -48.5t-28 -71.5t-12 -81.5t6 -79.5t25 -65t46.5 -37t70 2.5t95 54.5
t122 119.5q7 -30 -9 -65.5t-47 -68.5t-72 -58.5t-84.5 -36t-84 -1.5t-70.5 46zM214 603q-17 2 -27 14t-11 26t8 27.5t30 18.5q11 7 22 2t19 -15.5t11.5 -24.5t-0.5 -25.5t-16.5 -18.5t-35.5 -4z" />
    <glyph glyph-name="dcaron" unicode="&#x10f;" horiz-adv-x="647" 
d="M27 37q-18 78 -11.5 145.5t29 122t55.5 95.5t68.5 66t68 33t54 -3t27 -43t-14.5 -86q-15 55 -41 67.5t-55.5 -5t-59 -57.5t-51 -89t-31.5 -100t-1 -91q5 -33 24.5 -31t45.5 25t55 59.5t53.5 72t41.5 62.5t19 32q10 48 24 111t25 127.5t16.5 124t0 100.5t-25.5 57t-59 -6
q-6 18 1.5 34t22.5 26.5t33.5 14t34.5 -1.5q28 -9 37.5 -54.5t7.5 -112t-11.5 -148t-19.5 -162.5t-16.5 -155t-3 -126.5t21.5 -76t58 -3.5q-17 -44 -34.5 -54.5t-34 2.5t-30 42t-22 64t-11.5 68.5t3 55.5q-7 -5 -22 -26.5t-35.5 -49.5t-45.5 -59t-51 -55.5t-52.5 -39
t-50.5 -9.5q-2 0 -7.5 4.5t-11.5 10.5t-11 12t-7 10zM474 521q4 2 21 9.5t34.5 24t29.5 44t7 69.5q-18 -16 -43.5 -20t-48.5 2q-8 2 -13 8.5t-7 15t-1.5 17t3.5 14.5q4 8 12.5 16.5t19 16.5t21.5 14t20 8q40 5 60.5 -9t26.5 -39.5t0.5 -57.5t-18.5 -63t-30.5 -57
t-35.5 -38.5t-33.5 -8.5t-24.5 34z" />
    <glyph glyph-name="dcroat" unicode="&#x111;" horiz-adv-x="468" 
d="M27 37q-18 78 -11.5 145.5t29 122t55.5 95.5t68.5 66t68 33t54 -3t27 -43t-14.5 -86q-15 55 -41 67.5t-55.5 -5t-59 -57.5t-51 -89t-31.5 -100t-1 -91q5 -33 24.5 -31t45.5 25t55 59.5t53.5 72t41.5 62.5t19 32q10 48 24 111t25 127.5t16.5 124t0 100.5t-25.5 57t-59 -6
q-6 18 1.5 34t22.5 26.5t33.5 14t34.5 -1.5q28 -9 37.5 -54.5t7.5 -112t-11.5 -148t-19.5 -162.5t-16.5 -155t-3 -126.5t21.5 -76t58 -3.5q-17 -44 -34.5 -54.5t-34 2.5t-30 42t-22 64t-11.5 68.5t3 55.5q-7 -5 -22 -26.5t-35.5 -49.5t-45.5 -59t-51 -55.5t-52.5 -39
t-50.5 -9.5q-2 0 -7.5 4.5t-11.5 10.5t-11 12t-7 10zM194.908 567.532q-5.94629 -0.97168 -13.875 3.40137t-12.2227 12.1475q-4.29492 7.77441 -3.30371 18.4639q0.991211 10.6904 12.8838 22.3516l168.479 8.74609q8.58984 -1.94336 15.1963 -7.77441
q6.60742 -5.83008 8.91992 -13.6045t0 -16.5215q-2.3125 -8.74609 -12.2236 -15.5488z" />
    <glyph glyph-name="eacute" unicode="&#xe9;" horiz-adv-x="389" 
d="M364 179q14 -17 1.5 -41.5t-41 -48.5t-67.5 -45t-78.5 -31.5t-73.5 -7t-53 27.5q-36 88 -38.5 169.5t17.5 148t56.5 114.5t79 67.5t84.5 7t74 -65.5q12 -29 -3.5 -54t-50 -50t-82.5 -51.5t-100 -59.5q-19 -82 -12 -126t31 -60.5t59.5 -10.5t72.5 24.5t70.5 44t53.5 48.5z
M270 438q-18 35 -45.5 37.5t-54.5 -16.5t-48.5 -54t-27.5 -74q25 15 58 30.5t60.5 29.5t45 26t12.5 21zM191 585q-15 -15 -26.5 -17.5t-19 4t-10.5 20t1 30.5q12 12 20.5 23t16.5 22t16.5 22.5t19.5 24.5q4 4 11 10t17 9t23 1t28 -14z" />
    <glyph glyph-name="ebreve" unicode="&#x115;" horiz-adv-x="389" 
d="M364 179q14 -17 1.5 -41.5t-41 -48.5t-67.5 -45t-78.5 -31.5t-73.5 -7t-53 27.5q-36 88 -38.5 169.5t17.5 148t56.5 114.5t79 67.5t84.5 7t74 -65.5q12 -29 -3.5 -54t-50 -50t-82.5 -51.5t-100 -59.5q-19 -82 -12 -126t31 -60.5t59.5 -10.5t72.5 24.5t70.5 44t53.5 48.5z
M270 438q-18 35 -45.5 37.5t-54.5 -16.5t-48.5 -54t-27.5 -74q25 15 58 30.5t60.5 29.5t45 26t12.5 21zM125 712q13 -33 27.5 -46.5t29 -14t29 9t28.5 21t26.5 23t22.5 15.5q24 -10 23.5 -30t-17.5 -40t-45.5 -35t-60 -16t-61 17.5t-47.5 65.5q-4 12 -3 22t6.5 15t16 4
t25.5 -11z" />
    <glyph glyph-name="ecaron" unicode="&#x11b;" horiz-adv-x="389" 
d="M364 179q14 -17 1.5 -41.5t-41 -48.5t-67.5 -45t-78.5 -31.5t-73.5 -7t-53 27.5q-36 88 -38.5 169.5t17.5 148t56.5 114.5t79 67.5t84.5 7t74 -65.5q12 -29 -3.5 -54t-50 -50t-82.5 -51.5t-100 -59.5q-19 -82 -12 -126t31 -60.5t59.5 -10.5t72.5 24.5t70.5 44t53.5 48.5z
M270 438q-18 35 -45.5 37.5t-54.5 -16.5t-48.5 -54t-27.5 -74q25 15 58 30.5t60.5 29.5t45 26t12.5 21zM244 645q13 8 26 23t23.5 31.5t19 33t13.5 27.5q24 -5 40 -11t12 -20q-3 -9 -15.5 -26.5t-28 -37t-29 -37t-17.5 -26.5q-16 -8 -29.5 -9.5t-24 1t-18 6.5t-11.5 7
q-12 9 -29.5 26t-36.5 36t-37 36.5t-30 25.5q-8 24 9 35t48 -9z" />
    <glyph glyph-name="ecircumflex" unicode="&#xea;" horiz-adv-x="389" 
d="M364 179q14 -17 1.5 -41.5t-41 -48.5t-67.5 -45t-78.5 -31.5t-73.5 -7t-53 27.5q-36 88 -38.5 169.5t17.5 148t56.5 114.5t79 67.5t84.5 7t74 -65.5q12 -29 -3.5 -54t-50 -50t-82.5 -51.5t-100 -59.5q-19 -82 -12 -126t31 -60.5t59.5 -10.5t72.5 24.5t70.5 44t53.5 48.5z
M270 438q-18 35 -45.5 37.5t-54.5 -16.5t-48.5 -54t-27.5 -74q25 15 58 30.5t60.5 29.5t45 26t12.5 21zM102 589q-15 -15 -26.5 -17.5t-19 4t-10.5 20t1 30.5q12 12 28.5 31.5t34 40.5t34 41t27.5 33q4 4 11 10t17 9t23 1t28 -14q4 -12 17 -32t28 -42t28 -42t15 -32
q4 -20 -11 -29t-38 -16q-3 13 -6.5 21.5t-11.5 20.5t-23 32.5t-40 57.5z" />
    <glyph glyph-name="edieresis" unicode="&#xeb;" horiz-adv-x="389" 
d="M364 179q14 -17 1.5 -41.5t-41 -48.5t-67.5 -45t-78.5 -31.5t-73.5 -7t-53 27.5q-36 88 -38.5 169.5t17.5 148t56.5 114.5t79 67.5t84.5 7t74 -65.5q12 -29 -3.5 -54t-50 -50t-82.5 -51.5t-100 -59.5q-19 -82 -12 -126t31 -60.5t59.5 -10.5t72.5 24.5t70.5 44t53.5 48.5z
M270 438q-18 35 -45.5 37.5t-54.5 -16.5t-48.5 -54t-27.5 -74q25 15 58 30.5t60.5 29.5t45 26t12.5 21zM112 564q-17 2 -27 14t-11 26t8 27.5t30 18.5q11 6 22 1.5t19 -15t11.5 -24.5t-0.5 -25.5t-16.5 -18.5t-35.5 -4zM239 566q-17 2 -27 14t-11 26t8 27.5t30 18.5
q11 6 22 1.5t19 -15t11.5 -24.5t-0.5 -25.5t-16.5 -18.5t-35.5 -4z" />
    <glyph glyph-name="edotaccent" unicode="&#x117;" horiz-adv-x="389" 
d="M364 179q14 -17 1.5 -41.5t-41 -48.5t-67.5 -45t-78.5 -31.5t-73.5 -7t-53 27.5q-36 88 -38.5 169.5t17.5 148t56.5 114.5t79 67.5t84.5 7t74 -65.5q12 -29 -3.5 -54t-50 -50t-82.5 -51.5t-100 -59.5q-19 -82 -12 -126t31 -60.5t59.5 -10.5t72.5 24.5t70.5 44t53.5 48.5z
M270 438q-18 35 -45.5 37.5t-54.5 -16.5t-48.5 -54t-27.5 -74q25 15 58 30.5t60.5 29.5t45 26t12.5 21zM184 599q-17 2 -27 14t-11 26t8 27.5t30 18.5q11 7 22 2t19 -15.5t11.5 -24.5t-0.5 -25.5t-16.5 -18.5t-35.5 -4z" />
    <glyph glyph-name="emacron" unicode="&#x113;" horiz-adv-x="389" 
d="M364 179q14 -17 1.5 -41.5t-41 -48.5t-67.5 -45t-78.5 -31.5t-73.5 -7t-53 27.5q-36 88 -38.5 169.5t17.5 148t56.5 114.5t79 67.5t84.5 7t74 -65.5q12 -29 -3.5 -54t-50 -50t-82.5 -51.5t-100 -59.5q-19 -82 -12 -126t31 -60.5t59.5 -10.5t72.5 24.5t70.5 44t53.5 48.5z
M270 438q-18 35 -45.5 37.5t-54.5 -16.5t-48.5 -54t-27.5 -74q25 15 58 30.5t60.5 29.5t45 26t12.5 21zM53 580q-9 -1 -21 3.5t-18.5 12.5t-5 19t19.5 23l326 -1q13 -2 23 -8t13.5 -14t0 -17t-18.5 -16z" />
    <glyph glyph-name="egrave" unicode="&#xe8;" horiz-adv-x="389" 
d="M364 179q14 -17 1.5 -41.5t-41 -48.5t-67.5 -45t-78.5 -31.5t-73.5 -7t-53 27.5q-36 88 -38.5 169.5t17.5 148t56.5 114.5t79 67.5t84.5 7t74 -65.5q12 -29 -3.5 -54t-50 -50t-82.5 -51.5t-100 -59.5q-19 -82 -12 -126t31 -60.5t59.5 -10.5t72.5 24.5t70.5 44t53.5 48.5z
M270 438q-18 35 -45.5 37.5t-54.5 -16.5t-48.5 -54t-27.5 -74q25 15 58 30.5t60.5 29.5t45 26t12.5 21zM230 594q-20 18 -35 30t-28 24t-25 27.5t-27 39.5q-4 5 -0.5 14.5t11 16.5t17 9.5t18.5 -6.5l114 -123q3 -7 -1.5 -15t-12 -13.5t-16.5 -7t-15 3.5z" />
    <glyph glyph-name="eogonek" unicode="&#x119;" horiz-adv-x="389" 
d="M271 48q-11 -23 -19.5 -54.5t-2.5 -57.5t31.5 -39t81.5 0q-22 -40 -48.5 -54.5t-50 -9t-42.5 27.5t-26.5 54.5t-0.5 73.5t35 85zM364 179q14 -17 1.5 -41.5t-41 -48.5t-67.5 -45t-78.5 -31.5t-73.5 -7t-53 27.5q-36 88 -38.5 169.5t17.5 148t56.5 114.5t79 67.5t84.5 7
t74 -65.5q12 -29 -3.5 -54t-50 -50t-82.5 -51.5t-100 -59.5q-19 -82 -12 -126t31 -60.5t59.5 -10.5t72.5 24.5t70.5 44t53.5 48.5zM270 438q-18 35 -45.5 37.5t-54.5 -16.5t-48.5 -54t-27.5 -74q25 15 58 30.5t60.5 29.5t45 26t12.5 21z" />
    <glyph glyph-name="gbreve" unicode="&#x11f;" horiz-adv-x="500" 
d="M377 61q6 -167 -11 -289.5t-48 -206t-72 -131t-83.5 -64t-82.5 -5.5t-69 45t-42 87.5t-2.5 121t49.5 147t115 164.5q4 9 21 25t39.5 35t45.5 41t39 43.5t20.5 41t-9.5 35.5q-6 -7 -17.5 -22t-27.5 -33t-35 -36.5t-39.5 -32.5t-41.5 -21t-41 -2q-41 25 -57 65t-13.5 88
t21.5 98.5t48 96t66 81t76 52.5t77 11.5t70 -42.5q2 -5 3.5 -30t1.5 -60t-0.5 -74.5t-0.5 -73.5t-0.5 -57t-0.5 -24q17 5 39.5 11.5t39.5 8.5q7 1 16.5 1t14.5 -5.5t3.5 -17t-15.5 -33.5zM45 -553q43 -30 78.5 -29.5t64.5 24t52 66t40 95.5t28.5 113t17.5 119t7.5 112.5
t-1.5 93.5q-36 -24 -79.5 -65.5t-85 -92.5t-76.5 -109.5t-55 -116.5t-20 -112.5t29 -97.5zM314 424q-37 11 -71.5 -1.5t-63.5 -39.5t-52.5 -64.5t-38.5 -76.5t-20 -76.5t1.5 -63.5t26.5 -37t55 1q81 69 120.5 161.5t42.5 196.5zM147 667q13 -33 27.5 -46.5t29 -14t29 9
t28.5 21t26.5 23t22.5 15.5q24 -10 23.5 -30t-17.5 -40t-45.5 -35t-60 -16t-61 17.5t-47.5 65.5q-4 12 -3 22t6.5 15t16 4t25.5 -11z" />
    <glyph glyph-name="gcircumflex" unicode="&#x11d;" horiz-adv-x="500" 
d="M377 61q6 -167 -11 -289.5t-48 -206t-72 -131t-83.5 -64t-82.5 -5.5t-69 45t-42 87.5t-2.5 121t49.5 147t115 164.5q4 9 21 25t39.5 35t45.5 41t39 43.5t20.5 41t-9.5 35.5q-6 -7 -17.5 -22t-27.5 -33t-35 -36.5t-39.5 -32.5t-41.5 -21t-41 -2q-41 25 -57 65t-13.5 88
t21.5 98.5t48 96t66 81t76 52.5t77 11.5t70 -42.5q2 -5 3.5 -30t1.5 -60t-0.5 -74.5t-0.5 -73.5t-0.5 -57t-0.5 -24q17 5 39.5 11.5t39.5 8.5q7 1 16.5 1t14.5 -5.5t3.5 -17t-15.5 -33.5zM45 -553q43 -30 78.5 -29.5t64.5 24t52 66t40 95.5t28.5 113t17.5 119t7.5 112.5
t-1.5 93.5q-36 -24 -79.5 -65.5t-85 -92.5t-76.5 -109.5t-55 -116.5t-20 -112.5t29 -97.5zM314 424q-37 11 -71.5 -1.5t-63.5 -39.5t-52.5 -64.5t-38.5 -76.5t-20 -76.5t1.5 -63.5t26.5 -37t55 1q81 69 120.5 161.5t42.5 196.5zM162 548q-15 -15 -26.5 -17.5t-19 4t-10.5 20
t1 30.5q12 12 28.5 31.5t34 40.5t34 41t27.5 33q4 4 11 10t17 9t23 1t28 -14q4 -12 17 -32t28 -42t28 -42t15 -32q4 -20 -11 -29t-38 -16q-3 13 -6.5 21.5t-11.5 20.5t-23 32.5t-40 57.5z" />
    <glyph glyph-name="gcommaaccent" unicode="&#x123;" horiz-adv-x="500" 
d="M377 61q6 -167 -11 -289.5t-48 -206t-72 -131t-83.5 -64t-82.5 -5.5t-69 45t-42 87.5t-2.5 121t49.5 147t115 164.5q4 9 21 25t39.5 35t45.5 41t39 43.5t20.5 41t-9.5 35.5q-6 -7 -17.5 -22t-27.5 -33t-35 -36.5t-39.5 -32.5t-41.5 -21t-41 -2q-41 25 -57 65t-13.5 88
t21.5 98.5t48 96t66 81t76 52.5t77 11.5t70 -42.5q2 -5 3.5 -30t1.5 -60t-0.5 -74.5t-0.5 -73.5t-0.5 -57t-0.5 -24q17 5 39.5 11.5t39.5 8.5q7 1 16.5 1t14.5 -5.5t3.5 -17t-15.5 -33.5zM45 -553q43 -30 78.5 -29.5t64.5 24t52 66t40 95.5t28.5 113t17.5 119t7.5 112.5
t-1.5 93.5q-36 -24 -79.5 -65.5t-85 -92.5t-76.5 -109.5t-55 -116.5t-20 -112.5t29 -97.5zM314 424q-37 11 -71.5 -1.5t-63.5 -39.5t-52.5 -64.5t-38.5 -76.5t-20 -76.5t1.5 -63.5t26.5 -37t55 1q81 69 120.5 161.5t42.5 196.5zM339 577q-9 -28 -24.5 -32t-33.5 8t-35.5 36
t-30.5 53.5t-19 59.5t0.5 54t27 37t60.5 9q9 -2 20 -7.5t21.5 -13t19 -16t12.5 -15.5q3 -5 3.5 -13t-1.5 -16t-7 -14.5t-13 -8.5q-23 -5 -48.5 -1.5t-43.5 18.5q-5 -39 7 -65t29.5 -41.5t34.5 -22.5t21 -9z" />
    <glyph glyph-name="gdotaccent" unicode="&#x121;" horiz-adv-x="500" 
d="M377 61q6 -167 -11 -289.5t-48 -206t-72 -131t-83.5 -64t-82.5 -5.5t-69 45t-42 87.5t-2.5 121t49.5 147t115 164.5q4 9 21 25t39.5 35t45.5 41t39 43.5t20.5 41t-9.5 35.5q-6 -7 -17.5 -22t-27.5 -33t-35 -36.5t-39.5 -32.5t-41.5 -21t-41 -2q-41 25 -57 65t-13.5 88
t21.5 98.5t48 96t66 81t76 52.5t77 11.5t70 -42.5q2 -5 3.5 -30t1.5 -60t-0.5 -74.5t-0.5 -73.5t-0.5 -57t-0.5 -24q17 5 39.5 11.5t39.5 8.5q7 1 16.5 1t14.5 -5.5t3.5 -17t-15.5 -33.5zM45 -553q43 -30 78.5 -29.5t64.5 24t52 66t40 95.5t28.5 113t17.5 119t7.5 112.5
t-1.5 93.5q-36 -24 -79.5 -65.5t-85 -92.5t-76.5 -109.5t-55 -116.5t-20 -112.5t29 -97.5zM314 424q-37 11 -71.5 -1.5t-63.5 -39.5t-52.5 -64.5t-38.5 -76.5t-20 -76.5t1.5 -63.5t26.5 -37t55 1q81 69 120.5 161.5t42.5 196.5zM231 558q-17 2 -27 14t-11 26t8 27.5t30 18.5
q11 7 22 2t19 -15.5t11.5 -24.5t-0.5 -25.5t-16.5 -18.5t-35.5 -4z" />
    <glyph glyph-name="hbar" unicode="&#x127;" horiz-adv-x="525" 
d="M59 4q3 43 6 83.5t5.5 83t5 89.5t4 103.5t2 125t0.5 154.5q-3 42 -7.5 83.5t-15.5 64t-30 19t-51 -51.5q-14 15 -6 36.5t26 38.5t42 26.5t42 0.5q23 -14 36 -44t18 -69t4 -84.5t-4 -91.5t-7.5 -89t-5.5 -77q56 63 97.5 86.5t71 17.5t49 -35.5t31.5 -72t17.5 -92.5
t6.5 -97t0 -85t-2 -57l97 65q26 6 28 -5.5t-10.5 -30t-35.5 -39t-47.5 -33t-47 -13t-34.5 22.5q1 32 1 75.5t-2 89.5t-6 91t-10.5 81.5t-15 60.5t-20.5 28q-40 -4 -68.5 -23.5t-48.5 -51t-31.5 -73t-17 -88t-7 -96t0.5 -98.5q-3 -11 -10 -20t-16 -13.5t-18.5 -4t-15.5 8.5z
M22.1338 544.249q-6.63965 -0.867188 -15.4932 3.0332q-8.85352 3.89941 -13.6494 10.833q-4.7959 6.93262 -3.68945 16.4658t14.3877 19.9326l240.52 -0.866211q9.5918 -1.7334 16.9697 -6.93359q7.37793 -5.19922 9.95996 -12.1328q2.58203 -6.93262 0 -14.7324
t-13.6484 -13.8662z" />
    <glyph glyph-name="hcircumflex" unicode="&#x125;" horiz-adv-x="525" 
d="M59 4q3 43 6 83.5t5.5 83t5 89.5t4 103.5t2 125t0.5 154.5q-3 42 -7.5 83.5t-15.5 64t-30 19t-51 -51.5q-14 15 -6 36.5t26 38.5t42 26.5t42 0.5q23 -14 36 -44t18 -69t4 -84.5t-4 -91.5t-7.5 -89t-5.5 -77q56 63 97.5 86.5t71 17.5t49 -35.5t31.5 -72t17.5 -92.5
t6.5 -97t0 -85t-2 -57l97 65q26 6 28 -5.5t-10.5 -30t-35.5 -39t-47.5 -33t-47 -13t-34.5 22.5q1 32 1 75.5t-2 89.5t-6 91t-10.5 81.5t-15 60.5t-20.5 28q-40 -4 -68.5 -23.5t-48.5 -51t-31.5 -73t-17 -88t-7 -96t0.5 -98.5q-3 -11 -10 -20t-16 -13.5t-18.5 -4t-15.5 8.5z
M231 658q-15 -15 -26.5 -17.5t-19 4t-10.5 20t1 30.5q12 12 28.5 31.5t34 40.5t34 41t27.5 33q4 4 11 10t17 9t23 1t28 -14q4 -12 17 -32t28 -42t28 -42t15 -32q4 -20 -11 -29t-38 -16q-3 13 -6.5 21.5t-11.5 20.5t-23 32.5t-40 57.5z" />
    <glyph glyph-name="iacute" unicode="&#xed;" horiz-adv-x="283" 
d="M77 57q-5 55 0 115t13.5 114t15.5 96t6 62t-15 12t-48 -55l-18 18q-7 6 -1 20.5t19.5 30.5t32 30.5t37 22t35.5 4t27 -22.5q-1 -26 -8.5 -66t-16.5 -86t-17.5 -93t-12.5 -87t-1.5 -68t16 -35.5t39.5 10t70 68.5q24 -5 23 -21.5t-17.5 -36.5t-43.5 -38t-54.5 -26.5
t-50 -2.5t-30.5 35zM125 561q-15 -15 -26.5 -17.5t-19 4t-10.5 20t1 30.5q12 12 20.5 23t16.5 22t16.5 22.5t19.5 24.5q4 4 11 10t17 9t23 1t28 -14z" />
    <glyph glyph-name="ibreve" horiz-adv-x="283" 
d="M77 57q-5 55 0 115t13.5 114t15.5 96t6 62t-15 12t-48 -55l-18 18q-7 6 -1 20.5t19.5 30.5t32 30.5t37 22t35.5 4t27 -22.5q-1 -26 -8.5 -66t-16.5 -86t-17.5 -93t-12.5 -87t-1.5 -68t16 -35.5t39.5 10t70 68.5q24 -5 23 -21.5t-17.5 -36.5t-43.5 -38t-54.5 -26.5
t-50 -2.5t-30.5 35zM40 667q13 -33 27.5 -46.5t29 -14t29 9t28.5 21t26.5 23t22.5 15.5q24 -10 23.5 -30t-17.5 -40t-45.5 -35t-60 -16t-61 17.5t-47.5 65.5q-4 12 -3 22t6.5 15t16 4t25.5 -11z" />
    <glyph glyph-name="icircumflex" unicode="&#xee;" horiz-adv-x="283" 
d="M77 57q-5 55 0 115t13.5 114t15.5 96t6 62t-15 12t-48 -55l-18 18q-7 6 -1 20.5t19.5 30.5t32 30.5t37 22t35.5 4t27 -22.5q-1 -26 -8.5 -66t-16.5 -86t-17.5 -93t-12.5 -87t-1.5 -68t16 -35.5t39.5 10t70 68.5q24 -5 23 -21.5t-17.5 -36.5t-43.5 -38t-54.5 -26.5
t-50 -2.5t-30.5 35zM55 548q-15 -15 -26.5 -17.5t-19 4t-10.5 20t1 30.5q12 12 28.5 31.5t34 40.5t34 41t27.5 33q4 4 11 10t17 9t23 1t28 -14q4 -12 17 -32t28 -42t28 -42t15 -32q4 -20 -11 -29t-38 -16q-3 13 -6.5 21.5t-11.5 20.5t-23 32.5t-40 57.5z" />
    <glyph glyph-name="idieresis" unicode="&#xef;" horiz-adv-x="283" 
d="M77 57q-5 55 0 115t13.5 114t15.5 96t6 62t-15 12t-48 -55l-18 18q-7 6 -1 20.5t19.5 30.5t32 30.5t37 22t35.5 4t27 -22.5q-1 -26 -8.5 -66t-16.5 -86t-17.5 -93t-12.5 -87t-1.5 -68t16 -35.5t39.5 10t70 68.5q24 -5 23 -21.5t-17.5 -36.5t-43.5 -38t-54.5 -26.5
t-50 -2.5t-30.5 35zM61 564q-17 2 -27 14t-11 26t8 27.5t30 18.5q11 6 22 1.5t19 -15t11.5 -24.5t-0.5 -25.5t-16.5 -18.5t-35.5 -4zM188 566q-17 2 -27 14t-11 26t8 27.5t30 18.5q11 6 22 1.5t19 -15t11.5 -24.5t-0.5 -25.5t-16.5 -18.5t-35.5 -4z" />
    <glyph glyph-name="igrave" unicode="&#xec;" horiz-adv-x="283" 
d="M77 57q-5 55 0 115t13.5 114t15.5 96t6 62t-15 12t-48 -55l-18 18q-7 6 -1 20.5t19.5 30.5t32 30.5t37 22t35.5 4t27 -22.5q-1 -26 -8.5 -66t-16.5 -86t-17.5 -93t-12.5 -87t-1.5 -68t16 -35.5t39.5 10t70 68.5q24 -5 23 -21.5t-17.5 -36.5t-43.5 -38t-54.5 -26.5
t-50 -2.5t-30.5 35zM178 549q-20 18 -35 30t-28 24t-25 27.5t-27 39.5q-4 5 -0.5 14.5t11 16.5t17 9.5t18.5 -6.5l114 -123q3 -7 -1.5 -15t-12 -13.5t-16.5 -7t-15 3.5z" />
    <glyph glyph-name="imacron" unicode="&#x12b;" horiz-adv-x="283" 
d="M77 57q-5 55 0 115t13.5 114t15.5 96t6 62t-15 12t-48 -55l-18 18q-7 6 -1 20.5t19.5 30.5t32 30.5t37 22t35.5 4t27 -22.5q-1 -26 -8.5 -66t-16.5 -86t-17.5 -93t-12.5 -87t-1.5 -68t16 -35.5t39.5 10t70 68.5q24 -5 23 -21.5t-17.5 -36.5t-43.5 -38t-54.5 -26.5
t-50 -2.5t-30.5 35zM0 547q-9 -1 -21 3.5t-18.5 12.5t-5 19t19.5 23l326 -1q13 -2 23 -8t13.5 -14t0 -17t-18.5 -16z" />
    <glyph glyph-name="iogonek" unicode="&#x12f;" horiz-adv-x="283" 
d="M77 57q-5 55 0 115t13.5 114t15.5 96t6 62t-15 12t-48 -55l-18 18q-7 6 -1 20.5t19.5 30.5t32 30.5t37 22t35.5 4t27 -22.5q-1 -26 -8.5 -66t-16.5 -86t-17.5 -93t-12.5 -87t-1.5 -68t16 -35.5t39.5 10t70 68.5q24 -5 23 -21.5t-17.5 -36.5t-43.5 -38t-54.5 -26.5
t-50 -2.5t-30.5 35zM98 655q6 19 21.5 25t29.5 1t21 -20.5t-3 -38.5q-19 -17 -34.5 -20.5t-25 2.5t-12.5 19.5t3 31.5zM165 8q-11 -23 -19.5 -54.5t-2.5 -57.5t31.5 -39t81.5 0q-22 -40 -47.5 -53t-48 -5.5t-39.5 32.5t-22.5 60t2 77.5t35.5 86.5z" />
    <glyph glyph-name="itilde" unicode="&#x129;" horiz-adv-x="283" 
d="M77 57q-5 55 0 115t13.5 114t15.5 96t6 62t-15 12t-48 -55l-18 18q-7 6 -1 20.5t19.5 30.5t32 30.5t37 22t35.5 4t27 -22.5q-1 -26 -8.5 -66t-16.5 -86t-17.5 -93t-12.5 -87t-1.5 -68t16 -35.5t39.5 10t70 68.5q24 -5 23 -21.5t-17.5 -36.5t-43.5 -38t-54.5 -26.5
t-50 -2.5t-30.5 35zM-87 564q27 53 59 87t64.5 46t63 1.5t53.5 -46.5q15 -32 31 -46t32 -15t31.5 8t30 21.5t27.5 26.5t24 24q2 2 9.5 2t9.5 -2q6 -8 -1.5 -29.5t-25 -44.5t-41.5 -41.5t-51 -22.5t-54.5 13.5t-50.5 67.5q-20 32 -39 40.5t-39.5 -2t-44 -37.5t-53.5 -67
q-1 1 -6.5 3t-11.5 4.5t-11 5t-6 3.5z" />
    <glyph glyph-name="dotlessj" unicode="&#x237;" horiz-adv-x="373" 
d="M-116 -594q-61 65 -77.5 129.5t-1.5 123.5t56.5 111t97 91.5t119.5 64t125 30.5q2 47 0 109.5t-6 127t-9 123.5t-8 98q-29 -2 -49 -16t-32 -35.5t-15 -49t2 -55.5l-57 13q-5 46 14 88t50.5 76t71 58t75 33t62 0.5t33.5 -37.5q-2 1 -12.5 -3.5t-23 -21.5t-25 -50.5
t-19 -92.5t-5.5 -146.5t16 -211.5l120 2q11 -12 10 -22.5t-10.5 -19.5t-25 -15.5t-32.5 -11t-33 -6.5t-27 -1q-2 -29 -9 -71t-20 -90t-32 -98t-43 -94.5t-54 -81t-65 -56t-75 -19.5t-86 27zM-98 -537q39 -39 78 -33t74.5 40.5t65 90t50 115t29.5 115t4 91.5q-48 5 -100 -11
t-98 -47.5t-83 -74t-54 -91t-11 -99t45 -96.5z" />
    <glyph glyph-name="jcircumflex" unicode="&#x135;" horiz-adv-x="373" 
d="M-116 -594q-61 65 -77.5 129.5t-1.5 123.5t56.5 111t97 91.5t119.5 64t125 30.5q2 47 0 109.5t-6 127t-9 123.5t-8 98q-29 -2 -49 -16t-32 -35.5t-15 -49t2 -55.5l-57 13q-5 46 14 88t50.5 76t71 58t75 33t62 0.5t33.5 -37.5q-2 1 -12.5 -3.5t-23 -21.5t-25 -50.5
t-19 -92.5t-5.5 -146.5t16 -211.5l120 2q11 -12 10 -22.5t-10.5 -19.5t-25 -15.5t-32.5 -11t-33 -6.5t-27 -1q-2 -29 -9 -71t-20 -90t-32 -98t-43 -94.5t-54 -81t-65 -56t-75 -19.5t-86 27zM-98 -537q39 -39 78 -33t74.5 40.5t65 90t50 115t29.5 115t4 91.5q-48 5 -100 -11
t-98 -47.5t-83 -74t-54 -91t-11 -99t45 -96.5zM119 589q-15 -15 -26.5 -17.5t-19 4t-10.5 20t1 30.5q12 12 28.5 31.5t34 40.5t34 41t27.5 33q4 4 11 10t17 9t23 1t28 -14q4 -12 17 -32t28 -42t28 -42t15 -32q4 -20 -11 -29t-38 -16q-3 13 -6.5 21.5t-11.5 20.5t-23 32.5
t-40 57.5z" />
    <glyph glyph-name="kcommaaccent" unicode="&#x137;" horiz-adv-x="565" 
d="M66 803l-128 -92v37q53 63 88.5 89t57 24t31.5 -27t13 -64.5t0.5 -88t-5.5 -97.5t-5 -94t1 -76q43 46 89.5 70.5t89.5 31t78 -2.5t55 -28t21.5 -46t-22.5 -56.5t-77.5 -60t-143.5 -56.5q-6 -5 -3 -25.5t15 -46.5t34.5 -52.5t56.5 -43.5t79.5 -20.5t104.5 16.5q3 3 17.5 1
t23.5 -9.5t2.5 -21.5t-46.5 -33q-85 -14 -149 1t-109.5 54t-74 97.5t-41.5 131.5q-5 -16 -8.5 -41.5t-5.5 -55t-3 -61t-1.5 -59.5t-0.5 -49.5t-1 -30.5q-2 -11 -9.5 -16.5t-17.5 -6t-19.5 4t-15.5 13.5zM164 348q-8 -4 4.5 -6.5t36.5 -1.5t54.5 6.5t57.5 17t46.5 30.5
t21.5 48q-7 17 -27 21t-46 -1t-54 -17t-50 -28t-35 -34.5t-9 -34.5zM274 -358q-14 -6 -32.5 -12t-35 -6t-29 8t-13.5 29q31 3 67.5 16t64 36t39.5 55.5t-6 75.5q2 -12 -14 -19.5t-38 -9t-44 4t-33 20t-4.5 38t41.5 58.5q36 24 66 16t50.5 -35.5t28.5 -67.5t0.5 -80.5
t-34 -75.5t-74.5 -51z" />
    <glyph glyph-name="lacute" unicode="&#x13a;" horiz-adv-x="274" 
d="M59 55q23 161 39.5 278t26 197.5t13 128t1 68.5t-10.5 19.5t-20.5 -18t-30 -44.5t-38.5 -61q-2 -2 -9 -2t-9 2q-4 10 2 32.5t19 48t30 51.5t35.5 43.5t35 23t28.5 -9.5t17.5 -54.5t-0.5 -110.5q-3 -19 -8 -59t-12 -92t-15.5 -111t-16 -115.5t-14.5 -106t-11 -81.5
q6 -15 18 -15t28.5 12.5t36.5 36.5t43 56q14 -26 6 -54t-28 -52.5t-47 -42t-51.5 -22t-41.5 7t-16 46.5zM125 868q-15 -15 -26.5 -17.5t-19 4t-10.5 20t1 30.5q12 12 20.5 23t16.5 22t16.5 22.5t19.5 24.5q4 4 11 10t17 9t23 1t28 -14z" />
    <glyph glyph-name="lcaron" unicode="&#x13e;" horiz-adv-x="414" 
d="M59 55q23 161 39.5 278t26 197.5t13 128t1 68.5t-10.5 19.5t-20.5 -18t-30 -44.5t-38.5 -61q-2 -2 -9 -2t-9 2q-4 10 2 32.5t19 48t30 51.5t35.5 43.5t35 23t28.5 -9.5t17.5 -54.5t-0.5 -110.5q-3 -19 -8 -59t-12 -92t-15.5 -111t-16 -115.5t-14.5 -106t-11 -81.5
q6 -15 18 -15t28.5 12.5t36.5 36.5t43 56q14 -26 6 -54t-28 -52.5t-47 -42t-51.5 -22t-41.5 7t-16 46.5zM252 651q4 2 21 9.5t34.5 24t29.5 44t7 69.5q-18 -16 -43.5 -20t-48.5 2q-8 2 -13 8.5t-7 15t-1.5 17t3.5 14.5q4 8 12.5 16.5t19 16.5t21.5 14t20 8q40 5 60.5 -9
t26.5 -39.5t0.5 -57.5t-18.5 -63t-30.5 -57t-35.5 -38.5t-33.5 -8.5t-24.5 34z" />
    <glyph glyph-name="lcommaaccent" unicode="&#x13c;" horiz-adv-x="274" 
d="M59 55q23 161 39.5 278t26 197.5t13 128t1 68.5t-10.5 19.5t-20.5 -18t-30 -44.5t-38.5 -61q-2 -2 -9 -2t-9 2q-4 10 2 32.5t19 48t30 51.5t35.5 43.5t35 23t28.5 -9.5t17.5 -54.5t-0.5 -110.5q-3 -19 -8 -59t-12 -92t-15.5 -111t-16 -115.5t-14.5 -106t-11 -81.5
q6 -15 18 -15t28.5 12.5t36.5 36.5t43 56q14 -26 6 -54t-28 -52.5t-47 -42t-51.5 -22t-41.5 7t-16 46.5zM130 -358q-14 -6 -32.5 -12t-35 -6t-29 8t-13.5 29q31 3 67.5 16t64 36t39.5 55.5t-6 75.5q2 -12 -14 -19.5t-38 -9t-44 4t-33 20t-4.5 38t41.5 58.5q36 24 66 16
t50.5 -35.5t28.5 -67.5t0.5 -80.5t-34 -75.5t-74.5 -51z" />
    <glyph glyph-name="ldot" unicode="&#x140;" horiz-adv-x="274" 
d="M59 55q23 161 39.5 278t26 197.5t13 128t1 68.5t-10.5 19.5t-20.5 -18t-30 -44.5t-38.5 -61q-2 -2 -9 -2t-9 2q-4 10 2 32.5t19 48t30 51.5t35.5 43.5t35 23t28.5 -9.5t17.5 -54.5t-0.5 -110.5q-3 -19 -8 -59t-12 -92t-15.5 -111t-16 -115.5t-14.5 -106t-11 -81.5
q6 -15 18 -15t28.5 12.5t36.5 36.5t43 56q14 -26 6 -54t-28 -52.5t-47 -42t-51.5 -22t-41.5 7t-16 46.5zM253 366q-17 2 -27 14t-11 26t8 27.5t30 18.5q11 7 22 2t19 -15.5t11.5 -24.5t-0.5 -25.5t-16.5 -18.5t-35.5 -4z" />
    <glyph glyph-name="lslash" unicode="&#x142;" horiz-adv-x="274" 
d="M35 312q-9 -1 -21 3.5t-18.5 12.5t-5 19t19.5 23l250 58q13 -2 23 -8t13.5 -14t0 -17t-18.5 -16zM59 55q23 161 39.5 278t26 197.5t13 128t1 68.5t-10.5 19.5t-20.5 -18t-30 -44.5t-38.5 -61q-2 -2 -9 -2t-9 2q-4 10 2 32.5t19 48t30 51.5t35.5 43.5t35 23t28.5 -9.5
t17.5 -54.5t-0.5 -110.5q-3 -19 -8 -59t-12 -92t-15.5 -111t-16 -115.5t-14.5 -106t-11 -81.5q6 -15 18 -15t28.5 12.5t36.5 36.5t43 56q14 -26 6 -54t-28 -52.5t-47 -42t-51.5 -22t-41.5 7t-16 46.5z" />
    <glyph glyph-name="nacute" unicode="&#x144;" 
d="M119 12q6 44 10 97.5t1 110t-15 111t-37 99.5l-62 -115q-17 5 -19.5 25.5t4.5 47t21.5 53.5t32 46t35.5 25t33 -11l47 -144q38 74 70.5 108t60 38.5t49.5 -16t38 -56.5t27 -82.5t16 -94.5t4 -93t-7 -76q14 -23 30.5 -17.5t34.5 26.5t36.5 51t35.5 57q13 -13 14.5 -33
t-9 -44t-33 -51t-58.5 -54q-38 -21 -59 -2.5t-32 60t-15.5 97t-8.5 108.5t-11.5 95t-24.5 56q-29 9 -48.5 -6.5t-33 -47t-22.5 -74.5t-16.5 -87.5t-14.5 -87t-16.5 -72.5t-23 -44t-34.5 -3zM279 561q-15 -15 -26.5 -17.5t-19 4t-10.5 20t1 30.5q12 12 20.5 23t16.5 22
t16.5 22.5t19.5 24.5q4 4 11 10t17 9t23 1t28 -14z" />
    <glyph glyph-name="napostrophe" unicode="&#x149;" 
d="M119 12q6 44 10 97.5t1 110t-15 111t-37 99.5l-62 -115q-17 5 -19.5 25.5t4.5 47t21.5 53.5t32 46t35.5 25t33 -11l47 -144q38 74 70.5 108t60 38.5t49.5 -16t38 -56.5t27 -82.5t16 -94.5t4 -93t-7 -76q14 -23 30.5 -17.5t34.5 26.5t36.5 51t35.5 57q13 -13 14.5 -33
t-9 -44t-33 -51t-58.5 -54q-38 -21 -59 -2.5t-32 60t-15.5 97t-8.5 108.5t-11.5 95t-24.5 56q-29 9 -48.5 -6.5t-33 -47t-22.5 -74.5t-16.5 -87.5t-14.5 -87t-16.5 -72.5t-23 -44t-34.5 -3zM142.469 371.719q-9.97363 -4.35645 -23.1514 -8.71191
q-13.1787 -4.35645 -24.9326 -4.35645q-11.7529 0 -20.6572 5.80859q-8.9043 5.80762 -9.61719 21.0537q22.083 2.17871 48.083 11.6162q26.001 9.43848 45.5898 26.1367q19.5898 16.6982 28.1377 40.2939t-4.27344 54.8135q1.42383 -8.71191 -9.97363 -14.1572
q-11.3975 -5.44434 -27.0684 -6.53418q-15.6719 -1.08887 -31.3428 2.9043q-15.6719 3.99316 -23.5078 14.5205t-3.20508 27.5889q4.62988 17.0605 29.5615 42.4717q25.6445 17.4238 47.0146 11.6162q21.3701 -5.80859 35.9736 -25.7734q14.6025 -19.9658 20.3018 -49.0059
q5.69824 -29.041 0.355469 -58.4443q-5.3418 -29.4033 -24.2188 -54.8145q-18.8779 -25.4102 -53.0693 -37.0264z" />
    <glyph glyph-name="ncaron" unicode="&#x148;" 
d="M119 12q6 44 10 97.5t1 110t-15 111t-37 99.5l-62 -115q-17 5 -19.5 25.5t4.5 47t21.5 53.5t32 46t35.5 25t33 -11l47 -144q38 74 70.5 108t60 38.5t49.5 -16t38 -56.5t27 -82.5t16 -94.5t4 -93t-7 -76q14 -23 30.5 -17.5t34.5 26.5t36.5 51t35.5 57q13 -13 14.5 -33
t-9 -44t-33 -51t-58.5 -54q-38 -21 -59 -2.5t-32 60t-15.5 97t-8.5 108.5t-11.5 95t-24.5 56q-29 9 -48.5 -6.5t-33 -47t-22.5 -74.5t-16.5 -87.5t-14.5 -87t-16.5 -72.5t-23 -44t-34.5 -3zM317 596q13 8 26 23t23.5 31.5t19 33t13.5 27.5q24 -5 40 -11t12 -20
q-3 -9 -15.5 -26.5t-28 -37t-29 -37t-17.5 -26.5q-16 -8 -29.5 -9.5t-24 1t-18 6.5t-11.5 7q-12 9 -29.5 26t-36.5 36t-37 36.5t-30 25.5q-8 24 9 35t48 -9z" />
    <glyph glyph-name="ncommaaccent" unicode="&#x146;" 
d="M119 12q6 44 10 97.5t1 110t-15 111t-37 99.5l-62 -115q-17 5 -19.5 25.5t4.5 47t21.5 53.5t32 46t35.5 25t33 -11l47 -144q38 74 70.5 108t60 38.5t49.5 -16t38 -56.5t27 -82.5t16 -94.5t4 -93t-7 -76q14 -23 30.5 -17.5t34.5 26.5t36.5 51t35.5 57q13 -13 14.5 -33
t-9 -44t-33 -51t-58.5 -54q-38 -21 -59 -2.5t-32 60t-15.5 97t-8.5 108.5t-11.5 95t-24.5 56q-29 9 -48.5 -6.5t-33 -47t-22.5 -74.5t-16.5 -87.5t-14.5 -87t-16.5 -72.5t-23 -44t-34.5 -3zM287 -358q-14 -6 -32.5 -12t-35 -6t-29 8t-13.5 29q31 3 67.5 16t64 36t39.5 55.5
t-6 75.5q2 -12 -14 -19.5t-38 -9t-44 4t-33 20t-4.5 38t41.5 58.5q36 24 66 16t50.5 -35.5t28.5 -67.5t0.5 -80.5t-34 -75.5t-74.5 -51z" />
    <glyph glyph-name="ntilde" unicode="&#xf1;" 
d="M119 12q6 44 10 97.5t1 110t-15 111t-37 99.5l-62 -115q-17 5 -19.5 25.5t4.5 47t21.5 53.5t32 46t35.5 25t33 -11l47 -144q38 74 70.5 108t60 38.5t49.5 -16t38 -56.5t27 -82.5t16 -94.5t4 -93t-7 -76q14 -23 30.5 -17.5t34.5 26.5t36.5 51t35.5 57q13 -13 14.5 -33
t-9 -44t-33 -51t-58.5 -54q-38 -21 -59 -2.5t-32 60t-15.5 97t-8.5 108.5t-11.5 95t-24.5 56q-29 9 -48.5 -6.5t-33 -47t-22.5 -74.5t-16.5 -87.5t-14.5 -87t-16.5 -72.5t-23 -44t-34.5 -3zM65 564q27 53 59 87t64.5 46t63 1.5t53.5 -46.5q15 -32 31 -46t32 -15t31.5 8
t30 21.5t27.5 26.5t24 24q2 2 9.5 2t9.5 -2q6 -8 -1.5 -29.5t-25 -44.5t-41.5 -41.5t-51 -22.5t-54.5 13.5t-50.5 67.5q-20 32 -39 40.5t-39.5 -2t-44 -37.5t-53.5 -67q-1 1 -6.5 3t-11.5 4.5t-11 5t-6 3.5z" />
    <glyph glyph-name="oacute" unicode="&#xf3;" horiz-adv-x="332" 
d="M80 8q-21 4 -34.5 31.5t-19 69.5t-4 93t10.5 102.5t24.5 97.5t37.5 78t50.5 45t63.5 -2q40 -19 65.5 -53t37 -77t10.5 -91t-12.5 -94t-33 -87t-51.5 -69.5t-66.5 -41t-78.5 -2.5zM101 67q42 -3 75.5 24.5t55 70.5t31 95t4.5 97.5t-26.5 78.5t-60.5 38q-14 6 -28 -8
t-27 -40.5t-23.5 -62.5t-18 -74.5t-11 -76.5t-2 -68.5t9 -50.5t21.5 -23zM158 586q-15 -15 -26.5 -17.5t-19 4t-10.5 20t1 30.5q12 12 20.5 23t16.5 22t16.5 22.5t19.5 24.5q4 4 11 10t17 9t23 1t28 -14z" />
    <glyph glyph-name="obreve" unicode="&#x14f;" horiz-adv-x="332" 
d="M80 8q-21 4 -34.5 31.5t-19 69.5t-4 93t10.5 102.5t24.5 97.5t37.5 78t50.5 45t63.5 -2q40 -19 65.5 -53t37 -77t10.5 -91t-12.5 -94t-33 -87t-51.5 -69.5t-66.5 -41t-78.5 -2.5zM101 67q42 -3 75.5 24.5t55 70.5t31 95t4.5 97.5t-26.5 78.5t-60.5 38q-14 6 -28 -8
t-27 -40.5t-23.5 -62.5t-18 -74.5t-11 -76.5t-2 -68.5t9 -50.5t21.5 -23zM101 687q13 -33 27.5 -46.5t29 -14t29 9t28.5 21t26.5 23t22.5 15.5q24 -10 23.5 -30t-17.5 -40t-45.5 -35t-60 -16t-61 17.5t-47.5 65.5q-4 12 -3 22t6.5 15t16 4t25.5 -11z" />
    <glyph glyph-name="ocircumflex" unicode="&#xf4;" horiz-adv-x="332" 
d="M80 8q-21 4 -34.5 31.5t-19 69.5t-4 93t10.5 102.5t24.5 97.5t37.5 78t50.5 45t63.5 -2q40 -19 65.5 -53t37 -77t10.5 -91t-12.5 -94t-33 -87t-51.5 -69.5t-66.5 -41t-78.5 -2.5zM101 67q42 -3 75.5 24.5t55 70.5t31 95t4.5 97.5t-26.5 78.5t-60.5 38q-14 6 -28 -8
t-27 -40.5t-23.5 -62.5t-18 -74.5t-11 -76.5t-2 -68.5t9 -50.5t21.5 -23zM78 548q-15 -15 -26.5 -17.5t-19 4t-10.5 20t1 30.5q12 12 28.5 31.5t34 40.5t34 41t27.5 33q4 4 11 10t17 9t23 1t28 -14q4 -12 17 -32t28 -42t28 -42t15 -32q4 -20 -11 -29t-38 -16
q-3 13 -6.5 21.5t-11.5 20.5t-23 32.5t-40 57.5z" />
    <glyph glyph-name="odieresis" unicode="&#xf6;" horiz-adv-x="332" 
d="M80 8q-21 4 -34.5 31.5t-19 69.5t-4 93t10.5 102.5t24.5 97.5t37.5 78t50.5 45t63.5 -2q40 -19 65.5 -53t37 -77t10.5 -91t-12.5 -94t-33 -87t-51.5 -69.5t-66.5 -41t-78.5 -2.5zM101 67q42 -3 75.5 24.5t55 70.5t31 95t4.5 97.5t-26.5 78.5t-60.5 38q-14 6 -28 -8
t-27 -40.5t-23.5 -62.5t-18 -74.5t-11 -76.5t-2 -68.5t9 -50.5t21.5 -23zM84 564q-17 2 -27 14t-11 26t8 27.5t30 18.5q11 6 22 1.5t19 -15t11.5 -24.5t-0.5 -25.5t-16.5 -18.5t-35.5 -4zM211 566q-17 2 -27 14t-11 26t8 27.5t30 18.5q11 6 22 1.5t19 -15t11.5 -24.5
t-0.5 -25.5t-16.5 -18.5t-35.5 -4z" />
    <glyph glyph-name="ograve" unicode="&#xf2;" horiz-adv-x="332" 
d="M80 8q-21 4 -34.5 31.5t-19 69.5t-4 93t10.5 102.5t24.5 97.5t37.5 78t50.5 45t63.5 -2q40 -19 65.5 -53t37 -77t10.5 -91t-12.5 -94t-33 -87t-51.5 -69.5t-66.5 -41t-78.5 -2.5zM101 67q42 -3 75.5 24.5t55 70.5t31 95t4.5 97.5t-26.5 78.5t-60.5 38q-14 6 -28 -8
t-27 -40.5t-23.5 -62.5t-18 -74.5t-11 -76.5t-2 -68.5t9 -50.5t21.5 -23zM201 582q-20 18 -35 30t-28 24t-25 27.5t-27 39.5q-4 5 -0.5 14.5t11 16.5t17 9.5t18.5 -6.5l114 -123q3 -7 -1.5 -15t-12 -13.5t-16.5 -7t-15 3.5z" />
    <glyph glyph-name="ohungarumlaut" unicode="&#x151;" horiz-adv-x="332" 
d="M80 8q-21 4 -34.5 31.5t-19 69.5t-4 93t10.5 102.5t24.5 97.5t37.5 78t50.5 45t63.5 -2q40 -19 65.5 -53t37 -77t10.5 -91t-12.5 -94t-33 -87t-51.5 -69.5t-66.5 -41t-78.5 -2.5zM101 67q42 -3 75.5 24.5t55 70.5t31 95t4.5 97.5t-26.5 78.5t-60.5 38q-14 6 -28 -8
t-27 -40.5t-23.5 -62.5t-18 -74.5t-11 -76.5t-2 -68.5t9 -50.5t21.5 -23zM100 606q-15 -15 -26.5 -17.5t-19 4t-10.5 20t1 30.5q23 24 42.5 49t42.5 51q4 4 11 10t17 9t23 1t28 -14zM252 594q-15 -15 -26.5 -17.5t-19 4t-10.5 20t1 30.5q23 24 42.5 49t42.5 51q4 4 11 10
t17 9t23 1t28 -14z" />
    <glyph glyph-name="omacron" unicode="&#x14d;" horiz-adv-x="332" 
d="M80 8q-21 4 -34.5 31.5t-19 69.5t-4 93t10.5 102.5t24.5 97.5t37.5 78t50.5 45t63.5 -2q40 -19 65.5 -53t37 -77t10.5 -91t-12.5 -94t-33 -87t-51.5 -69.5t-66.5 -41t-78.5 -2.5zM101 67q42 -3 75.5 24.5t55 70.5t31 95t4.5 97.5t-26.5 78.5t-60.5 38q-14 6 -28 -8
t-27 -40.5t-23.5 -62.5t-18 -74.5t-11 -76.5t-2 -68.5t9 -50.5t21.5 -23zM33 584q-9 -1 -21 3.5t-18.5 12.5t-5 19t19.5 23l326 -1q13 -2 23 -8t13.5 -14t0 -17t-18.5 -16z" />
    <glyph glyph-name="otilde" unicode="&#xf5;" horiz-adv-x="332" 
d="M80 8q-21 4 -34.5 31.5t-19 69.5t-4 93t10.5 102.5t24.5 97.5t37.5 78t50.5 45t63.5 -2q40 -19 65.5 -53t37 -77t10.5 -91t-12.5 -94t-33 -87t-51.5 -69.5t-66.5 -41t-78.5 -2.5zM101 67q42 -3 75.5 24.5t55 70.5t31 95t4.5 97.5t-26.5 78.5t-60.5 38q-14 6 -28 -8
t-27 -40.5t-23.5 -62.5t-18 -74.5t-11 -76.5t-2 -68.5t9 -50.5t21.5 -23zM-21 605q27 53 59 87t64.5 46t63 1.5t53.5 -46.5q15 -32 31 -46t32 -15t31.5 8t30 21.5t27.5 26.5t24 24q2 2 9.5 2t9.5 -2q6 -8 -1.5 -29.5t-25 -44.5t-41.5 -41.5t-51 -22.5t-54.5 13.5t-50.5 67.5
q-20 32 -39 40.5t-39.5 -2t-44 -37.5t-53.5 -67q-1 1 -6.5 3t-11.5 4.5t-11 5t-6 3.5z" />
    <glyph glyph-name="oslash" unicode="&#xf8;" horiz-adv-x="356" 
d="M78 25q-30 -10 -46 -9t-22.5 8.5t-4 18.5t10.5 22l265 470l63 -31zM97 12q-21 4 -34.5 31.5t-19 69.5t-4 93t10.5 102.5t24.5 97.5t37.5 78t50.5 45t63.5 -2q40 -19 65.5 -53t37 -77t10.5 -91t-12.5 -94t-33 -87t-51.5 -69.5t-66.5 -41t-78.5 -2.5zM118 71
q42 -3 75.5 24.5t55 70.5t31 95t4.5 97.5t-26.5 78.5t-60.5 38q-14 6 -28 -8t-27 -40.5t-23.5 -62.5t-18 -74.5t-11 -76.5t-2 -68.5t9 -50.5t21.5 -23z" />
    <glyph glyph-name="oslashacute" unicode="&#x1ff;" horiz-adv-x="332" 
d="M78 25q-30 -10 -46 -9t-22.5 8.5t-4 18.5t10.5 22l265 470l63 -31zM97 12q-21 4 -34.5 31.5t-19 69.5t-4 93t10.5 102.5t24.5 97.5t37.5 78t50.5 45t63.5 -2q40 -19 65.5 -53t37 -77t10.5 -91t-12.5 -94t-33 -87t-51.5 -69.5t-66.5 -41t-78.5 -2.5zM118 71
q42 -3 75.5 24.5t55 70.5t31 95t4.5 97.5t-26.5 78.5t-60.5 38q-14 6 -28 -8t-27 -40.5t-23.5 -62.5t-18 -74.5t-11 -76.5t-2 -68.5t9 -50.5t21.5 -23zM195 598q-15 -15 -26.5 -17.5t-19 4t-10.5 20t1 30.5q12 12 20.5 23t16.5 22t16.5 22.5t19.5 24.5q4 4 11 10t17 9t23 1
t28 -14z" />
    <glyph glyph-name="oe" unicode="&#x153;" horiz-adv-x="647" 
d="M80 8q-21 4 -34.5 31.5t-19 69.5t-4 93t10.5 102.5t24.5 97.5t37.5 78t50.5 45t63.5 -2q40 -19 65.5 -53t37 -77t10.5 -91t-12.5 -94t-33 -87t-51.5 -69.5t-66.5 -41t-78.5 -2.5zM101 67q42 -3 75.5 24.5t55 70.5t31 95t4.5 97.5t-26.5 78.5t-60.5 38q-14 6 -28 -8
t-27 -40.5t-23.5 -62.5t-18 -74.5t-11 -76.5t-2 -68.5t9 -50.5t21.5 -23zM618 176q14 -17 1.5 -41.5t-41 -48.5t-67.5 -45t-78.5 -31.5t-73.5 -7t-53 27.5q-36 88 -38.5 169.5t17.5 148t56.5 114.5t79 67.5t84.5 7t74 -65.5q12 -29 -3.5 -54t-50 -50t-82.5 -51.5t-100 -59.5
q-19 -82 -12 -126t31 -60.5t59.5 -10.5t72.5 24.5t70.5 44t53.5 48.5zM524 435q-18 35 -45.5 37.5t-54.5 -16.5t-48.5 -54t-27.5 -74q25 15 58 30.5t60.5 29.5t45 26t12.5 21z" />
    <glyph glyph-name="racute" unicode="&#x155;" horiz-adv-x="480" 
d="M180 20q-4 -13 -14 -21.5t-20 -10.5t-18 3.5t-9 20.5q-2 19 -1 54.5t2.5 79t2.5 90.5t-0.5 88t-7.5 71t-18 40t-32 -4.5t-49 -63.5q-12 26 -4 51t27.5 41.5t45 22.5t48 -5t37 -41.5t11.5 -86.5q0 21 14.5 46t39 48.5t55 42t61.5 26t59.5 0.5t48.5 -33q6 -9 6.5 -18
t-3 -15.5t-10 -8.5t-14.5 3q-47 27 -82.5 22.5t-63 -30t-46.5 -66.5t-32 -87.5t-20 -94t-10.5 -85t-4 -60t0.5 -19.5zM224 561q-15 -15 -26.5 -17.5t-19 4t-10.5 20t1 30.5q12 12 20.5 23t16.5 22t16.5 22.5t19.5 24.5q4 4 11 10t17 9t23 1t28 -14z" />
    <glyph glyph-name="rcaron" unicode="&#x159;" horiz-adv-x="480" 
d="M180 20q-4 -13 -14 -21.5t-20 -10.5t-18 3.5t-9 20.5q-2 19 -1 54.5t2.5 79t2.5 90.5t-0.5 88t-7.5 71t-18 40t-32 -4.5t-49 -63.5q-12 26 -4 51t27.5 41.5t45 22.5t48 -5t37 -41.5t11.5 -86.5q0 21 14.5 46t39 48.5t55 42t61.5 26t59.5 0.5t48.5 -33q6 -9 6.5 -18
t-3 -15.5t-10 -8.5t-14.5 3q-47 27 -82.5 22.5t-63 -30t-46.5 -66.5t-32 -87.5t-20 -94t-10.5 -85t-4 -60t0.5 -19.5zM262 596q13 8 26 23t23.5 31.5t19 33t13.5 27.5q24 -5 40 -11t12 -20q-3 -9 -15.5 -26.5t-28 -37t-29 -37t-17.5 -26.5q-16 -8 -29.5 -9.5t-24 1t-18 6.5
t-11.5 7q-12 9 -29.5 26t-36.5 36t-37 36.5t-30 25.5q-8 24 9 35t48 -9z" />
    <glyph glyph-name="rcommaaccent" unicode="&#x157;" horiz-adv-x="480" 
d="M180 20q-4 -13 -14 -21.5t-20 -10.5t-18 3.5t-9 20.5q-2 19 -1 54.5t2.5 79t2.5 90.5t-0.5 88t-7.5 71t-18 40t-32 -4.5t-49 -63.5q-12 26 -4 51t27.5 41.5t45 22.5t48 -5t37 -41.5t11.5 -86.5q0 21 14.5 46t39 48.5t55 42t61.5 26t59.5 0.5t48.5 -33q6 -9 6.5 -18
t-3 -15.5t-10 -8.5t-14.5 3q-47 27 -82.5 22.5t-63 -30t-46.5 -66.5t-32 -87.5t-20 -94t-10.5 -85t-4 -60t0.5 -19.5zM232 -358q-14 -6 -32.5 -12t-35 -6t-29 8t-13.5 29q31 3 67.5 16t64 36t39.5 55.5t-6 75.5q2 -12 -14 -19.5t-38 -9t-44 4t-33 20t-4.5 38t41.5 58.5
q36 24 66 16t50.5 -35.5t28.5 -67.5t0.5 -80.5t-34 -75.5t-74.5 -51z" />
    <glyph glyph-name="sacute" unicode="&#x15b;" horiz-adv-x="364" 
d="M128 13q-11 -1 -25 7t-27 21.5t-22.5 30t-11 30.5t7 23t31.5 9q-1 -29 14 -46.5t37.5 -24.5t49.5 -5.5t50.5 10.5t39.5 24t18 34q1 13 -17 29t-46 34.5t-61.5 39t-62.5 44t-49.5 49t-22.5 53.5t19 58.5t74 62.5q35 9 63.5 3t49.5 -20.5t33.5 -35t15.5 -40t-4.5 -35
t-27.5 -20.5q-3 32 -21 58t-43.5 36t-55 -0.5t-56.5 -52.5q-5 -19 8.5 -38.5t38 -38.5t56 -38t61 -36t53 -33t33.5 -29q24 -28 24.5 -54t-15 -47t-42 -37t-57 -24.5t-60 -9.5t-50.5 9zM166 561q-15 -15 -26.5 -17.5t-19 4t-10.5 20t1 30.5q12 12 20.5 23t16.5 22t16.5 22.5
t19.5 24.5q4 4 11 10t17 9t23 1t28 -14z" />
    <glyph glyph-name="scaron" unicode="&#x161;" horiz-adv-x="364" 
d="M128 13q-11 -1 -25 7t-27 21.5t-22.5 30t-11 30.5t7 23t31.5 9q-1 -29 14 -46.5t37.5 -24.5t49.5 -5.5t50.5 10.5t39.5 24t18 34q1 13 -17 29t-46 34.5t-61.5 39t-62.5 44t-49.5 49t-22.5 53.5t19 58.5t74 62.5q35 9 63.5 3t49.5 -20.5t33.5 -35t15.5 -40t-4.5 -35
t-27.5 -20.5q-3 32 -21 58t-43.5 36t-55 -0.5t-56.5 -52.5q-5 -19 8.5 -38.5t38 -38.5t56 -38t61 -36t53 -33t33.5 -29q24 -28 24.5 -54t-15 -47t-42 -37t-57 -24.5t-60 -9.5t-50.5 9zM204 596q13 8 26 23t23.5 31.5t19 33t13.5 27.5q24 -5 40 -11t12 -20q-3 -9 -15.5 -26.5
t-28 -37t-29 -37t-17.5 -26.5q-16 -8 -29.5 -9.5t-24 1t-18 6.5t-11.5 7q-12 9 -29.5 26t-36.5 36t-37 36.5t-30 25.5q-8 24 9 35t48 -9z" />
    <glyph glyph-name="scedilla" unicode="&#x15f;" horiz-adv-x="364" 
d="M128 13q-11 -1 -25 7t-27 21.5t-22.5 30t-11 30.5t7 23t31.5 9q-1 -29 14 -46.5t37.5 -24.5t49.5 -5.5t50.5 10.5t39.5 24t18 34q1 13 -17 29t-46 34.5t-61.5 39t-62.5 44t-49.5 49t-22.5 53.5t19 58.5t74 62.5q35 9 63.5 3t49.5 -20.5t33.5 -35t15.5 -40t-4.5 -35
t-27.5 -20.5q-3 32 -21 58t-43.5 36t-55 -0.5t-56.5 -52.5q-5 -19 8.5 -38.5t38 -38.5t56 -38t61 -36t53 -33t33.5 -29q24 -28 24.5 -54t-15 -47t-42 -37t-57 -24.5t-60 -9.5t-50.5 9zM311 -94q-57 -3 -93 10t-55 32t-22.5 40.5t3.5 36t23 18t37 -13.5q-3 -32 5 -49
t22 -24.5t33 -8.5l38 -2t37 -4t31 -14q25 -46 14 -83.5t-39 -60.5t-63.5 -29.5t-60.5 9.5q-16 -2 -37.5 14t-34.5 36.5t-9 37.5t39 17q9 -29 26.5 -42.5t38 -15t39.5 7t31 22t12.5 31.5t-15.5 35z" />
    <glyph glyph-name="scircumflex" unicode="&#x15d;" horiz-adv-x="364" 
d="M128 13q-11 -1 -25 7t-27 21.5t-22.5 30t-11 30.5t7 23t31.5 9q-1 -29 14 -46.5t37.5 -24.5t49.5 -5.5t50.5 10.5t39.5 24t18 34q1 13 -17 29t-46 34.5t-61.5 39t-62.5 44t-49.5 49t-22.5 53.5t19 58.5t74 62.5q35 9 63.5 3t49.5 -20.5t33.5 -35t15.5 -40t-4.5 -35
t-27.5 -20.5q-3 32 -21 58t-43.5 36t-55 -0.5t-56.5 -52.5q-5 -19 8.5 -38.5t38 -38.5t56 -38t61 -36t53 -33t33.5 -29q24 -28 24.5 -54t-15 -47t-42 -37t-57 -24.5t-60 -9.5t-50.5 9zM94 548q-15 -15 -26.5 -17.5t-19 4t-10.5 20t1 30.5q12 12 28.5 31.5t34 40.5t34 41
t27.5 33q4 4 11 10t17 9t23 1t28 -14q4 -12 17 -32t28 -42t28 -42t15 -32q4 -20 -11 -29t-38 -16q-3 13 -6.5 21.5t-11.5 20.5t-23 32.5t-40 57.5z" />
    <glyph glyph-name="scommaaccent" unicode="&#x219;" horiz-adv-x="364" 
d="M128 13q-11 -1 -25 7t-27 21.5t-22.5 30t-11 30.5t7 23t31.5 9q-1 -29 14 -46.5t37.5 -24.5t49.5 -5.5t50.5 10.5t39.5 24t18 34q1 13 -17 29t-46 34.5t-61.5 39t-62.5 44t-49.5 49t-22.5 53.5t19 58.5t74 62.5q35 9 63.5 3t49.5 -20.5t33.5 -35t15.5 -40t-4.5 -35
t-27.5 -20.5q-3 32 -21 58t-43.5 36t-55 -0.5t-56.5 -52.5q-5 -19 8.5 -38.5t38 -38.5t56 -38t61 -36t53 -33t33.5 -29q24 -28 24.5 -54t-15 -47t-42 -37t-57 -24.5t-60 -9.5t-50.5 9zM174 -358q-14 -6 -32.5 -12t-35 -6t-29 8t-13.5 29q31 3 67.5 16t64 36t39.5 55.5
t-6 75.5q2 -12 -14 -19.5t-38 -9t-44 4t-33 20t-4.5 38t41.5 58.5q36 24 66 16t50.5 -35.5t28.5 -67.5t0.5 -80.5t-34 -75.5t-74.5 -51z" />
    <glyph glyph-name="tbar" unicode="&#x167;" horiz-adv-x="344" 
d="M16 348q-9 -1 -21 3.5t-18.5 12.5t-5 19t19.5 23l271 40q13 -2 23 -8t13.5 -14t0 -17t-18.5 -16zM293 180l7 -2t12 -8.5t4 -19.5t-17 -34q-36 -50 -70.5 -81.5t-63.5 -38t-51 15t-33 78t-10.5 151t16.5 234.5q-21 -1 -34.5 -5t-25.5 -8.5t-25.5 -8t-34.5 -3.5
q-14 16 -11.5 28t15 20.5t31.5 14.5t38 11.5t34 11.5t20 13q8 34 11.5 74.5t3 77.5t-6.5 63.5t-17.5 32.5t-29 -14.5t-42.5 -78.5q-7 21 -1.5 46t19 48.5t32.5 40.5t37.5 21.5t35 -7.5t25.5 -47.5t7.5 -98t-17.5 -158.5q19 6 47 8.5t51.5 -1.5t34 -16t-5.5 -34l-137 -23
q4 -18 2 -55t-5.5 -81.5t-7 -92t-2 -87t9.5 -66.5t26.5 -30.5t49.5 21t79 88.5z" />
    <glyph glyph-name="tcaron" unicode="&#x165;" horiz-adv-x="393" 
d="M293 180l7 -2t12 -8.5t4 -19.5t-17 -34q-36 -50 -70.5 -81.5t-63.5 -38t-51 15t-33 78t-10.5 151t16.5 234.5q-21 -1 -34.5 -5t-25.5 -8.5t-25.5 -8t-34.5 -3.5q-14 16 -11.5 28t15 20.5t31.5 14.5t38 11.5t34 11.5t20 13q8 34 11.5 74.5t3 77.5t-6.5 63.5t-17.5 32.5
t-29 -14.5t-42.5 -78.5q-7 21 -1.5 46t19 48.5t32.5 40.5t37.5 21.5t35 -7.5t25.5 -47.5t7.5 -98t-17.5 -158.5q19 6 47 8.5t51.5 -1.5t34 -16t-5.5 -34l-137 -23q4 -18 2 -55t-5.5 -81.5t-7 -92t-2 -87t9.5 -66.5t26.5 -30.5t49.5 21t79 88.5zM231 652q4 2 21 9.5t34.5 24
t29.5 44t7 69.5q-18 -16 -43.5 -20t-48.5 2q-8 2 -13 8.5t-7 15t-1.5 17t3.5 14.5q4 8 12.5 16.5t19 16.5t21.5 14t20 8q40 5 60.5 -9t26.5 -39.5t0.5 -57.5t-18.5 -63t-30.5 -57t-35.5 -38.5t-33.5 -8.5t-24.5 34z" />
    <glyph glyph-name="tcommaaccent" unicode="&#x163;" horiz-adv-x="344" 
d="M293 180l7 -2t12 -8.5t4 -19.5t-17 -34q-36 -50 -70.5 -81.5t-63.5 -38t-51 15t-33 78t-10.5 151t16.5 234.5q-21 -1 -34.5 -5t-25.5 -8.5t-25.5 -8t-34.5 -3.5q-14 16 -11.5 28t15 20.5t31.5 14.5t38 11.5t34 11.5t20 13q8 34 11.5 74.5t3 77.5t-6.5 63.5t-17.5 32.5
t-29 -14.5t-42.5 -78.5q-7 21 -1.5 46t19 48.5t32.5 40.5t37.5 21.5t35 -7.5t25.5 -47.5t7.5 -98t-17.5 -158.5q19 6 47 8.5t51.5 -1.5t34 -16t-5.5 -34l-137 -23q4 -18 2 -55t-5.5 -81.5t-7 -92t-2 -87t9.5 -66.5t26.5 -30.5t49.5 21t79 88.5zM164 -358q-14 -6 -32.5 -12
t-35 -6t-29 8t-13.5 29q31 3 67.5 16t64 36t39.5 55.5t-6 75.5q2 -12 -14 -19.5t-38 -9t-44 4t-33 20t-4.5 38t41.5 58.5q36 24 66 16t50.5 -35.5t28.5 -67.5t0.5 -80.5t-34 -75.5t-74.5 -51z" />
    <glyph glyph-name="uacute" unicode="&#xfa;" horiz-adv-x="626" 
d="M356 205q-29 -30 -56.5 -61.5t-52.5 -59t-47.5 -48.5t-41 -29.5t-32.5 -1.5t-23 35l-5 383q-12 -34 -24 -61.5t-23.5 -41.5t-22 -11t-19.5 29q22 85 39.5 132t32 64.5t25.5 8t19 -38.5t14 -74.5t10.5 -100t7 -114.5t4.5 -118q33 8 66 48.5t61 98t47.5 124t26.5 128.5
q0 13 7 25.5t17 17.5t21 0t19 -27q3 -31 0 -72.5t-7.5 -87.5t-8 -92t-1.5 -86t11.5 -70.5t31.5 -44t58.5 -6.5t92.5 41q12 12 19.5 12.5t10.5 -6t3 -17.5t-2.5 -21t-8 -17t-11.5 -5q-44 -44 -90.5 -52.5t-84 14.5t-61.5 75t-22 128zM284 606q-15 -15 -26.5 -17.5t-19 4
t-10.5 20t1 30.5q12 12 20.5 23t16.5 22t16.5 22.5t19.5 24.5q4 4 11 10t17 9t23 1t28 -14z" />
    <glyph glyph-name="ubreve" unicode="&#x16d;" horiz-adv-x="626" 
d="M356 205q-29 -30 -56.5 -61.5t-52.5 -59t-47.5 -48.5t-41 -29.5t-32.5 -1.5t-23 35l-5 383q-12 -34 -24 -61.5t-23.5 -41.5t-22 -11t-19.5 29q22 85 39.5 132t32 64.5t25.5 8t19 -38.5t14 -74.5t10.5 -100t7 -114.5t4.5 -118q33 8 66 48.5t61 98t47.5 124t26.5 128.5
q0 13 7 25.5t17 17.5t21 0t19 -27q3 -31 0 -72.5t-7.5 -87.5t-8 -92t-1.5 -86t11.5 -70.5t31.5 -44t58.5 -6.5t92.5 41q12 12 19.5 12.5t10.5 -6t3 -17.5t-2.5 -21t-8 -17t-11.5 -5q-44 -44 -90.5 -52.5t-84 14.5t-61.5 75t-22 128zM210 667q13 -33 27.5 -46.5t29 -14t29 9
t28.5 21t26.5 23t22.5 15.5q24 -10 23.5 -30t-17.5 -40t-45.5 -35t-60 -16t-61 17.5t-47.5 65.5q-4 12 -3 22t6.5 15t16 4t25.5 -11z" />
    <glyph glyph-name="ucircumflex" unicode="&#xfb;" horiz-adv-x="626" 
d="M356 205q-29 -30 -56.5 -61.5t-52.5 -59t-47.5 -48.5t-41 -29.5t-32.5 -1.5t-23 35l-5 383q-12 -34 -24 -61.5t-23.5 -41.5t-22 -11t-19.5 29q22 85 39.5 132t32 64.5t25.5 8t19 -38.5t14 -74.5t10.5 -100t7 -114.5t4.5 -118q33 8 66 48.5t61 98t47.5 124t26.5 128.5
q0 13 7 25.5t17 17.5t21 0t19 -27q3 -31 0 -72.5t-7.5 -87.5t-8 -92t-1.5 -86t11.5 -70.5t31.5 -44t58.5 -6.5t92.5 41q12 12 19.5 12.5t10.5 -6t3 -17.5t-2.5 -21t-8 -17t-11.5 -5q-44 -44 -90.5 -52.5t-84 14.5t-61.5 75t-22 128zM176 610q-15 -15 -26.5 -17.5t-19 4
t-10.5 20t1 30.5q12 12 28.5 31.5t34 40.5t34 41t27.5 33q4 4 11 10t17 9t23 1t28 -14q4 -12 17 -32t28 -42t28 -42t15 -32q4 -20 -11 -29t-38 -16q-3 13 -6.5 21.5t-11.5 20.5t-23 32.5t-40 57.5z" />
    </font>
</defs>
</svg>
